<?xml version="1.0" encoding="utf-8"?>
<!-- Generator: Adobe Illustrator 16.0.0, SVG Export Plug-In . SVG Version: 6.00 Build 0)  -->
<!DOCTYPE svg PUBLIC "-//W3C//DTD SVG 1.1//EN" "http://www.w3.org/Graphics/SVG/1.1/DTD/svg11.dtd">
<svg version="1.1" id="Layer_1" xmlns="http://www.w3.org/2000/svg" xmlns:xlink="http://www.w3.org/1999/xlink" x="0px" y="0px"
	 width="20.5px" height="20.5px" viewBox="0 0 20.5 20.5" enable-background="new 0 0 20.5 20.5" xml:space="preserve">
<g>
	<rect fill="#38CEB6" width="20.5" height="20.5"/>
</g>
<g>
	<path fill="#FFFFFF" d="M10.882,12.472v-0.129c0.912-0.35,1.578-1.438,1.578-2.724c0-1.57-0.989-2.843-2.21-2.843
		S8.039,8.049,8.039,9.619c0,1.286,0.665,2.374,1.579,2.724v0.129c-2.142,0.091-3.788,0.615-3.788,1.252v1.263h8.84v-1.263
		C14.67,13.087,13.022,12.562,10.882,12.472"/>
	<path fill="#FFFFFF" d="M14.67,9.939V9.89c0.721-0.203,1.263-1.096,1.263-2.166c0-1.22-0.706-2.21-1.579-2.21
		c-0.872,0-1.578,0.99-1.578,2.21c0,1.07,0.542,1.963,1.263,2.166v0.05c-0.312,0.013-0.612,0.041-0.886,0.083
		c-0.062,0.674-0.279,1.295-0.61,1.807h4.654v-0.948C17.196,10.393,16.091,9.991,14.67,9.939L14.67,9.939z"/>
	<path fill="#FFFFFF" d="M7.347,10.022C7.072,9.981,6.773,9.953,6.46,9.94v-0.05c0.721-0.204,1.264-1.096,1.264-2.166
		c0-1.221-0.707-2.211-1.579-2.211c-0.873,0-1.579,0.99-1.579,2.211c0,1.07,0.542,1.962,1.265,2.166v0.05
		c-1.423,0.052-2.527,0.453-2.527,0.942v0.947h4.652c-0.33-0.512-0.546-1.134-0.608-1.806V10.022z"/>
</g>
</svg>
