<?xml version="1.0" encoding="utf-8"?>
<!-- Generator: Adobe Illustrator 16.0.0, SVG Export Plug-In . SVG Version: 6.00 Build 0)  -->
<!DOCTYPE svg PUBLIC "-//W3C//DTD SVG 1.1//EN" "http://www.w3.org/Graphics/SVG/1.1/DTD/svg11.dtd">
<svg version="1.1" id="Layer_1" xmlns="http://www.w3.org/2000/svg" xmlns:xlink="http://www.w3.org/1999/xlink" x="0px" y="0px"
	 width="20.5px" height="20.5px" viewBox="0 0 20.5 20.5" enable-background="new 0 0 20.5 20.5" xml:space="preserve">
<g>
	<rect fill="#ABA6FF" width="20.5" height="20.5"/>
</g>
<path fill="#FFFFFF" d="M9.298,11.833c0.783,0.563,1.742,0.897,2.78,0.897c2.628,0,4.756-2.129,4.756-4.755
	c0-2.627-2.128-4.756-4.756-4.756c-2.626,0-4.755,2.129-4.755,4.756c0,1.038,0.333,1.996,0.897,2.78L3,15.324l1.729,1.729
	L9.298,11.833z M8.621,7.976c0-1.911,1.548-3.459,3.458-3.459c1.911,0,3.459,1.548,3.459,3.459c0,1.909-1.548,3.459-3.459,3.459
	C10.169,11.435,8.621,9.885,8.621,7.976"/>
</svg>
