<?xml version="1.0" encoding="utf-8"?>
<!-- Generator: Adobe Illustrator 19.2.1, SVG Export Plug-In . SVG Version: 6.00 Build 0)  -->
<svg version="1.1" id="Layer_1" xmlns="http://www.w3.org/2000/svg" xmlns:xlink="http://www.w3.org/1999/xlink" x="0px" y="0px"
	 viewBox="0 0 13.5 13.5" style="enable-background:new 0 0 13.5 13.5;" xml:space="preserve">
<g transform="translate(192 960)">
	<path class="st0" d="M-181.4-956.9c1.6,1.2,1.8,4.8,2.1,6l-3,1.2c-0.3-2-2.9-3.5-3-5.8C-185.5-957.8-183.1-958.1-181.4-956.9z
		 M-179.6-946.7c-2.4,0.9-2.6-2.4-2.6-2.4l3.1-1.3C-179-950.3-177.5-947.4-179.6-946.7z M-192-957.5c0.3-2,2.3-3.5,3.8-1.8
		c1.5,1.7,0.7,4.6,1.9,6.2l-3,1.3C-189.8-952.8-192.3-955.5-192-957.5L-192-957.5z M-186-948.9c-2,0.9-3-2.2-3-2.2l3.1-1.3
		C-185.9-952.4-183.7-950-186-948.9z"/>
</g>
</svg>
