<?xml version="1.0" encoding="utf-8"?>
<!-- Generator: Adobe Illustrator 19.2.1, SVG Export Plug-In . SVG Version: 6.00 Build 0)  -->
<svg version="1.1" id="Layer_1" xmlns="http://www.w3.org/2000/svg" xmlns:xlink="http://www.w3.org/1999/xlink" x="0px" y="0px"
	 viewBox="0 0 13.5 13.5" style="enable-background:new 0 0 13.5 13.5;" xml:space="preserve">
<path class="st0" d="M9.1,0L3.7,5.4L2.2,9.7l4.2-1.5l5.4-5.4C12.1,1.6,10.3-0.2,9.1,0 M5,6.6L4.4,6.1l5.1-5.1l0.6,0.6L5,6.6z"/>
<path class="st0" d="M3.1,10l0.4,1.3h1.4l-1.1,0.8l0.4,1.3l-1.1-0.8L2,13.5l0.4-1.3l-1.1-0.8h1.4L3.1,10z"/>
<path class="st0" d="M6.8,10l0.4,1.3h1.4l-1.1,0.8l0.4,1.3l-1.1-0.8l-1.1,0.8l0.5-1.3l-1.2-0.8h1.4L6.8,10z"/>
<path class="st0" d="M10.4,10l0.5,1.3h1.3l-1.1,0.8l0.4,1.3l-1.1-0.8l-1.1,0.8l0.4-1.3l-1.1-0.8H10L10.4,10z"/>
</svg>
