<?xml version="1.0" encoding="utf-8"?>
<!-- Generator: Adobe Illustrator 16.0.0, SVG Export Plug-In . SVG Version: 6.00 Build 0)  -->
<!DOCTYPE svg PUBLIC "-//W3C//DTD SVG 1.1//EN" "http://www.w3.org/Graphics/SVG/1.1/DTD/svg11.dtd">
<svg version="1.1" id="Layer_1" xmlns="http://www.w3.org/2000/svg" xmlns:xlink="http://www.w3.org/1999/xlink" x="0px" y="0px"
	 width="10.069px" height="13.425px" viewBox="0 0 10.069 13.425" enable-background="new 0 0 10.069 13.425" xml:space="preserve">
<path fill="#444444" d="M10.069,5.874C10.069,2.629,7.815,0,5.035,0C2.254,0,0,2.629,0,5.874c0,2.918,1.824,5.339,4.214,5.796
	l-0.438,1.756h2.517l-0.438-1.756C8.244,11.212,10.069,8.792,10.069,5.874 M2.027,6.712H0.769c-0.04-0.273-0.061-0.553-0.061-0.839
	c0-0.59,0.089-1.155,0.254-1.678H2.22C2.056,4.719,1.966,5.283,1.966,5.874c0,0.286,0.021,0.566,0.062,0.839H2.027z"/>
</svg>
