<?xml version="1.0" encoding="utf-8"?>
<!-- Generator: Adobe Illustrator 19.2.1, SVG Export Plug-In . SVG Version: 6.00 Build 0)  -->
<svg version="1.1" id="Layer_1" xmlns="http://www.w3.org/2000/svg" xmlns:xlink="http://www.w3.org/1999/xlink" x="0px" y="0px"
	 viewBox="0 0 13.5 13.5" style="enable-background:new 0 0 13.5 13.5;" xml:space="preserve">
<title>materialikon-uden-kvadrat-musik_v2</title>
<g transform="translate(0.000000,600.000000) scale(0.100000,-0.100000)">
	<path class="st0" d="M11.3,5979.8c-4.3-0.9-8.2-4.1-10-8.1c-1.4-3.1-1.4-1.4-1.3-40.6l0.1-35.7l0.6-1.8c1.8-5.3,6.2-9,11.8-9.8
		c1.3-0.2,16.8-0.2,56.4-0.2l54.6,0.1l1.6,0.6c4.5,1.6,7.7,4.9,9.2,9.2l0.6,1.8l0.1,36.4c0.1,40.1,0.2,37.2-1.3,40.3
		c-0.8,1.6-2.8,4.1-4.3,5.2c-0.6,0.4-1.7,1.1-2.5,1.4c-3.1,1.5,0.9,1.4-59.4,1.4C20.1,5980.1,12.7,5980,11.3,5979.8z M95,5946.2
		L68.8,5920h-1h-1l-26.2,26.2l-26.2,26.2h53.5h53.5L95,5946.2z M127.8,5926.1l-0.1-30l-0.5-1.3c-0.6-1.4-1.9-2.8-3.2-3.3l-0.8-0.3
		l-18.2,18.3l-18.2,18.3l20.4,20.4l20.4,20.4l0.1-6.2C127.8,5959,127.8,5942.6,127.8,5926.1z M33.2,5913
		c-8.3-8.3-16.6-16.7-18.4-18.5l-3.3-3.4l-0.6,0.3c-0.8,0.4-1.7,1.4-2.3,2.4c-0.4,0.8-0.4,2.2-0.5,37.7v36.9l20.1-20.1l20.1-20.1
		L33.2,5913z M60,5916.5c3.5-3.5,6.6-6.5,6.9-6.7c1.3-0.5,1.7-0.2,8.3,6.4l6.3,6.3l15.9-15.9l15.9-15.9H67.4H21.2l16.1,16.1
		c8.8,8.8,16.2,16.1,16.2,16.1C53.7,5922.9,56.6,5920.1,60,5916.5z"/>
</g>
</svg>
