<?xml version="1.0" encoding="utf-8"?>
<!-- Generator: Adobe Illustrator 19.2.1, SVG Export Plug-In . SVG Version: 6.00 Build 0)  -->
<svg version="1.1" id="Layer_1" xmlns="http://www.w3.org/2000/svg" xmlns:xlink="http://www.w3.org/1999/xlink" x="0px" y="0px"
	 viewBox="0 0 13.5 13.5" style="enable-background:new 0 0 13.5 13.5;" xml:space="preserve">
<title>materialikon-uden-kvadrat-musik_v2</title>
<g id="Icons" class="st0">
	<g id="tag-big">
		<g>
			<path d="M13.3,6.8c0.3,0.3,0.3,0.7,0,1l-5.5,5.5c-0.3,0.3-0.7,0.3-1,0L0.5,7C0.2,6.7,0,6.2,0,5.8V0.7C0,0.3,0.3,0,0.7,0h5.1
				C6.2,0,6.7,0.2,7,0.5L13.3,6.8z M2.3,2.3c-0.5,0.5-0.5,1.4,0,1.9c0.5,0.5,1.4,0.5,1.9,0c0.5-0.5,0.5-1.4,0-1.9
				C3.7,1.8,2.8,1.8,2.3,2.3z"/>
		</g>
	</g>
</g>
</svg>
