<?xml version="1.0" encoding="utf-8"?>
<!-- Generator: Adobe Illustrator 16.0.0, SVG Export Plug-In . SVG Version: 6.00 Build 0)  -->
<!DOCTYPE svg PUBLIC "-//W3C//DTD SVG 1.1//EN" "http://www.w3.org/Graphics/SVG/1.1/DTD/svg11.dtd">
<svg version="1.1" id="Layer_1" xmlns="http://www.w3.org/2000/svg" xmlns:xlink="http://www.w3.org/1999/xlink" x="0px" y="0px"
	 width="16px" height="13px" viewBox="0 0 16 13" enable-background="new 0 0 16 13" xml:space="preserve">
<path d="M4.75,7.5c0,1.795,1.454,3.25,3.25,3.25c1.795,0,3.25-1.455,3.25-3.25c0-1.795-1.455-3.25-3.25-3.25
	C6.204,4.25,4.75,5.705,4.75,7.5 M15,2h-3.5C11.25,1,11,0,10,0H6C5,0,4.75,1,4.5,2H1C0.449,2,0,2.45,0,3v9c0,0.549,0.449,1,1,1h14
	c0.549,0,1-0.451,1-1V3C16,2.45,15.549,2,15,2 M8,11.937c-2.451,0-4.439-1.985-4.439-4.437c0-2.451,1.988-4.438,4.439-4.438
	c2.45,0,4.438,1.987,4.438,4.438C12.438,9.952,10.45,11.937,8,11.937 M15,5h-2V4h2V5z"/>
</svg>
