<?xml version="1.0" encoding="utf-8"?>
<!-- Generator: Adobe Illustrator 16.0.0, SVG Export Plug-In . SVG Version: 6.00 Build 0)  -->
<!DOCTYPE svg PUBLIC "-//W3C//DTD SVG 1.1//EN" "http://www.w3.org/Graphics/SVG/1.1/DTD/svg11.dtd">
<svg version="1.1" id="Layer_1" xmlns="http://www.w3.org/2000/svg" xmlns:xlink="http://www.w3.org/1999/xlink" x="0px" y="0px"
	 width="13.123px" height="13.123px" viewBox="0 0 13.123 13.123" enable-background="new 0 0 13.123 13.123" xml:space="preserve">
<path d="M13.002,10.542L13.002,10.542l-3.98-3.98l3.98-3.98c0.041-0.043,0.072-0.093,0.092-0.146
	C13.151,2.288,13.12,2.118,13.002,2l-1.881-1.88c-0.117-0.118-0.287-0.149-0.434-0.094c-0.053,0.019-0.104,0.05-0.146,0.094
	l-3.98,3.98L2.58,0.12C2.537,0.077,2.487,0.045,2.433,0.026C2.289-0.028,2.117,0.002,2,0.12L0.119,2
	C0.002,2.118-0.029,2.288,0.027,2.434c0.019,0.054,0.05,0.103,0.092,0.146l3.981,3.98l-3.981,3.98
	c-0.042,0.043-0.073,0.093-0.092,0.146c-0.057,0.146-0.025,0.317,0.092,0.434L2,13.002c0.117,0.118,0.289,0.148,0.433,0.094
	c0.055-0.02,0.104-0.051,0.147-0.094l3.981-3.98l3.98,3.98c0.043,0.043,0.094,0.074,0.146,0.094
	c0.146,0.055,0.316,0.024,0.434-0.094l1.881-1.881c0.117-0.116,0.148-0.287,0.092-0.434C13.075,10.634,13.043,10.584,13.002,10.542"
	/>
</svg>
