<?xml version="1.0" encoding="utf-8"?>
<!-- Generator: Adobe Illustrator 16.0.0, SVG Export Plug-In . SVG Version: 6.00 Build 0)  -->
<!DOCTYPE svg PUBLIC "-//W3C//DTD SVG 1.1//EN" "http://www.w3.org/Graphics/SVG/1.1/DTD/svg11.dtd">
<svg version="1.1" id="Layer_1" xmlns="http://www.w3.org/2000/svg" xmlns:xlink="http://www.w3.org/1999/xlink" x="0px" y="0px"
	 width="13.502px" height="12.657px" viewBox="0 0 13.502 12.657" enable-background="new 0 0 13.502 12.657" xml:space="preserve">
<path d="M2.532,2.531h8.437v0.844H2.532V2.531z M2.532,4.219h6.75v0.844h-6.75V4.219z M2.532,5.907h3.375V6.75H2.532
	V5.907z M12.235,0H1.267C0.57,0,0,0.569,0,1.266v6.75c0,0.696,0.57,1.266,1.267,1.266h2.109v3.375l4.05-3.375h4.809
	c0.697,0,1.268-0.569,1.268-1.266v-6.75C13.502,0.569,12.932,0,12.235,0 M11.813,7.594H6.814L4.22,9.898V7.594H1.688V1.688h10.125
	V7.594z"/>
</svg>
