<?xml version="1.0" encoding="utf-8"?>
<!-- Generator: Adobe Illustrator 20.1.0, SVG Export Plug-In . SVG Version: 6.00 Build 0)  -->
<svg version="1.1" id="svg2" xmlns:rdf="http://www.w3.org/1999/02/22-rdf-syntax-ns#" xmlns:svg="http://www.w3.org/2000/svg"
	 xmlns="http://www.w3.org/2000/svg" xmlns:xlink="http://www.w3.org/1999/xlink" x="0px" y="0px" viewBox="0 0 512 512"
	 style="enable-background:new 0 0 512 512;" xml:space="preserve">
<path d="M271.2,32.9c-132,0-218.2,95.9-218.2,221c0,128.2,90.9,221.2,230,221.2c36.5,0.1,72.6-7.1,106.3-21.3L372.6,404
	c-29.5,10-60.4,15.3-91.5,15.4c-94.7,0-168.1-61.2-168.1-165.5c0-97.3,62.1-167.4,155.5-167.4c97.3,0,142.8,47.6,126,127.3
	c0,0-9.2,48.4-74.2,78.6l0,0c-9.2,4.3-9.2,4.3-23.1,10.1c-18.9,7.1-38.7,11.1-58.8,12c-19.6,0-19-10.6-16.9-23.1l1.8-10.2
	c10.2-2.7,15.5-3.9,41.6-11.9c58.9-18.2,84.1-40.4,84.1-78.8c0-35-27.9-56.2-69.2-56.2c-65.1,0-89.1,30.9-98.3,81.6L170,281.4
	c-8,45.2,3.5,78.9,60.7,78.9c20.7-0.1,41.3-3,61.2-8.7c152.4-39.9,164.3-139.8,164.6-142.3C470.9,117.5,398.1,32.9,271.2,32.9
	 M235.6,211.1c3.5-20.4,15.5-35.4,39.8-35.4c14.2,0.1,22.4,6.9,22.4,16.8c0,14.2-10.2,23.5-34,31c-21.7,6.7-24.9,7.5-32.3,9.7
	L235.6,211.1z"/>
</svg>
