<?xml version="1.0" encoding="utf-8"?>
<!-- Generator: Adobe Illustrator 16.0.0, SVG Export Plug-In . SVG Version: 6.00 Build 0)  -->
<!DOCTYPE svg PUBLIC "-//W3C//DTD SVG 1.1//EN" "http://www.w3.org/Graphics/SVG/1.1/DTD/svg11.dtd">
<svg version="1.1" id="Layer_1" xmlns="http://www.w3.org/2000/svg" xmlns:xlink="http://www.w3.org/1999/xlink" x="0px" y="0px"
	 width="19.273px" height="13.141px" viewBox="0 0 19.273 13.141" enable-background="new 0 0 19.273 13.141" xml:space="preserve">
<g>
	<path d="M10.513,9.654V9.473c1.266-0.484,2.19-1.992,2.19-3.779c0-2.177-1.374-3.942-3.066-3.942
		c-1.694,0-3.066,1.766-3.066,3.942c0,1.787,0.923,3.294,2.19,3.779v0.182c-2.972,0.122-5.256,0.852-5.256,1.734v1.752h12.264
		v-1.752C15.769,10.506,13.483,9.776,10.513,9.654"/>
	<path d="M15.769,6.14V6.071c1-0.283,1.753-1.521,1.753-3.005c0-1.692-0.98-3.066-2.19-3.066
		c-1.211,0-2.189,1.374-2.189,3.066c0,1.484,0.752,2.722,1.752,3.005V6.14c-0.436,0.017-0.852,0.056-1.23,0.114
		c-0.086,0.935-0.385,1.798-0.846,2.505h6.456V7.445C19.273,6.769,17.74,6.212,15.769,6.14L15.769,6.14z"/>
	<path d="M5.61,6.255C5.23,6.197,4.815,6.158,4.38,6.141V6.071c0.999-0.283,1.752-1.521,1.752-3.004
		C6.132,1.374,5.152,0,3.942,0c-1.21,0-2.19,1.374-2.19,3.066c0,1.484,0.752,2.721,1.752,3.004v0.069C1.533,6.213,0,6.771,0,7.447
		v1.314h6.455C5.996,8.053,5.696,7.189,5.61,6.255L5.61,6.255z"/>
</g>
</svg>
