<?xml version="1.0" encoding="utf-8"?>
<!-- Generator: Adobe Illustrator 16.0.0, SVG Export Plug-In . SVG Version: 6.00 Build 0)  -->
<!DOCTYPE svg PUBLIC "-//W3C//DTD SVG 1.1//EN" "http://www.w3.org/Graphics/SVG/1.1/DTD/svg11.dtd">
<svg xmlns:xlink="http://www.w3.org/1999/xlink" version="1.1" id="Layer_1" xmlns="http://www.w3.org/2000/svg" x="0px" y="0px"
	 width="16px" height="14px" viewBox="0 0 16 14" enable-background="new 0 0 16 14" xml:space="preserve">
<path d="M 16,4.596 C 16,2.058 13.942,0 11.403,0 10.055,0 8.841,0.582 8,1.508 7.158,0.582 5.945,0 4.596,0 2.058,0 0,2.058 0,4.596 0,5.945 0.581,7.16 1.508,8 L 1.5,8 l 5,5 c 0.5,0.5 1,1 1.5,1 0.5,0 1,-0.5 1.5,-1 L 14.49,8 C 15.418,7.16 16,5.946 16,4.596"/>
</svg>
