<?xml version="1.0" ?><!DOCTYPE svg  PUBLIC '-//W3C//DTD SVG 1.1//EN'  'http://www.w3.org/Graphics/SVG/1.1/DTD/svg11.dtd'><svg enable-background="new -0.709 -1.23 141.732 141.732" height="141.732px" id="Livello_1" version="1.1" viewBox="-0.709 -1.23 141.732 141.732" width="141.732px" xml:space="preserve" xmlns="http://www.w3.org/2000/svg" xmlns:xlink="http://www.w3.org/1999/xlink"><g id="Livello_76"><path d="M0,69.023h0.026v-0.025L0,69.023z M136.448,66.373c0-0.77-0.33-1.461-0.854-1.942L72.026,0.836   C71.555,0.336,70.894,0.02,70.157,0v0.095c-0.737,0.018-1.398,0.335-1.869,0.835L4.72,64.521c-0.523,0.479-0.854,1.174-0.854,1.94   c0,1.467,1.188,2.65,2.65,2.65h15.067v12.529v57.629h35.078V98.799c0-1.487,1.203-2.696,2.688-2.696h21.571   c1.49,0,2.697,1.209,2.697,2.696v40.478h35.105v-57.63V69.043v-0.02h15.067C135.262,69.023,136.448,67.838,136.448,66.373    M140.315,69.115l-0.027-0.025v0.025H140.315z"/></g><g id="Livello_1_1_"/></svg>