<?xml version="1.0" encoding="utf-8"?>
<!-- Generator: Adobe Illustrator 19.2.1, SVG Export Plug-In . SVG Version: 6.00 Build 0)  -->
<svg version="1.1" id="Layer_1" xmlns="http://www.w3.org/2000/svg" xmlns:xlink="http://www.w3.org/1999/xlink" x="0px" y="0px"
	 viewBox="0 0 13.5 13.5" style="enable-background:new 0 0 13.5 13.5;" xml:space="preserve">
<title>materialikon-uden-kvadrat-musik_v2</title>
<g transform="translate(320 896)">
	<path class="st0" d="M-309.9-891.9c0.2-0.2,0.5-0.4,0.7-0.6c0.4-0.4,0.7-1,0.8-1.5c0.1-0.6,0-1.2-0.4-1.5c-0.3-0.3-0.7-0.5-1.2-0.5
		c-0.7,0-1.4,0.3-1.9,0.9c-0.9,0.9-1.4,2.1-1.7,3c-0.2-0.9-0.6-2.1-1.4-2.9c-0.4-0.4-1-0.6-1.5-0.6c-0.4,0-0.8,0.1-1.1,0.4
		c-0.7,0.7-0.6,1.8,0.2,2.6c0.3,0.3,0.6,0.5,0.9,0.7h-2.9v3.4h0.9v6h10.2v-6h0.9v-3.4H-309.9L-309.9-891.9z M-311.1-894.5
		c0.4-0.4,0.8-0.6,1.2-0.6c0.1,0,0.3,0,0.5,0.2c0.3,0.3,0.2,1.2-0.4,1.7c-0.6,0.6-1.4,1-2.1,1.3h-0.7
		C-312.3-892.7-311.9-893.7-311.1-894.5z M-316.7-893.3c-0.2-0.2-0.3-0.5-0.4-0.7c0-0.1,0-0.3,0.2-0.5c0.1-0.1,0.3-0.2,0.4-0.2l0,0
		c0.3,0,0.6,0.1,0.8,0.4c0.5,0.5,0.8,1.2,1.1,2.1c0,0,0,0,0,0.1c0,0,0,0-0.1,0C-315.5-892.4-316.2-892.8-316.7-893.3L-316.7-893.3z
		 M-308.2-888.9h-4.3v5.5h-1.7v-5.5h-4.3v-0.4h4.3v-1.7h1.7v1.7h4.3V-888.9z"/>
</g>
</svg>
