<svg xmlns="http://www.w3.org/2000/svg" viewBox="0 0 16 21.3">
    <defs>
        <style>.dark-pdf-1{fill:#444;}.dark-pdf-2{fill:#fff;}.dark-pdf-3{isolation:isolate;}</style>
    </defs>
    <title>Asset 1</title>
    <g id="Layer_2" data-name="Layer 2">
        <g id="Layer_1-2" data-name="Layer 1">
            <g id="svg2">
                <path class="dark-pdf-1" d="M16,21.3H0V0H12.2L16,3.9Z"/>
                <polygon class="dark-pdf-2" points="13.3 8.1 13.3 9.4 2.7 9.4 2.7 9.4 2.7 8.1 13.3 8.1"/>
                <polygon class="dark-pdf-2" points="13.3 5.4 13.3 6.8 2.7 6.8 2.7 6.8 2.7 5.4 13.3 5.4"/>
                <polygon class="dark-pdf-2" points="10.7 10.8 10.7 12.1 2.7 12.1 2.7 12.1 2.7 10.8 10.7 10.8"/>
            </g>
            <g class="dark-pdf-3">
                <path class="dark-pdf-2"
                      d="M4.26,14.62a1.5,1.5,0,0,1,.57.1,1.08,1.08,0,0,1,.38.26,1,1,0,0,1,.21.37,1.36,1.36,0,0,1,0,.85,1,1,0,0,1-.21.37,1.06,1.06,0,0,1-.38.26,1.48,1.48,0,0,1-.57.1H3.43v1.28H2.65V14.62ZM4,16.3l.26,0a.6.6,0,0,0,.22-.08A.42.42,0,0,0,4.67,16a.57.57,0,0,0,.06-.27.58.58,0,0,0-.06-.28.43.43,0,0,0-.15-.16.62.62,0,0,0-.22-.08l-.26,0H3.43V16.3Z"/>
            </g>
            <g class="dark-pdf-3">
                <path class="dark-pdf-2"
                      d="M8,14.62a1.84,1.84,0,0,1,.64.11,1.39,1.39,0,0,1,.52.33,1.51,1.51,0,0,1,.34.55,2.22,2.22,0,0,1,.12.78,2.45,2.45,0,0,1-.1.72,1.59,1.59,0,0,1-.3.57,1.44,1.44,0,0,1-.51.38,1.71,1.71,0,0,1-.71.14H6.49V14.62ZM8,17.53a1,1,0,0,0,.33-.05.73.73,0,0,0,.28-.18.91.91,0,0,0,.2-.33,1.46,1.46,0,0,0,.08-.5A2.08,2.08,0,0,0,8.81,16a1,1,0,0,0-.17-.37.76.76,0,0,0-.32-.24,1.26,1.26,0,0,0-.49-.08H7.27v2.25Z"/>
            </g>
            <g class="dark-pdf-3">
                <path class="dark-pdf-2" d="M13.19,14.62v.66H11.47v.83H13v.61h-1.5v1.47h-.79V14.62Z"/>
            </g>
        </g>
    </g>
</svg>
