<?xml version="1.0" encoding="utf-8"?>
<!-- Generator: Adobe Illustrator 16.0.0, SVG Export Plug-In . SVG Version: 6.00 Build 0)  -->
<!DOCTYPE svg PUBLIC "-//W3C//DTD SVG 1.1//EN" "http://www.w3.org/Graphics/SVG/1.1/DTD/svg11.dtd">
<svg version="1.1" id="Layer_1" xmlns="http://www.w3.org/2000/svg" xmlns:xlink="http://www.w3.org/1999/xlink" x="0px" y="0px"
	 width="13.341px" height="13.341px" viewBox="0 0 13.341 13.341" enable-background="new 0 0 13.341 13.341" xml:space="preserve">
<path d="M6.074,8.307c0.755,0.543,1.68,0.865,2.681,0.865c2.533,0,4.586-2.053,4.586-4.586S11.289,0,8.755,0
	C6.223,0,4.17,2.053,4.17,4.586c0,1.001,0.32,1.927,0.865,2.682L0,11.674l1.668,1.667L6.074,8.307z M5.42,4.586
	c0-1.842,1.494-3.335,3.335-3.335c1.842,0,3.336,1.493,3.336,3.335s-1.494,3.335-3.336,3.335C6.914,7.921,5.42,6.428,5.42,4.586"/>
</svg>
