<?xml version="1.0" encoding="utf-8"?>
<!-- Generator: Adobe Illustrator 16.0.0, SVG Export Plug-In . SVG Version: 6.00 Build 0)  -->
<!DOCTYPE svg PUBLIC "-//W3C//DTD SVG 1.1//EN" "http://www.w3.org/Graphics/SVG/1.1/DTD/svg11.dtd">
<svg version="1.1" id="Layer_1" xmlns="http://www.w3.org/2000/svg" xmlns:xlink="http://www.w3.org/1999/xlink" x="0px" y="0px"
	 width="12.659px" height="12.659px" viewBox="0 0 12.659 12.659" enable-background="new 0 0 12.659 12.659" xml:space="preserve">
<path d="M12.055,0H7.213C6.88,0,6.415,0.193,6.18,0.428L0.177,6.431c-0.235,0.235-0.235,0.62,0,0.856l5.196,5.195
	c0.235,0.236,0.62,0.236,0.856,0l6.002-6.002c0.236-0.235,0.428-0.7,0.428-1.033V0.605C12.659,0.272,12.386,0,12.055,0 M9.028,4.841
	c-0.668,0-1.21-0.542-1.21-1.21c0-0.668,0.542-1.21,1.21-1.21s1.211,0.542,1.211,1.21C10.239,4.299,9.696,4.841,9.028,4.841"/>
</svg>
