<?xml version="1.0" encoding="utf-8"?>
<!-- Generator: Adobe Illustrator 16.0.0, SVG Export Plug-In . SVG Version: 6.00 Build 0)  -->
<!DOCTYPE svg PUBLIC "-//W3C//DTD SVG 1.1//EN" "http://www.w3.org/Graphics/SVG/1.1/DTD/svg11.dtd">
<svg version="1.1" id="Layer_1" xmlns="http://www.w3.org/2000/svg" xmlns:xlink="http://www.w3.org/1999/xlink" x="0px" y="0px"
	 width="20.391px" height="12.745px" viewBox="0 0 20.391 12.745" enable-background="new 0 0 20.391 12.745" xml:space="preserve">
<path d="M19.493,1.281c-0.21,0-0.427,0.075-0.626,0.214l-3.572,2.521V1.912C15.294,0.86,14.433,0,13.382,0H1.912
	C0.86,0,0,0.86,0,1.912v8.921c0,1.053,0.86,1.912,1.912,1.912h11.471c1.051,0,1.912-0.859,1.912-1.912V8.731l3.572,2.52
	c0.199,0.143,0.416,0.215,0.626,0.215c0.28,0,0.536-0.127,0.702-0.355c0.128-0.174,0.196-0.398,0.196-0.648V2.285
	C20.391,1.625,19.939,1.281,19.493,1.281L19.493,1.281z"/>
</svg>
