<svg id="Layer_1" data-name="Layer 1" xmlns="http://www.w3.org/2000/svg" viewBox="0 0 100.83 30.2"><defs><style>.cls-1{fill:#2ae4ba;}</style></defs><title>biblo_logo_100x30</title><path d="M33.37,0.56H37V29.68H33.37V0.56Z"/><path d="M41.93,0.56h3.63c5.16,0,9,3.05,9,7.95a7,7,0,0,1-3.73,6.33,7.06,7.06,0,0,1,4.63,6.74c0,5-3.92,8.1-9.26,8.1H41.93V0.56Zm3.54,3.2v9.75h0.77a4.82,4.82,0,0,0,4.86-5c0-2.86-2.37-4.71-5.84-4.71h0.21Zm0,12.73v10h0.35c3.73,0,6.1-2,6.1-5.12,0-2.71-1.81-4.9-5.72-4.9H45.47Z"/><path d="M59.47,0.56h3.62V26.29h8v3.39H59.47V0.56Z"/><path d="M70.58,15.1a15.12,15.12,0,1,1,15.1,15.1A15.1,15.1,0,0,1,70.58,15.1Zm26.59,0a11.47,11.47,0,1,0-22.94,0A11.47,11.47,0,1,0,97.17,15.1Z"/><path class="cls-1" d="M24.74,14.84a7,7,0,0,0,3.73-6.33c0-4.9-3.84-7.95-9-7.95H0V29.68H20.11c5.35,0,9.26-3.09,9.26-8.1A7.06,7.06,0,0,0,24.74,14.84ZM14.47,10.63a2.11,2.11,0,0,1-2.11-2.15,2.09,2.09,0,0,1,2.11-2.15,2.15,2.15,0,0,1,2.15,2.15A2.17,2.17,0,0,1,14.47,10.63Zm7.16,0a2.11,2.11,0,0,1-2.11-2.15,2.09,2.09,0,0,1,2.11-2.15,2.15,2.15,0,0,1,2.15,2.15A2.17,2.17,0,0,1,21.63,10.63Z"/><path class="cls-1" d="M85.08,11.92a2.09,2.09,0,0,1,2.11-2.15,2.15,2.15,0,0,1,2.15,2.15,2.17,2.17,0,0,1-2.15,2.15A2.11,2.11,0,0,1,85.08,11.92Z"/><path class="cls-1" d="M77.92,11.92A2.09,2.09,0,0,1,80,9.77a2.15,2.15,0,0,1,2.15,2.15A2.17,2.17,0,0,1,80,14.06,2.11,2.11,0,0,1,77.92,11.92Z"/></svg>