<?xml version="1.0" encoding="utf-8"?>
<!-- Generator: Adobe Illustrator 16.0.0, SVG Export Plug-In . SVG Version: 6.00 Build 0)  -->
<!DOCTYPE svg PUBLIC "-//W3C//DTD SVG 1.1//EN" "http://www.w3.org/Graphics/SVG/1.1/DTD/svg11.dtd">
<svg version="1.1" id="Layer_1" xmlns="http://www.w3.org/2000/svg" xmlns:xlink="http://www.w3.org/1999/xlink" x="0px" y="0px"
	 width="12.5px" height="12.5px" viewBox="0 0 12.5 12.5" enable-background="new 0 0 12.5 12.5" xml:space="preserve">
<g>
	<rect x="0.25" y="0.25" fill="#FFFFFF" width="12" height="12"/>
	<path fill="#E6E6E6" d="M12,0.5V12H0.5V0.5H12 M12.5,0H0v12.5h12.5V0L12.5,0z"/>
</g>
<g>
	<polygon fill="#4740B7" points="5.269,4.625 7.784,6.134 5.269,7.643 	"/>
	<path fill="#4740B7" d="M6.275,9.52c-0.077,0-0.149-0.033-0.197-0.093C5.783,9.06,4.944,8.65,4.263,8.65
		c-0.658,0-1.257,0.238-1.565,0.619c-0.067,0.084-0.18,0.116-0.28,0.081C2.317,9.312,2.25,9.218,2.25,9.111V3.83
		c0-0.057,0.02-0.114,0.056-0.158c0.401-0.497,1.151-0.806,1.957-0.806c0.733,0,1.556,0.365,2.012,0.764
		C6.731,3.23,7.554,2.865,8.287,2.865c0.805,0,1.555,0.309,1.956,0.806c0.036,0.044,0.057,0.101,0.057,0.158v5.282
		c0,0.107-0.067,0.202-0.169,0.238c-0.101,0.033-0.212,0.001-0.279-0.081C9.543,8.888,8.943,8.65,8.286,8.65
		c-0.681,0-1.52,0.41-1.816,0.777C6.421,9.487,6.349,9.52,6.273,9.52H6.275z M4.263,8.146c0.733,0,1.555,0.367,2.012,0.765
		c0.456-0.398,1.279-0.765,2.011-0.765c0.565,0,1.1,0.151,1.509,0.413V3.923C9.475,3.579,8.905,3.368,8.287,3.368
		c-0.682,0-1.521,0.41-1.816,0.778C6.422,4.205,6.35,4.239,6.274,4.239S6.126,4.205,6.078,4.146
		C5.782,3.778,4.943,3.368,4.262,3.368c-0.619,0-1.188,0.212-1.509,0.556V8.56C3.162,8.298,3.698,8.146,4.263,8.146"/>
</g>
</svg>
