<?xml version="1.0" encoding="utf-8"?>
<!-- Generator: Adobe Illustrator 16.0.0, SVG Export Plug-In . SVG Version: 6.00 Build 0)  -->
<!DOCTYPE svg PUBLIC "-//W3C//DTD SVG 1.1//EN" "http://www.w3.org/Graphics/SVG/1.1/DTD/svg11.dtd">
<svg version="1.1" id="Layer_1" xmlns="http://www.w3.org/2000/svg" xmlns:xlink="http://www.w3.org/1999/xlink" x="0px" y="0px"
	 width="12.5px" height="12.5px" viewBox="0 0 12.5 12.5" enable-background="new 0 0 12.5 12.5" xml:space="preserve">
<g>
	<rect x="0.25" y="0.25" fill="#FFFFFF" width="12" height="12"/>
	<path fill="#E6E6E6" d="M12,0.5V12H0.5V0.5H12 M12.5,0H0v12.5h12.5V0L12.5,0z"/>
</g>
<g>
	<path fill="#4740B7" d="M2,9.446h8.523V3.054H2V9.446z M3.599,8.915H2.533V7.849h1.065V8.915z M3.599,6.783H2.533V5.718h1.065
		V6.783z M3.599,4.652H2.533V3.587h1.065V4.652z M8.393,8.915H4.132V3.587h4.261V8.915L8.393,8.915z M9.992,8.915H8.926V7.849h1.066
		V8.915z M9.992,6.783H8.926V5.718h1.066V6.783z M9.992,4.652H8.926V3.587h1.066V4.652z M5.197,4.652v3.197l2.13-1.599L5.197,4.652z
		"/>
</g>
</svg>
