<?xml version="1.0" encoding="utf-8"?>
<!-- Generator: Adobe Illustrator 16.0.0, SVG Export Plug-In . SVG Version: 6.00 Build 0)  -->
<!DOCTYPE svg PUBLIC "-//W3C//DTD SVG 1.1//EN" "http://www.w3.org/Graphics/SVG/1.1/DTD/svg11.dtd">
<svg version="1.1" id="Layer_1" xmlns="http://www.w3.org/2000/svg" xmlns:xlink="http://www.w3.org/1999/xlink" x="0px" y="0px"
	 width="12.5px" height="12.5px" viewBox="0 0 12.5 12.5" enable-background="new 0 0 12.5 12.5" xml:space="preserve">
<g>
	<rect x="0.25" y="0.25" fill="#FFFFFF" width="12" height="12"/>
	<path fill="#E6E6E6" d="M12,0.5V12H0.5V0.5H12 M12.5,0H0v12.5h12.5V0L12.5,0z"/>
</g>
<g>
	<path fill="#4740B7" d="M4.427,4.477H3.836v0.591H3.245v0.591h0.591V6.25h0.591V5.659h0.591V5.068H4.427V4.477z M7.382,4.92
		c0-0.245,0.198-0.443,0.443-0.443c0.244,0,0.444,0.199,0.444,0.443s-0.2,0.443-0.444,0.443C7.581,5.364,7.382,5.165,7.382,4.92
		 M8.269,5.807c0-0.245,0.198-0.443,0.443-0.443c0.244,0,0.443,0.198,0.443,0.443c0,0.245-0.199,0.443-0.443,0.443
		C8.467,6.25,8.269,6.052,8.269,5.807 M8.3,3.109c-1.074,0-1.241,0.636-2.101,0.636S5.173,3.109,4.099,3.109
		c-1.73,0-2.627,2.119-2.627,3.634c0,1.434,0.134,2.477,0.671,2.625C2.68,9.514,3.363,8.936,4.03,8.309
		C4.696,7.68,4.809,7.721,5.346,7.721L6.2,7.74l0.854-0.019c0.536,0,0.649-0.041,1.316,0.587c0.666,0.627,1.35,1.205,1.886,1.061
		c0.538-0.148,0.672-1.191,0.672-2.625C10.928,5.228,10.031,3.109,8.3,3.109 M4.131,6.841c-0.817,0-1.478-0.661-1.478-1.478
		c0-0.816,0.661-1.478,1.478-1.478c0.816,0,1.478,0.662,1.478,1.478C5.609,6.18,4.947,6.841,4.131,6.841 M8.269,6.841
		c-0.817,0-1.478-0.661-1.478-1.478c0-0.816,0.661-1.478,1.478-1.478c0.815,0,1.477,0.662,1.477,1.478
		C9.746,6.18,9.084,6.841,8.269,6.841"/>
</g>
</svg>
