<?xml version="1.0" encoding="utf-8"?>
<!-- Generator: Adobe Illustrator 16.0.0, SVG Export Plug-In . SVG Version: 6.00 Build 0)  -->
<!DOCTYPE svg PUBLIC "-//W3C//DTD SVG 1.1//EN" "http://www.w3.org/Graphics/SVG/1.1/DTD/svg11.dtd">
<svg version="1.1" id="Layer_1" xmlns="http://www.w3.org/2000/svg" xmlns:xlink="http://www.w3.org/1999/xlink" x="0px" y="0px"
	 width="12.5px" height="12.5px" viewBox="0 0 12.5 12.5" enable-background="new 0 0 12.5 12.5" xml:space="preserve">
<g>
	<rect x="0.25" y="0.25" fill="#FFFFFF" width="12" height="12"/>
	<path fill="#E6E6E6" d="M12,0.5V12H0.5V0.5H12 M12.5,0H0v12.5h12.5V0L12.5,0z"/>
</g>
<g>
	<path fill="#4740B7" d="M10.189,3.894C9.791,3.399,9.045,3.092,8.246,3.092c-0.801,0-1.544,0.308-1.943,0.802
		c-0.036,0.044-0.056,0.1-0.056,0.156c0-0.057-0.019-0.112-0.055-0.156C5.793,3.399,5.048,3.092,4.248,3.092
		c-0.799,0-1.544,0.308-1.943,0.802C2.27,3.938,2.25,3.993,2.25,4.05v4.997c0,0.104,0.066,0.2,0.166,0.234
		c0.101,0.035,0.212,0.004,0.279-0.077C3,8.822,3.596,8.589,4.249,8.589s1.249,0.233,1.554,0.615c0.05,0.06,0.122,0.092,0.195,0.092
		h0.5c0.073,0,0.146-0.032,0.194-0.092c0.306-0.382,0.901-0.615,1.555-0.615c0.651,0,1.248,0.233,1.553,0.615
		c0.068,0.081,0.181,0.112,0.279,0.077c0.101-0.034,0.166-0.131,0.166-0.234V4.05C10.244,3.993,10.227,3.938,10.189,3.894
		L10.189,3.894z M5.748,8.498c-0.407-0.262-0.939-0.41-1.5-0.41c-0.56,0-1.093,0.148-1.499,0.41V4.143
		c0.32-0.342,0.885-0.551,1.499-0.551c0.615,0,1.18,0.209,1.5,0.551V8.498z M9.745,8.498c-0.407-0.262-0.938-0.41-1.5-0.41
		c-0.56,0-1.093,0.148-1.499,0.41V4.143c0.32-0.342,0.884-0.551,1.5-0.551c0.615,0,1.18,0.209,1.499,0.551V8.498L9.745,8.498z"/>
	<rect x="7.247" y="4.591" fill="#4740B7" width="1.999" height="0.499"/>
	<rect x="7.247" y="5.589" fill="#4740B7" width="1.999" height="0.501"/>
	<rect x="7.247" y="6.589" fill="#4740B7" width="1.5" height="0.5"/>
	<rect x="3.25" y="4.591" fill="#4740B7" width="1.999" height="0.499"/>
	<rect x="3.25" y="5.589" fill="#4740B7" width="1.999" height="0.501"/>
	<rect x="3.25" y="6.589" fill="#4740B7" width="1.499" height="0.5"/>
</g>
</svg>
