<?xml version="1.0" encoding="utf-8"?>
<!-- Generator: Adobe Illustrator 16.0.0, SVG Export Plug-In . SVG Version: 6.00 Build 0)  -->
<!DOCTYPE svg PUBLIC "-//W3C//DTD SVG 1.1//EN" "http://www.w3.org/Graphics/SVG/1.1/DTD/svg11.dtd">
<svg version="1.1" id="Layer_1" xmlns="http://www.w3.org/2000/svg" xmlns:xlink="http://www.w3.org/1999/xlink" x="0px" y="0px"
	 width="12.5px" height="12.5px" viewBox="0 0 12.5 12.5" enable-background="new 0 0 12.5 12.5" xml:space="preserve">
<g>
	<rect x="0.25" y="0.25" fill="#FFFFFF" width="12" height="12"/>
	<path fill="#E6E6E6" d="M12,0.5V12H0.5V0.5H12 M12.5,0H0v12.5h12.5V0L12.5,0z"/>
</g>
<path fill="#4740B7" d="M6.249,10.666c2.438,0,4.417-1.977,4.417-4.416S8.688,1.833,6.249,1.833S1.833,3.811,1.833,6.25
	S3.811,10.666,6.249,10.666 M6.249,2.662c1.982,0,3.589,1.606,3.589,3.588c0,1.981-1.606,3.587-3.589,3.587
	c-1.981,0-3.588-1.606-3.588-3.587C2.661,4.268,4.268,2.662,6.249,2.662 M8.734,4.042c0.151,0,0.276,0.125,0.276,0.276v0.829
	c0,0.304-0.25,0.552-0.553,0.552H7.353c-0.303,0-0.552-0.249-0.552-0.552H5.697c0,0.304-0.248,0.552-0.552,0.552H4.041
	c-0.304,0-0.552-0.249-0.552-0.552V4.317c0-0.152,0.125-0.276,0.276-0.276h1.656c0.15,0,0.275,0.125,0.275,0.276v0.276h1.104V4.317
	c0-0.152,0.124-0.276,0.275-0.276L8.734,4.042L8.734,4.042z M6.249,8.458c0.804,0,1.508-0.431,1.895-1.073L8.616,7.67
	C8.134,8.473,7.253,9.01,6.249,9.01c-0.418,0-0.815-0.093-1.17-0.259l0.285-0.477C5.637,8.392,5.935,8.458,6.249,8.458L6.249,8.458z
	"/>
</svg>
