<?xml version="1.0" encoding="utf-8"?>
<!-- Generator: Adobe Illustrator 16.0.0, SVG Export Plug-In . SVG Version: 6.00 Build 0)  -->
<!DOCTYPE svg PUBLIC "-//W3C//DTD SVG 1.1//EN" "http://www.w3.org/Graphics/SVG/1.1/DTD/svg11.dtd">
<svg version="1.1" id="Layer_1" xmlns="http://www.w3.org/2000/svg" xmlns:xlink="http://www.w3.org/1999/xlink" x="0px" y="0px"
	 width="12.5px" height="12.5px" viewBox="0 0 12.5 12.5" enable-background="new 0 0 12.5 12.5" xml:space="preserve">
<g>
	<rect x="0.25" y="0.25" fill="#FFFFFF" width="12" height="12"/>
	<path fill="#E6E6E6" d="M12,0.5V12H0.5V0.5H12 M12.5,0H0v12.5h12.5V0L12.5,0z"/>
</g>
<path fill="#4740B7" d="M9.849,2.133l-4.727,1.05v5.12C4.789,8.06,4.323,7.909,3.81,7.909c-1.016,0-1.838,0.587-1.838,1.312
	c0,0.726,0.822,1.312,1.838,1.312c1.015,0,1.838-0.587,1.838-1.312V5.83l4.201-0.934v2.356c-0.334-0.243-0.8-0.394-1.313-0.394
	c-1.016,0-1.838,0.588-1.838,1.313c0,0.724,0.823,1.312,1.838,1.312c1.014,0,1.837-0.588,1.837-1.312V2.133H9.849L9.849,2.133z
	 M9.849,4.224L5.648,5.156V4.117l4.201-0.934V4.224z"/>
</svg>
