<?xml version="1.0" encoding="utf-8"?>
<!-- Generator: Adobe Illustrator 16.0.0, SVG Export Plug-In . SVG Version: 6.00 Build 0)  -->
<!DOCTYPE svg PUBLIC "-//W3C//DTD SVG 1.1//EN" "http://www.w3.org/Graphics/SVG/1.1/DTD/svg11.dtd">
<svg version="1.1" id="Layer_1" xmlns="http://www.w3.org/2000/svg" xmlns:xlink="http://www.w3.org/1999/xlink" x="0px" y="0px"
	 width="12.5px" height="12.5px" viewBox="0 0 12.5 12.5" enable-background="new 0 0 12.5 12.5" xml:space="preserve">
<g>
	<rect x="0.25" y="0.25" fill="#FFFFFF" width="12" height="12"/>
	<path fill="#E6E6E6" d="M12,0.5V12H0.5V0.5H12 M12.5,0H0v12.5h12.5V0L12.5,0z"/>
</g>
<g>
	<path fill="#4740B7" d="M4.498,6.76c0,0.975,0.79,1.765,1.765,1.765s1.765-0.79,1.765-1.765c0-0.975-0.79-1.765-1.765-1.765
		C5.288,4.996,4.498,5.786,4.498,6.76 M10.063,3.774H8.162C8.027,3.231,7.892,2.688,7.348,2.688H5.175
		c-0.542,0-0.678,0.543-0.813,1.086H2.461c-0.299,0-0.542,0.245-0.542,0.542v4.888c0,0.297,0.243,0.543,0.542,0.543h7.602
		c0.298,0,0.542-0.246,0.542-0.543V4.317C10.605,4.019,10.361,3.774,10.063,3.774 M6.262,9.17c-1.33,0-2.409-1.079-2.409-2.41
		c0-1.33,1.079-2.409,2.409-2.409c1.331,0,2.409,1.079,2.409,2.409C8.671,8.091,7.593,9.17,6.262,9.17 M10.063,5.403H8.977V4.861
		h1.086V5.403z"/>
</g>
</svg>
