<?xml version="1.0" encoding="utf-8"?>
<!-- Generator: Adobe Illustrator 16.0.0, SVG Export Plug-In . SVG Version: 6.00 Build 0)  -->
<!DOCTYPE svg PUBLIC "-//W3C//DTD SVG 1.1//EN" "http://www.w3.org/Graphics/SVG/1.1/DTD/svg11.dtd">
<svg version="1.1" id="Layer_1" xmlns="http://www.w3.org/2000/svg" xmlns:xlink="http://www.w3.org/1999/xlink" x="0px" y="0px"
	 width="12.5px" height="12.5px" viewBox="0 0 12.5 12.5" enable-background="new 0 0 12.5 12.5" xml:space="preserve">
<g>
	<rect x="0.25" y="0.25" fill="#FFFFFF" width="12" height="12"/>
	<path fill="#E6E6E6" d="M12,0.5V12H0.5V0.5H12 M12.5,0H0v12.5h12.5V0L12.5,0z"/>
</g>
<g>
	<path fill="#4740B7" d="M3.957,3.086H2.375c-0.145,0-0.264,0.119-0.264,0.264v5.8c0,0.146,0.119,0.264,0.264,0.264h1.582
		c0.145,0,0.264-0.117,0.264-0.264v-5.8C4.221,3.205,4.102,3.086,3.957,3.086 M3.694,4.668H2.638V4.142h1.056V4.668z"/>
	<path fill="#4740B7" d="M6.594,3.086H5.012c-0.145,0-0.264,0.119-0.264,0.264v5.8c0,0.146,0.119,0.264,0.264,0.264h1.582
		c0.144,0,0.263-0.117,0.263-0.264v-5.8C6.857,3.205,6.738,3.086,6.594,3.086 M6.331,4.668H5.275V4.142H6.33L6.331,4.668
		L6.331,4.668z"/>
	<path fill="#4740B7" d="M8.415,3.494L7.002,4.206C6.873,4.272,6.82,4.43,6.886,4.561l2.373,4.707
		c0.065,0.131,0.225,0.182,0.354,0.117l1.414-0.711c0.128-0.065,0.181-0.226,0.116-0.355L8.769,3.611
		C8.704,3.481,8.545,3.43,8.415,3.494"/>
</g>
</svg>
