<?xml version="1.0" encoding="utf-8"?>
<!-- Generator: Adobe Illustrator 16.0.0, SVG Export Plug-In . SVG Version: 6.00 Build 0)  -->
<!DOCTYPE svg PUBLIC "-//W3C//DTD SVG 1.1//EN" "http://www.w3.org/Graphics/SVG/1.1/DTD/svg11.dtd">
<svg version="1.1" id="Layer_1" xmlns="http://www.w3.org/2000/svg" xmlns:xlink="http://www.w3.org/1999/xlink" x="0px" y="0px"
	 width="12.5px" height="12.5px" viewBox="0 0 12.5 12.5" enable-background="new 0 0 12.5 12.5" xml:space="preserve">
<g>
	<rect x="0.25" y="0.25" fill="#FFFFFF" width="12" height="12"/>
	<path fill="#E6E6E6" d="M12,0.5V12H0.5V0.5H12 M12.5,0H0v12.5h12.5V0L12.5,0z"/>
</g>
<g>
	<path fill="#4740B7" d="M6.697,7.739V7.652c0.612-0.234,1.059-0.963,1.059-1.826c0-1.052-0.664-1.904-1.481-1.904
		c-0.819,0-1.481,0.853-1.481,1.904c0,0.863,0.447,1.592,1.059,1.826v0.087c-1.438,0.06-2.541,0.413-2.541,0.838v0.847h5.925V8.577
		C9.236,8.152,8.132,7.799,6.697,7.739"/>
	<path fill="#4740B7" d="M9.236,6.043V6.009c0.483-0.137,0.847-0.735,0.847-1.451c0.001-0.818-0.474-1.481-1.058-1.481
		c-0.585,0-1.058,0.663-1.058,1.481c0,0.716,0.363,1.314,0.846,1.451v0.034C8.603,6.051,8.403,6.069,8.219,6.098
		c-0.042,0.451-0.186,0.869-0.409,1.21h3.12V6.672C10.931,6.346,10.188,6.077,9.236,6.043L9.236,6.043z"/>
	<path fill="#4740B7" d="M4.329,6.098C4.146,6.069,3.945,6.051,3.734,6.043V6.01c0.483-0.137,0.847-0.735,0.847-1.452
		c0-0.817-0.474-1.481-1.058-1.481S2.464,3.74,2.464,4.558c0,0.717,0.364,1.315,0.847,1.452v0.033
		C2.359,6.078,1.619,6.347,1.619,6.674v0.635h3.119C4.515,6.967,4.371,6.549,4.329,6.098L4.329,6.098z"/>
</g>
</svg>
