<?xml version="1.0" encoding="utf-8"?>
<!-- Generator: Adobe Illustrator 16.0.0, SVG Export Plug-In . SVG Version: 6.00 Build 0)  -->
<!DOCTYPE svg PUBLIC "-//W3C//DTD SVG 1.1//EN" "http://www.w3.org/Graphics/SVG/1.1/DTD/svg11.dtd">
<svg version="1.1" id="Layer_1" xmlns="http://www.w3.org/2000/svg" xmlns:xlink="http://www.w3.org/1999/xlink" x="0px" y="0px"
	 width="12.5px" height="12.5px" viewBox="0 0 12.5 12.5" enable-background="new 0 0 12.5 12.5" xml:space="preserve">
<g>
	<rect x="0.25" y="0.25" fill="#FFFFFF" width="12" height="12"/>
	<path fill="#E6E6E6" d="M12,0.5V12H0.5V0.5H12 M12.5,0H0v12.5h12.5V0L12.5,0z"/>
</g>
<g>
	<path fill="#4740B7" d="M6.443,6.421c-1.023,0-2.002,0.458-2.634,2.299c-0.632,1.842,0.763,1.694,1.642,1.315
		C6.304,9.666,6.627,9.609,7.654,10.1C8.62,10.559,9.445,10.076,9.1,9.072C8.756,8.065,7.596,6.42,6.443,6.421L6.443,6.421z
		 M4.508,2.271C3.925,2.412,3.617,3.204,3.82,4.041c0.203,0.838,0.839,1.404,1.422,1.265c0.002,0,0.006-0.001,0.008-0.002
		c0.583-0.14,0.891-0.932,0.688-1.769c-0.087-0.36-0.254-0.671-0.464-0.897C5.198,2.34,4.848,2.191,4.515,2.269
		C4.513,2.27,4.51,2.27,4.508,2.271 M7.884,2.243C7.297,2.119,6.681,2.705,6.505,3.549C6.405,4.034,6.473,4.5,6.66,4.832
		C6.8,5.075,7.003,5.248,7.252,5.299c0.002,0.001,0.004,0.001,0.007,0.002c0.586,0.122,1.203-0.463,1.378-1.306
		C8.812,3.15,8.478,2.367,7.891,2.244C7.89,2.244,7.888,2.243,7.884,2.243 M2.25,6.597c0.323,0.746,1.002,1.171,1.518,0.947
		c0.295-0.127,0.472-0.44,0.511-0.822C4.306,6.437,4.255,6.11,4.117,5.792c0-0.001,0-0.001,0-0.001
		C3.794,5.044,3.115,4.62,2.6,4.844C2.084,5.067,1.928,5.851,2.25,6.597C2.25,6.597,2.25,6.597,2.25,6.597 M8.753,7.413
		C9.047,7.542,9.395,7.46,9.699,7.229c0.229-0.176,0.434-0.436,0.572-0.756c0.324-0.744,0.17-1.53-0.344-1.756
		c-0.002,0-0.004-0.002-0.006-0.003c-0.516-0.227-1.195,0.194-1.52,0.94c-0.325,0.744-0.17,1.531,0.343,1.755
		C8.748,7.411,8.751,7.413,8.753,7.413"/>
</g>
</svg>
