<?xml version="1.0" encoding="utf-8"?>
<!-- Generator: Adobe Illustrator 16.0.0, SVG Export Plug-In . SVG Version: 6.00 Build 0)  -->
<!DOCTYPE svg PUBLIC "-//W3C//DTD SVG 1.1//EN" "http://www.w3.org/Graphics/SVG/1.1/DTD/svg11.dtd">
<svg version="1.1" id="Layer_1" xmlns="http://www.w3.org/2000/svg" xmlns:xlink="http://www.w3.org/1999/xlink" x="0px" y="0px"
	 width="16px" height="16px" viewBox="0 0 16 16" enable-background="new 0 0 16 16" xml:space="preserve">
<path fill="#FFFFFF" d="M8,16c4.418,0,8-3.582,8-8s-3.582-8-8-8S0,3.582,0,8S3.582,16,8,16 M8,1.5c3.59,0,6.5,2.91,6.5,6.5
	s-2.91,6.5-6.5,6.5S1.5,11.59,1.5,8S4.41,1.5,8,1.5 M12.5,4C12.774,4,13,4.225,13,4.5V6c0,0.55-0.45,1-1,1h-2C9.45,7,9,6.55,9,6H7
	c0,0.55-0.45,1-1,1H4C3.45,7,3,6.55,3,6V4.5C3,4.225,3.225,4,3.5,4h3C6.774,4,7,4.225,7,4.5V5h2V4.5C9,4.225,9.225,4,9.5,4H12.5z
	 M8,12c1.456,0,2.73-0.778,3.43-1.942l0.857,0.516C11.413,12.027,9.819,13,7.999,13c-0.757,0-1.476-0.169-2.118-0.47l0.517-0.864
	C6.889,11.88,7.43,12,8,12L8,12z"/>
</svg>
