<?xml version="1.0" encoding="utf-8"?>
<!-- Generator: Adobe Illustrator 16.0.0, SVG Export Plug-In . SVG Version: 6.00 Build 0)  -->
<!DOCTYPE svg PUBLIC "-//W3C//DTD SVG 1.1//EN" "http://www.w3.org/Graphics/SVG/1.1/DTD/svg11.dtd">
<svg version="1.1" id="Layer_1" xmlns="http://www.w3.org/2000/svg" xmlns:xlink="http://www.w3.org/1999/xlink" x="0px" y="0px"
	 width="16px" height="16px" viewBox="0 0 16 16" enable-background="new 0 0 16 16" xml:space="preserve">
<path fill="#FFFFFF" d="M8,16c4.418,0,8-3.582,8-8s-3.582-8-8-8S0,3.582,0,8S3.582,16,8,16 M8,1.5c3.59,0,6.5,2.91,6.5,6.5
	s-2.91,6.5-6.5,6.5c-3.589,0-6.5-2.91-6.5-6.5S4.411,1.5,8,1.5 M3,8v1c0,2.2,1.8,4,4,4h2c2.201,0,4-1.8,4-4V8H3z M6,11.828
	c-0.415-0.148-0.795-0.388-1.118-0.71C4.312,10.549,4,9.797,4,9h2V11.828z M9,12H7V9h2V12z M11.119,11.118
	c-0.323,0.322-0.703,0.562-1.119,0.71V9h2C12,9.797,11.687,10.549,11.119,11.118 M3.521,6L3.521,6C3.673,6,3.804,5.89,3.83,5.739
	C3.924,5.166,4.417,4.75,5,4.75S6.075,5.166,6.17,5.739C6.195,5.89,6.328,6,6.479,6C6.63,6,6.762,5.89,6.788,5.739
	c0.016-0.102,0.024-0.202,0.024-0.301c0-1-0.812-1.814-1.812-1.814S3.186,4.438,3.186,5.438c0,0.099,0.009,0.199,0.025,0.301
	C3.235,5.89,3.368,6,3.519,6H3.521z M9.521,6L9.521,6C9.673,6,9.804,5.89,9.83,5.739C9.924,5.166,10.417,4.75,11,4.75
	s1.075,0.416,1.171,0.989C12.195,5.89,12.328,6,12.479,6c0.152,0,0.283-0.11,0.309-0.261c0.016-0.102,0.024-0.202,0.024-0.301
	c0-1-0.812-1.814-1.812-1.814S9.186,4.438,9.186,5.438c0,0.099,0.008,0.199,0.025,0.301C9.235,5.89,9.368,6,9.519,6H9.521z"/>
</svg>
