<?xml version="1.0" encoding="utf-8"?>
<!-- Generator: Adobe Illustrator 16.0.0, SVG Export Plug-In . SVG Version: 6.00 Build 0)  -->
<!DOCTYPE svg PUBLIC "-//W3C//DTD SVG 1.1//EN" "http://www.w3.org/Graphics/SVG/1.1/DTD/svg11.dtd">
<svg version="1.1" id="Layer_1" xmlns="http://www.w3.org/2000/svg" xmlns:xlink="http://www.w3.org/1999/xlink" x="0px" y="0px"
	 width="16px" height="16px" viewBox="0 0 16 16" enable-background="new 0 0 16 16" xml:space="preserve">
<g>
	<path fill="#FFFFFF" d="M8,16c4.418,0,8-3.582,8-8s-3.582-8-8-8C3.581,0,0,3.582,0,8S3.581,16,8,16 M8,1.5c3.59,0,6.5,2.91,6.5,6.5
		s-2.91,6.5-6.5,6.5c-3.591,0-6.5-2.91-6.5-6.5S4.409,1.5,8,1.5"/>
	<path fill="#FFFFFF" d="M10,10.5c0,1.381-0.896,2.5-2,2.5c-1.106,0-2-1.119-2-2.5S6.894,8,8,8C9.104,8,10,9.119,10,10.5"/>
	<path fill="#FFFFFF" d="M6.5,5.312c-0.129,0-0.257-0.049-0.354-0.146c-0.303-0.301-0.992-0.301-1.295,0
		c-0.194,0.196-0.511,0.196-0.705,0c-0.196-0.194-0.196-0.511,0-0.705c0.695-0.697,2.01-0.697,2.705,0
		c0.196,0.194,0.196,0.511,0,0.705C6.755,5.265,6.627,5.312,6.498,5.312H6.5z"/>
	<path fill="#FFFFFF" d="M11.5,5.312c-0.129,0-0.257-0.049-0.354-0.146c-0.303-0.301-0.992-0.301-1.295,0
		c-0.194,0.196-0.511,0.196-0.705,0c-0.196-0.194-0.196-0.511,0-0.705c0.695-0.697,2.01-0.697,2.705,0
		c0.196,0.194,0.196,0.511,0,0.705c-0.097,0.099-0.225,0.146-0.354,0.146H11.5z"/>
</g>
</svg>
