<?xml version="1.0" encoding="utf-8"?>
<!-- Generator: Adobe Illustrator 16.0.0, SVG Export Plug-In . SVG Version: 6.00 Build 0)  -->
<!DOCTYPE svg PUBLIC "-//W3C//DTD SVG 1.1//EN" "http://www.w3.org/Graphics/SVG/1.1/DTD/svg11.dtd">
<svg version="1.1" id="Layer_1" xmlns="http://www.w3.org/2000/svg" xmlns:xlink="http://www.w3.org/1999/xlink" x="0px" y="0px"
	 width="16px" height="16px" viewBox="0 0 16 16" enable-background="new 0 0 16 16" xml:space="preserve">
<path fill="#FFFFFF" d="M8,16c4.418,0,8-3.582,8-8s-3.582-8-8-8C3.581,0,0,3.582,0,8S3.581,16,8,16 M8,1.5c3.59,0,6.5,2.911,6.5,6.5
	c0,3.59-2.91,6.5-6.5,6.5c-3.591,0-6.5-2.91-6.5-6.5C1.5,4.411,4.409,1.5,8,1.5 M8.479,11.11c2.192-0.434,3.893-1.431,4.508-2.76
	C12.648,10.975,10.463,13,7.816,13c-1.863,0-3.498-1.004-4.42-2.515C4.496,11.345,6.436,11.513,8.479,11.11 M10,5.5
	C10,4.672,10.447,4,11,4c0.552,0,1,0.672,1,1.5S11.552,7,11,7C10.447,7,10,6.328,10,5.5 M5.5,5.805
	c-0.653,0-1.209,0.245-1.414,0.586C4.03,6.299,4,5.888,4,5.786c0-0.485,0.672-0.878,1.5-0.878c0.827,0,1.5,0.393,1.5,0.878
	C7,5.889,6.97,6.3,6.913,6.391C6.707,6.05,6.152,5.805,5.5,5.805"/>
</svg>
