<?xml version="1.0" encoding="utf-8"?>
<!-- Generator: Adobe Illustrator 16.0.0, SVG Export Plug-In . SVG Version: 6.00 Build 0)  -->
<!DOCTYPE svg PUBLIC "-//W3C//DTD SVG 1.1//EN" "http://www.w3.org/Graphics/SVG/1.1/DTD/svg11.dtd">
<svg version="1.1" id="Layer_1" xmlns="http://www.w3.org/2000/svg" xmlns:xlink="http://www.w3.org/1999/xlink" x="0px" y="0px"
	 width="16px" height="16px" viewBox="0 0 16 16" enable-background="new 0 0 16 16" xml:space="preserve">
<path fill="#FFFFFF" d="M8,16c4.418,0,8-3.582,8-8s-3.582-8-8-8C3.581,0,0,3.582,0,8S3.581,16,8,16 M8,1.5c3.59,0,6.5,2.91,6.5,6.5
	s-2.91,6.5-6.5,6.5c-3.591,0-6.5-2.91-6.5-6.5S4.409,1.5,8,1.5 M4,5c0-0.552,0.447-1,1-1c0.552,0,1,0.448,1,1S5.552,6,5,6
	C4.447,6,4,5.552,4,5 M10,5c0-0.552,0.447-1,1-1c0.552,0,1,0.448,1,1s-0.448,1-1,1C10.447,6,10,5.552,10,5 M12,9v1h-1v1.5
	c0,0.828-0.673,1.5-1.5,1.5C8.672,13,8,12.328,8,11.5V10H4V9H12z"/>
</svg>
