<?xml version="1.0" encoding="utf-8"?>
<!-- Generator: Adobe Illustrator 16.0.0, SVG Export Plug-In . SVG Version: 6.00 Build 0)  -->
<!DOCTYPE svg PUBLIC "-//W3C//DTD SVG 1.1//EN" "http://www.w3.org/Graphics/SVG/1.1/DTD/svg11.dtd">
<svg version="1.1" id="Layer_1" xmlns="http://www.w3.org/2000/svg" xmlns:xlink="http://www.w3.org/1999/xlink" x="0px" y="0px"
	 width="16px" height="16px" viewBox="0 0 16 16" enable-background="new 0 0 16 16" xml:space="preserve">
<path fill="#FFFFFF" d="M8,16c4.418,0,8-3.582,8-8s-3.582-8-8-8S0,3.582,0,8S3.582,16,8,16 M8,1.5c3.59,0,6.5,2.91,6.5,6.5
	s-2.91,6.5-6.5,6.5S1.5,11.59,1.5,8S4.41,1.5,8,1.5 M6,11c0-1.105,0.895-2,2-2c1.104,0,2,0.895,2,2c0,1.106-0.896,2-2,2
	C6.895,13,6,12.106,6,11 M10,5.5C10,4.672,10.447,4,11,4c0.552,0,1,0.672,1,1.5S11.552,7,11,7C10.447,7,10,6.328,10,5.5 M4,5.5
	C4,4.672,4.447,4,5,4c0.552,0,1,0.672,1,1.5S5.552,7,5,7C4.447,7,4,6.328,4,5.5"/>
</svg>
