<?xml version="1.0" encoding="utf-8"?>
<!-- Generator: Adobe Illustrator 16.0.0, SVG Export Plug-In . SVG Version: 6.00 Build 0)  -->
<!DOCTYPE svg PUBLIC "-//W3C//DTD SVG 1.1//EN" "http://www.w3.org/Graphics/SVG/1.1/DTD/svg11.dtd">
<svg version="1.1" id="Layer_1" xmlns="http://www.w3.org/2000/svg" xmlns:xlink="http://www.w3.org/1999/xlink" x="0px" y="0px"
	 width="16px" height="16px" viewBox="0 0 16 16" enable-background="new 0 0 16 16" xml:space="preserve">
<path fill="#FFFFFF" d="M8,16c4.418,0,8-3.582,8-8s-3.582-8-8-8C3.581,0,0,3.582,0,8S3.581,16,8,16 M8,1.5c3.59,0,6.5,2.91,6.5,6.5
	s-2.91,6.5-6.5,6.5c-3.591,0-6.5-2.91-6.5-6.5S4.409,1.5,8,1.5 M4,5c0-0.552,0.447-1,1-1c0.552,0,1,0.448,1,1S5.552,6,5,6
	C4.447,6,4,5.552,4,5 M10,5c0-0.552,0.447-1,1-1c0.552,0,1,0.448,1,1s-0.448,1-1,1C10.447,6,10,5.552,10,5"/>
<path fill="#FFFFFF" d="M10.561,8.439c-0.586-0.586-1.536-0.586-2.121,0s-0.586,1.535,0,2.12c0.019,0.02,0.038,0.037,0.058,0.056
	C9.85,11.842,13,10.586,13,9C12.031,9.625,11.274,9.153,10.561,8.439L10.561,8.439z"/>
<path fill="#FFFFFF" d="M5.438,8.439c0.586-0.586,1.536-0.586,2.121,0s0.586,1.535,0,2.12c-0.019,0.02-0.038,0.037-0.058,0.056
	C6.149,11.842,2.998,10.586,2.998,9C3.968,9.625,4.725,9.153,5.438,8.439L5.438,8.439z"/>
</svg>
