<?xml version="1.0" encoding="utf-8"?>
<!-- Generator: Adobe Illustrator 16.0.0, SVG Export Plug-In . SVG Version: 6.00 Build 0)  -->
<!DOCTYPE svg PUBLIC "-//W3C//DTD SVG 1.1//EN" "http://www.w3.org/Graphics/SVG/1.1/DTD/svg11.dtd">
<svg version="1.1" id="Layer_1" xmlns="http://www.w3.org/2000/svg" xmlns:xlink="http://www.w3.org/1999/xlink" x="0px" y="0px"
	 width="16px" height="16px" viewBox="0 0 16 16" enable-background="new 0 0 16 16" xml:space="preserve">
<path fill="#FFFFFF" d="M8,16c4.418,0,8-3.582,8-8s-3.582-8-8-8S0,3.582,0,8S3.582,16,8,16 M8,1.5c3.59,0,6.5,2.91,6.5,6.5
	s-2.91,6.5-6.5,6.5c-3.589,0-6.5-2.91-6.5-6.5S4.411,1.5,8,1.5 M11.001,12.199C10.39,11.181,9.274,10.5,8,10.5
	s-2.389,0.681-3.002,1.699l-1.286-0.772C4.585,9.973,6.179,9,8,9c1.821,0,3.414,0.973,4.288,2.427L11.001,12.199z M11.984,4.379
	c0.067,0.268-0.096,0.539-0.364,0.607c-0.275,0.068-0.602,0.188-0.89,0.333C10.896,5.498,10.999,5.737,10.999,6c0,0.552-0.448,1-1,1
	c-0.552,0-1-0.448-1-1C8.999,5.982,9,5.964,9,5.946c0.033-0.741,0.706-1.234,1.275-1.519c0.543-0.271,1.08-0.406,1.102-0.413
	C11.646,3.948,11.917,4.111,11.984,4.379L11.984,4.379z M4.015,4.379c0.067-0.268,0.338-0.431,0.606-0.364
	C4.644,4.021,5.18,4.156,5.723,4.428c0.568,0.284,1.243,0.776,1.275,1.519C6.999,5.964,7,5.982,7,6c0,0.552-0.448,1-1,1
	C5.448,7,5,6.552,5,6c0-0.263,0.102-0.503,0.268-0.681c-0.288-0.145-0.614-0.265-0.89-0.333C4.109,4.918,3.947,4.646,4.015,4.379
	L4.015,4.379z"/>
</svg>
