<?xml version="1.0" encoding="utf-8"?>
<!-- Generator: Adobe Illustrator 16.0.0, SVG Export Plug-In . SVG Version: 6.00 Build 0)  -->
<!DOCTYPE svg PUBLIC "-//W3C//DTD SVG 1.1//EN" "http://www.w3.org/Graphics/SVG/1.1/DTD/svg11.dtd">
<svg version="1.1" id="Layer_1" xmlns="http://www.w3.org/2000/svg" xmlns:xlink="http://www.w3.org/1999/xlink" x="0px" y="0px"
	 width="16px" height="16px" viewBox="0 0 16 16" enable-background="new 0 0 16 16" xml:space="preserve">
<g>
	<path fill="#FFFFFF" d="M8,16c4.418,0,8-3.582,8-8s-3.582-8-8-8C3.581,0,0,3.582,0,8S3.581,16,8,16 M8,1.5c3.59,0,6.5,2.91,6.5,6.5
		s-2.91,6.5-6.5,6.5c-3.591,0-6.5-2.91-6.5-6.5S4.409,1.5,8,1.5"/>
	<path fill="#FFFFFF" d="M6,6.5C6,6.776,5.775,7,5.5,7C5.224,7,5,6.776,5,6.5S5.224,6,5.5,6C5.775,6,6,6.224,6,6.5"/>
	<path fill="#FFFFFF" d="M5.5,5C6.327,5,7,5.672,7,6.5S6.327,8,5.5,8C4.672,8,4,7.328,4,6.5S4.672,5,5.5,5 M5.5,4
		C4.121,4,3,5.122,3,6.5S4.121,9,5.5,9C6.878,9,8,7.878,8,6.5S6.878,4,5.5,4"/>
	<path fill="#FFFFFF" d="M11,6.5C11,6.776,10.775,7,10.5,7S10,6.776,10,6.5S10.225,6,10.5,6S11,6.224,11,6.5"/>
	<path fill="#FFFFFF" d="M10.5,5C11.327,5,12,5.672,12,6.5S11.327,8,10.5,8C9.672,8,9,7.328,9,6.5S9.672,5,10.5,5 M10.5,4
		C9.12,4,8,5.122,8,6.5S9.12,9,10.5,9C11.879,9,13,7.878,13,6.5S11.879,4,10.5,4"/>
	<rect x="6" y="11" fill="#FFFFFF" width="4" height="1"/>
</g>
</svg>
