<?xml version="1.0" encoding="utf-8"?>
<!-- Generator: Adobe Illustrator 16.0.0, SVG Export Plug-In . SVG Version: 6.00 Build 0)  -->
<!DOCTYPE svg PUBLIC "-//W3C//DTD SVG 1.1//EN" "http://www.w3.org/Graphics/SVG/1.1/DTD/svg11.dtd">
<svg version="1.1" id="Layer_1" xmlns="http://www.w3.org/2000/svg" xmlns:xlink="http://www.w3.org/1999/xlink" x="0px" y="0px"
	 width="16px" height="16px" viewBox="0 0 16 16" enable-background="new 0 0 16 16" xml:space="preserve">
<path fill="#FFFFFF" d="M8,16c4.418,0,8-3.582,8-8s-3.582-8-8-8C3.581,0,0,3.582,0,8S3.581,16,8,16 M8,1.5c3.59,0,6.5,2.91,6.5,6.5
	s-2.91,6.5-6.5,6.5c-3.591,0-6.5-2.91-6.5-6.5S4.409,1.5,8,1.5 M8,9.356c1.811,0,3.534-0.481,5-1.327C12.771,10.817,10.605,13,8,13
	c-2.607,0-4.773-2.185-5-4.973C4.465,8.872,6.187,9.356,8,9.356 M4,5.5C4,4.672,4.447,4,5,4c0.552,0,1,0.672,1,1.5S5.552,7,5,7
	C4.447,7,4,6.328,4,5.5 M10,5.5C10,4.672,10.447,4,11,4c0.552,0,1,0.672,1,1.5S11.552,7,11,7C10.447,7,10,6.328,10,5.5"/>
</svg>
