<?xml version="1.0" encoding="utf-8"?>
<!-- Generator: Adobe Illustrator 16.0.0, SVG Export Plug-In . SVG Version: 6.00 Build 0)  -->
<!DOCTYPE svg PUBLIC "-//W3C//DTD SVG 1.1//EN" "http://www.w3.org/Graphics/SVG/1.1/DTD/svg11.dtd">
<svg version="1.1" id="Layer_1" xmlns="http://www.w3.org/2000/svg" xmlns:xlink="http://www.w3.org/1999/xlink" x="0px" y="0px"
	 width="16px" height="16px" viewBox="0 0 16 16" enable-background="new 0 0 16 16" xml:space="preserve">
<g>
	<path fill="#FFFFFF" d="M5.724,4.428c-0.543-0.27-1.08-0.406-1.103-0.413C4.354,3.949,4.082,4.111,4.016,4.379
		C3.948,4.646,4.111,4.918,4.38,4.985c0.274,0.069,0.602,0.188,0.89,0.334C5.104,5.498,5.002,5.737,5.002,6c0,0.552,0.447,1,1,1
		c0.552,0,1-0.448,1-1C7.002,5.982,7,5.964,7,5.946C6.968,5.205,6.294,4.712,5.724,4.428L5.724,4.428z"/>
	<path fill="#FFFFFF" d="M8,0C3.581,0,0,3.582,0,8s3.581,8,8,8c4.418,0,8-3.582,8-8S12.418,0,8,0 M3.694,12.87
		C3.861,12.953,4.051,13,4.25,13h7.5c0.198,0,0.387-0.047,0.555-0.13C11.157,13.884,9.65,14.5,8,14.5
		C6.348,14.5,4.842,13.884,3.694,12.87 M4,11.75v-1.5C4,10.115,4.113,10,4.25,10H6v2H4.25C4.113,12,4,11.886,4,11.75 M7,10h2v2H7V10
		z M10,12v-2h1.75c0.136,0,0.25,0.115,0.25,0.25v1.5c0,0.136-0.114,0.25-0.25,0.25H10z M12.869,12.305
		C12.952,12.138,13,11.949,13,11.75v-1.5C13,9.561,12.438,9,11.75,9h-7.5C3.561,9,3,9.561,3,10.25v1.5
		c0,0.199,0.047,0.387,0.13,0.555C2.115,11.158,1.5,9.651,1.5,8c0-3.589,2.909-6.5,6.5-6.5c3.59,0,6.5,2.911,6.5,6.5
		C14.5,9.651,13.884,11.158,12.869,12.305"/>
	<path fill="#FFFFFF" d="M11.379,4.015c-0.023,0.007-0.561,0.142-1.104,0.413C9.709,4.712,9.033,5.205,9.002,5.946
		C9,5.964,9,5.982,9,6c0,0.552,0.447,1,1,1c0.552,0,1-0.448,1-1c0-0.263-0.103-0.502-0.27-0.681
		c0.289-0.145,0.615-0.265,0.891-0.334c0.269-0.067,0.432-0.339,0.365-0.606C11.919,4.111,11.647,3.948,11.379,4.015L11.379,4.015z"
		/>
</g>
</svg>
