<svg xmlns="http://www.w3.org/2000/svg" width="303.281" height="54.5" viewBox="0 0 303.281 54.5">
  <defs>
    <style>
      .cls-1 {
        fill: #f35065;
        fill-rule: evenodd;
      }
    </style>
  </defs>
  <path id="I_I_PAUSE_copy" data-name="I I  PAUSE copy" class="cls-1" d="M185.214,124.248a11.322,11.322,0,0,0,.432,3.672q0.864,2.736,5.9,2.736,4.606,0,5.616-1.944a5.828,5.828,0,0,0,.684-1.872,20.785,20.785,0,0,0,.108-2.52V84.288a14.369,14.369,0,0,0-.36-3.744q-0.937-2.663-5.976-2.664-4.61,0-5.616,1.944a5.752,5.752,0,0,0-.684,1.908,20.926,20.926,0,0,0-.108,2.484v40.032Zm24.04,0a11.322,11.322,0,0,0,.432,3.672q0.864,2.736,5.9,2.736,4.607,0,5.616-1.944a5.828,5.828,0,0,0,.684-1.872,20.785,20.785,0,0,0,.108-2.52V84.288a14.369,14.369,0,0,0-.36-3.744q-0.937-2.663-5.976-2.664-4.609,0-5.616,1.944a5.752,5.752,0,0,0-.684,1.908,20.926,20.926,0,0,0-.108,2.484v40.032Zm89.128-41.76A19.974,19.974,0,0,0,286.07,77.88H270.662q-4.609,0-5.616,1.944a5.752,5.752,0,0,0-.684,1.908,20.926,20.926,0,0,0-.108,2.484v39.96a12.038,12.038,0,0,0,.432,3.744q0.864,2.664,5.9,2.664,4.607,0,5.616-1.944a5.791,5.791,0,0,0,.684-1.908,20.916,20.916,0,0,0,.108-2.484v-8.136h9a20.057,20.057,0,0,0,12.384-4.608,16.631,16.631,0,0,0,4.824-6.012,18.816,18.816,0,0,0,1.872-8.46,19.047,19.047,0,0,0-1.872-8.5,16.569,16.569,0,0,0-4.824-6.048h0Zm-12.312,20.88H277V90.624h9a6.976,6.976,0,0,1,4.32,1.62,5.691,5.691,0,0,1,2.088,4.788,5.59,5.59,0,0,1-2.088,4.752,6.982,6.982,0,0,1-4.248,1.584h0ZM328.95,77.88a6.372,6.372,0,0,0-3.42,1.008,6.288,6.288,0,0,0-2.412,2.664L303.678,121.8a9.377,9.377,0,0,0-1.224,3.672q0,2.592,4.176,4.608a9.455,9.455,0,0,0,3.852,1.224,3.71,3.71,0,0,0,2.3-.684,5.161,5.161,0,0,0,1.3-1.332q0.395-.648,1.116-2.088l3.744-7.776h19.944l3.744,7.776q0.718,1.44,1.116,2.16a4.279,4.279,0,0,0,1.3,1.368,3.845,3.845,0,0,0,2.3.648,9.464,9.464,0,0,0,3.852-1.224q4.175-2.088,4.176-4.68a9.411,9.411,0,0,0-1.224-3.672L334.71,81.624a6.1,6.1,0,0,0-5.76-3.744h0Zm4.752,30.888h-9.576l4.752-9.864Zm55.32-24.984v22.032a15.845,15.845,0,0,1-2.592,9,8.793,8.793,0,0,1-7.848,3.888,10.2,10.2,0,0,1-5.112-1.224,8.092,8.092,0,0,1-3.24-3.24,17.193,17.193,0,0,1-2.16-8.352v-21.6a9.909,9.909,0,0,0-.864-4.536,2.893,2.893,0,0,0-1.872-1.512,15.822,15.822,0,0,0-7.344,0,3.153,3.153,0,0,0-1.944,1.512,5.752,5.752,0,0,0-.684,1.908,21.768,21.768,0,0,0-.108,2.556v21.672a27.723,27.723,0,0,0,5.832,17.28,20.818,20.818,0,0,0,7.308,6.048,21.645,21.645,0,0,0,10.008,2.3,22.142,22.142,0,0,0,10.044-2.268,21.448,21.448,0,0,0,7.416-5.94,27.9,27.9,0,0,0,5.9-17.28V84.288a12.043,12.043,0,0,0-.432-3.744,2.836,2.836,0,0,0-.936-1.512,5.73,5.73,0,0,0-1.872-.864,12.022,12.022,0,0,0-3.276-.36,11.518,11.518,0,0,0-3.42.432,3.675,3.675,0,0,0-2.088,1.584,7.907,7.907,0,0,0-.72,3.96h0Zm17.672,40.248a20.479,20.479,0,0,0,10.224,6.516,24.2,24.2,0,0,0,6.408.828,22.35,22.35,0,0,0,12.456-3.816,14.254,14.254,0,0,0,4.9-5.508,17.485,17.485,0,0,0,1.872-8.244,15.64,15.64,0,0,0-1.836-7.884,10.559,10.559,0,0,0-4.572-4.5,37.306,37.306,0,0,0-5.976-2.2A54.051,54.051,0,0,0,424.19,97.9a11.323,11.323,0,0,1-4.572-1.656,3.7,3.7,0,0,1-1.836-3.2,3.6,3.6,0,0,1,1.548-3.1,6.477,6.477,0,0,1,3.888-1.116,7.221,7.221,0,0,1,3.852.936,11.377,11.377,0,0,1,1.116.936,8.181,8.181,0,0,0,.828.72,7.38,7.38,0,0,0,3.744,1.44q2.592,0,5.04-3.6a7.948,7.948,0,0,0,1.728-3.96q0-1.439-2.232-3.528l-1.8-1.368a15.162,15.162,0,0,0-4.932-2.268,26.308,26.308,0,0,0-7.884-1.116q-8.138,0-12.852,4.716a15.133,15.133,0,0,0-4.716,11.052,15.892,15.892,0,0,0,1.836,7.884,11.924,11.924,0,0,0,4.572,4.788,38.82,38.82,0,0,0,5.9,2.628,39.289,39.289,0,0,0,5.9,1.62,13.466,13.466,0,0,1,4.572,1.62,3.232,3.232,0,0,1,1.836,2.772q0,5.472-6.7,5.472a6.843,6.843,0,0,1-3.456-1.116,10.926,10.926,0,0,1-2.88-2.34q-3.6-3.6-5.616-3.6a5.461,5.461,0,0,0-3.816,1.728q-3.1,3.024-3.1,4.86a6.894,6.894,0,0,0,1.872,4.14ZM460,110.64H474.11a12.047,12.047,0,0,0,3.744-.432q2.735-.864,2.736-5.9,0-4.608-1.944-5.616A5.785,5.785,0,0,0,476.738,98a20.94,20.94,0,0,0-2.484-.108H460V90.624h22.1a12.047,12.047,0,0,0,3.744-.432q2.662-.864,2.664-5.9,0-4.607-1.944-5.616a5.785,5.785,0,0,0-1.908-.684,20.94,20.94,0,0,0-2.484-.108H453.806q-3.817,0-5.184,1.332t-1.368,5v40.032a11.322,11.322,0,0,0,.432,3.672q0.864,2.736,5.9,2.736H482.1a12.047,12.047,0,0,0,3.744-.432q2.662-.864,2.664-5.9,0-4.608-1.944-5.616a5.776,5.776,0,0,0-1.908-.684,20.94,20.94,0,0,0-2.484-.108H460V110.64Z" transform="translate(-185.219 -77.031)"/>
</svg>
