<svg xmlns="http://www.w3.org/2000/svg" width="410.781" height="64" viewBox="0 0 410.781 64">
  <defs>
    <style>
      .cls-1 {
        fill: #f35065;
        fill-rule: evenodd;
      }
    </style>
  </defs>
  <path id="SKRIVEPAUSE" class="cls-1" d="M164,72a32,32,0,1,1-32,32A32,32,0,0,1,164,72Zm0,7a25,25,0,1,1-25,25A25,25,0,0,1,164,79Zm-8.5,8h2a2.5,2.5,0,0,1,2.5,2.5v29a2.5,2.5,0,0,1-2.5,2.5h-2a2.5,2.5,0,0,1-2.5-2.5v-29A2.5,2.5,0,0,1,155.5,87Zm16,0h2a2.5,2.5,0,0,1,2.5,2.5v29a2.5,2.5,0,0,1-2.5,2.5h-2a2.5,2.5,0,0,1-2.5-2.5v-29A2.5,2.5,0,0,1,171.5,87Zm53.734,30.688a13.653,13.653,0,0,0,6.816,4.344,16.147,16.147,0,0,0,4.272.552,14.9,14.9,0,0,0,8.3-2.544,9.506,9.506,0,0,0,3.264-3.672,11.661,11.661,0,0,0,1.248-5.5,10.426,10.426,0,0,0-1.224-5.256,7.041,7.041,0,0,0-3.048-3,24.831,24.831,0,0,0-3.984-1.464,35.99,35.99,0,0,0-3.984-.888,7.547,7.547,0,0,1-3.048-1.1,2.47,2.47,0,0,1-1.224-2.136,2.4,2.4,0,0,1,1.032-2.064,4.316,4.316,0,0,1,2.592-.744,4.814,4.814,0,0,1,2.568.624,7.649,7.649,0,0,1,.744.624,5.429,5.429,0,0,0,.552.48,4.919,4.919,0,0,0,2.5.96q1.728,0,3.36-2.4a5.3,5.3,0,0,0,1.152-2.64,3.755,3.755,0,0,0-1.488-2.352l-1.2-.912a10.11,10.11,0,0,0-3.288-1.512,17.536,17.536,0,0,0-5.256-.744,11.576,11.576,0,0,0-8.568,3.144,10.087,10.087,0,0,0-3.144,7.368,10.594,10.594,0,0,0,1.224,5.256,7.947,7.947,0,0,0,3.048,3.192,25.85,25.85,0,0,0,3.936,1.752,26.171,26.171,0,0,0,3.936,1.08,8.98,8.98,0,0,1,3.048,1.08,2.155,2.155,0,0,1,1.224,1.848q0,3.648-4.464,3.648a4.56,4.56,0,0,1-2.3-.744,7.273,7.273,0,0,1-1.92-1.56q-2.4-2.4-3.744-2.4a3.64,3.64,0,0,0-2.544,1.152q-2.065,2.016-2.064,3.24a4.594,4.594,0,0,0,1.248,2.76Zm44.032-15.072q5.854-5.616,8.64-8.832a4.847,4.847,0,0,0,1.44-2.9q0-1.224-1.92-2.88a5.486,5.486,0,0,0-3.168-1.656q-1.249,0-2.928,1.968-4.032,4.7-10.56,12.048V91.192a9.594,9.594,0,0,0-.24-2.5q-0.625-1.775-3.984-1.776-3.073,0-3.744,1.3a3.827,3.827,0,0,0-.456,1.272,13.949,13.949,0,0,0-.072,1.656v26.688a7.548,7.548,0,0,0,.288,2.448q0.576,1.824,3.936,1.824,3.071,0,3.744-1.3a3.893,3.893,0,0,0,.456-1.248,13.857,13.857,0,0,0,.072-1.68v-9.36l10.56,12.048q1.728,2.016,2.952,2.016a5.48,5.48,0,0,0,3.144-1.656q1.918-1.656,1.92-2.88a5.022,5.022,0,0,0-1.584-3q-3.073-3.552-10.416-10.608Zm37.672,6a11.923,11.923,0,0,0,3.6-8.928,12.7,12.7,0,0,0-1.248-5.664,11.289,11.289,0,0,0-3.168-4.032,13.318,13.318,0,0,0-8.208-3.072H287.546q-3.073,0-3.744,1.3a3.827,3.827,0,0,0-.456,1.272,13.949,13.949,0,0,0-.072,1.656v26.64a8.025,8.025,0,0,0,.288,2.5q0.576,1.776,3.936,1.776,3.071,0,3.744-1.3a3.868,3.868,0,0,0,.456-1.272,13.944,13.944,0,0,0,.072-1.656v-5.424h6.048l1.488-.1q3.262,7.776,3.744,8.688a3.423,3.423,0,0,0,.888.936,2.466,2.466,0,0,0,1.536.456,6.605,6.605,0,0,0,2.472-.672q2.974-1.248,2.976-3.072a7.615,7.615,0,0,0-.72-2.5q-2.21-4.992-3.264-7.536h0Zm-15.168-13.2h6.048a4.652,4.652,0,0,1,2.88,1.08,3.8,3.8,0,0,1,1.392,3.192,3.728,3.728,0,0,1-1.392,3.168,4.6,4.6,0,0,1-2.784,1.056H291.77v-8.5Zm21.5,22.416a7.548,7.548,0,0,0,.288,2.448q0.576,1.824,3.936,1.824,3.071,0,3.744-1.3a3.893,3.893,0,0,0,.456-1.248,13.857,13.857,0,0,0,.072-1.68V91.192a9.594,9.594,0,0,0-.24-2.5q-0.625-1.775-3.984-1.776-3.073,0-3.744,1.3a3.827,3.827,0,0,0-.456,1.272,13.949,13.949,0,0,0-.072,1.656v26.688Zm41.28-31.2a2.5,2.5,0,0,0-2.112,1.3q-0.288.529-.672,1.44l-9.6,21.024q-0.194-.384-1.7-3.672t-3.216-6.984q-1.706-3.7-3.192-6.984t-1.848-3.984a9.054,9.054,0,0,0-.792-1.272,2.246,2.246,0,0,0-.816-0.672,3.275,3.275,0,0,0-1.272-.192,5.955,5.955,0,0,0-2.424.816q-2.834,1.393-2.832,3.072a6.174,6.174,0,0,0,.72,2.3l13.248,26.88a4.105,4.105,0,0,0,1.608,1.7,4.36,4.36,0,0,0,2.28.648h0.48a4.282,4.282,0,0,0,2.232-.648,4.118,4.118,0,0,0,1.608-1.7L359.5,92.824a6.174,6.174,0,0,0,.72-2.3q0-1.68-2.832-3.072A6.324,6.324,0,0,0,354.554,86.632ZM371.77,108.76h9.408a8.034,8.034,0,0,0,2.5-.288q1.823-.576,1.824-3.936,0-3.072-1.3-3.744a3.853,3.853,0,0,0-1.272-.456,13.967,13.967,0,0,0-1.656-.072h-9.5V95.416h14.736a8.034,8.034,0,0,0,2.5-.288q1.774-.576,1.776-3.936,0-3.071-1.3-3.744a3.858,3.858,0,0,0-1.272-.456,13.967,13.967,0,0,0-1.656-.072H367.642q-2.546,0-3.456.888t-0.912,3.336v26.688a7.548,7.548,0,0,0,.288,2.448q0.576,1.824,3.936,1.824h19.008a8.034,8.034,0,0,0,2.5-.288q1.774-.576,1.776-3.936,0-3.072-1.3-3.744a3.853,3.853,0,0,0-1.272-.456,13.967,13.967,0,0,0-1.656-.072H371.77V108.76Zm45.256-18.768a13.318,13.318,0,0,0-8.208-3.072H398.546q-3.073,0-3.744,1.3a3.827,3.827,0,0,0-.456,1.272,13.949,13.949,0,0,0-.072,1.656v26.64a8.025,8.025,0,0,0,.288,2.5q0.576,1.776,3.936,1.776,3.071,0,3.744-1.3a3.868,3.868,0,0,0,.456-1.272,13.944,13.944,0,0,0,.072-1.656v-5.424h6a13.373,13.373,0,0,0,8.256-3.072,11.094,11.094,0,0,0,3.216-4.008,12.548,12.548,0,0,0,1.248-5.64,12.7,12.7,0,0,0-1.248-5.664,11.052,11.052,0,0,0-3.216-4.032h0Zm-8.208,13.92H402.77v-8.5h6a4.652,4.652,0,0,1,2.88,1.08,3.8,3.8,0,0,1,1.392,3.192,3.728,3.728,0,0,1-1.392,3.168,4.655,4.655,0,0,1-2.832,1.056h0Zm27.92-16.992a4.247,4.247,0,0,0-2.28.672,4.189,4.189,0,0,0-1.608,1.776L419.89,116.2a6.246,6.246,0,0,0-.816,2.448q0,1.728,2.784,3.072a6.291,6.291,0,0,0,2.568.816,2.47,2.47,0,0,0,1.536-.456,3.452,3.452,0,0,0,.864-0.888q0.262-.432.744-1.392l2.5-5.184h13.3l2.5,5.184q0.478,0.96.744,1.44a2.845,2.845,0,0,0,.864.912,2.563,2.563,0,0,0,1.536.432,6.3,6.3,0,0,0,2.568-.816q2.783-1.392,2.784-3.12a6.28,6.28,0,0,0-.816-2.448l-12.96-26.784a4.065,4.065,0,0,0-3.84-2.5h0Zm3.168,20.592h-6.384l3.168-6.576Zm36.88-16.656v14.688a10.564,10.564,0,0,1-1.728,6,5.863,5.863,0,0,1-5.232,2.592,6.8,6.8,0,0,1-3.408-.816,5.4,5.4,0,0,1-2.16-2.16,11.462,11.462,0,0,1-1.44-5.568v-14.4a6.606,6.606,0,0,0-.576-3.024,1.931,1.931,0,0,0-1.248-1.008,10.548,10.548,0,0,0-4.9,0,2.1,2.1,0,0,0-1.3,1.008,3.827,3.827,0,0,0-.456,1.272,14.511,14.511,0,0,0-.072,1.7v14.448a18.482,18.482,0,0,0,3.888,11.52,13.876,13.876,0,0,0,4.872,4.032,14.421,14.421,0,0,0,6.672,1.536,14.761,14.761,0,0,0,6.7-1.512,14.3,14.3,0,0,0,4.944-3.96,18.6,18.6,0,0,0,3.936-11.52v-14.5a8.028,8.028,0,0,0-.288-2.5,1.892,1.892,0,0,0-.624-1.008,3.822,3.822,0,0,0-1.248-.576,8.014,8.014,0,0,0-2.184-.24,7.677,7.677,0,0,0-2.28.288,2.448,2.448,0,0,0-1.392,1.056,5.267,5.267,0,0,0-.48,2.64h0Zm11.448,26.832a13.653,13.653,0,0,0,6.816,4.344,16.147,16.147,0,0,0,4.272.552,14.9,14.9,0,0,0,8.3-2.544,9.506,9.506,0,0,0,3.264-3.672,11.661,11.661,0,0,0,1.248-5.5,10.426,10.426,0,0,0-1.224-5.256,7.041,7.041,0,0,0-3.048-3,24.831,24.831,0,0,0-3.984-1.464,35.99,35.99,0,0,0-3.984-.888,7.547,7.547,0,0,1-3.048-1.1,2.47,2.47,0,0,1-1.224-2.136,2.4,2.4,0,0,1,1.032-2.064,4.316,4.316,0,0,1,2.592-.744,4.814,4.814,0,0,1,2.568.624,7.649,7.649,0,0,1,.744.624,5.429,5.429,0,0,0,.552.48,4.919,4.919,0,0,0,2.5.96q1.728,0,3.36-2.4a5.3,5.3,0,0,0,1.152-2.64,3.755,3.755,0,0,0-1.488-2.352l-1.2-.912a10.11,10.11,0,0,0-3.288-1.512,17.536,17.536,0,0,0-5.256-.744,11.576,11.576,0,0,0-8.568,3.144,10.087,10.087,0,0,0-3.144,7.368,10.594,10.594,0,0,0,1.224,5.256,7.947,7.947,0,0,0,3.048,3.192,25.85,25.85,0,0,0,3.936,1.752,26.171,26.171,0,0,0,3.936,1.08,8.98,8.98,0,0,1,3.048,1.08,2.155,2.155,0,0,1,1.224,1.848q0,3.648-4.464,3.648a4.56,4.56,0,0,1-2.3-.744,7.273,7.273,0,0,1-1.92-1.56q-2.4-2.4-3.744-2.4a3.64,3.64,0,0,0-2.544,1.152q-2.065,2.016-2.064,3.24a4.594,4.594,0,0,0,1.248,2.76Zm35.536-8.928h9.408a8.034,8.034,0,0,0,2.5-.288q1.822-.576,1.824-3.936,0-3.072-1.3-3.744a3.853,3.853,0,0,0-1.272-.456,13.967,13.967,0,0,0-1.656-.072h-9.5V95.416h14.736a8.034,8.034,0,0,0,2.5-.288q1.774-.576,1.776-3.936,0-3.071-1.3-3.744a3.858,3.858,0,0,0-1.272-.456,13.967,13.967,0,0,0-1.656-.072H519.642q-2.545,0-3.456.888t-0.912,3.336v26.688a7.548,7.548,0,0,0,.288,2.448q0.576,1.824,3.936,1.824h19.008a8.034,8.034,0,0,0,2.5-.288q1.774-.576,1.776-3.936,0-3.072-1.3-3.744a3.853,3.853,0,0,0-1.272-.456,13.967,13.967,0,0,0-1.656-.072H523.77V108.76Z" transform="translate(-132 -72)"/>
</svg>
