<?xml version="1.0" encoding="utf-8"?>
<!-- Generator: Adobe Illustrator 16.0.0, SVG Export Plug-In . SVG Version: 6.00 Build 0)  -->
<!DOCTYPE svg PUBLIC "-//W3C//DTD SVG 1.1//EN" "http://www.w3.org/Graphics/SVG/1.1/DTD/svg11.dtd">
<svg version="1.1" id="Layer_1" xmlns="http://www.w3.org/2000/svg" xmlns:xlink="http://www.w3.org/1999/xlink" x="0px" y="0px"
	 width="26.5px" height="26.5px" viewBox="0 0 26.5 26.5" enable-background="new 0 0 26.5 26.5" xml:space="preserve">
<g>
	<rect fill="#38CEB6" width="26.5" height="26.5"/>
</g>
<g>
	<path fill="#FFFFFF" d="M14.066,16.122v-0.167c1.18-0.452,2.04-1.858,2.04-3.521c0-2.03-1.278-3.675-2.856-3.675
		s-2.858,1.645-2.858,3.675c0,1.662,0.86,3.068,2.042,3.521v0.167c-2.769,0.117-4.897,0.795-4.897,1.618v1.633h11.428V17.74
		C18.964,16.917,16.834,16.239,14.066,16.122"/>
	<path fill="#FFFFFF" d="M18.964,12.849v-0.064c0.932-0.263,1.632-1.416,1.632-2.8c0-1.577-0.913-2.857-2.041-2.857
		s-2.04,1.28-2.04,2.857c0,1.384,0.7,2.537,1.632,2.8v0.064c-0.403,0.017-0.791,0.053-1.145,0.107
		c-0.081,0.871-0.361,1.674-0.789,2.335h6.017v-1.226C22.229,13.435,20.8,12.915,18.964,12.849L18.964,12.849z"/>
	<path fill="#FFFFFF" d="M9.497,12.956c-0.354-0.053-0.741-0.09-1.146-0.106v-0.064c0.932-0.264,1.634-1.416,1.634-2.8
		c0-1.578-0.914-2.858-2.041-2.858c-1.129,0-2.042,1.28-2.042,2.858c0,1.384,0.701,2.536,1.635,2.8v0.064
		c-1.839,0.067-3.267,0.586-3.267,1.219v1.225h6.014c-0.427-0.662-0.705-1.466-0.786-2.335V12.956z"/>
</g>
</svg>
