<?xml version="1.0" encoding="utf-8"?>
<!-- Generator: Adobe Illustrator 16.0.0, SVG Export Plug-In . SVG Version: 6.00 Build 0)  -->
<!DOCTYPE svg PUBLIC "-//W3C//DTD SVG 1.1//EN" "http://www.w3.org/Graphics/SVG/1.1/DTD/svg11.dtd">
<svg version="1.1" id="Layer_1" xmlns="http://www.w3.org/2000/svg" xmlns:xlink="http://www.w3.org/1999/xlink" x="0px" y="0px"
	 width="26.483px" height="26.483px" viewBox="0 0 26.483 26.483" enable-background="new 0 0 26.483 26.483" xml:space="preserve">
<g>
	<rect y="0" fill="#ABA6FF" width="26.483" height="26.484"/>
</g>
<path fill="#FFFFFF" d="M12.012,15.287c1.012,0.729,2.251,1.16,3.592,1.16c3.395,0,6.144-2.75,6.144-6.145
	c0-3.394-2.749-6.144-6.144-6.144c-3.393,0-6.143,2.75-6.143,6.144c0,1.342,0.429,2.579,1.158,3.592l-6.744,5.902l2.234,2.234
	L12.012,15.287z M11.137,10.304c0-2.47,2-4.468,4.467-4.468c2.469,0,4.469,1.998,4.469,4.468c0,2.465-2,4.469-4.469,4.469
	C13.137,14.773,11.137,12.77,11.137,10.304"/>
</svg>
