<svg id="Layer_1" data-name="Layer 1" xmlns="http://www.w3.org/2000/svg" viewBox="0 0 520.06 366.01"><defs><style>.cls-1{fill:#00b0d8;}.cls-2{fill:#f4d122;}.cls-3{fill:#2e6199;}.cls-4{fill:#fff;}.cls-5{fill:none;stroke:#27aae1;}.cls-6{fill:#27aae1;}</style></defs><title>sommerbogen-logo</title><path class="cls-1" d="M539.46,297.21L545,292l11.7-10.91-8.87-1.58c-21.54-3.83-55.7-7.25-74.18-8.95,0.11-25.23-10.39-45.79-31.63-54.85-37.95-16.06-93.93,8.76-120.45,56.29-3.39,6-6.46,12.09-9.12,18.09-10.74-6.22-21.21-12.38-21.36-12.47a11.92,11.92,0,0,0-6-1.86,7.24,7.24,0,0,0-5.76,2.67A7.87,7.87,0,0,0,278,281q-0.77-3.33-1.57-6.62l-2.2-9.07-5.72,7.38c-6.94,8.94-13.1,16.76-18.7,23.71a85.6,85.6,0,0,0-12.72-19.34l-0.35-.57,0,0.1c-29.67-34.2-90-58.9-138.82-25.3a48,48,0,0,0-12.54,13.27l-15.11-1.41c-4.53-.42-8.19,1.17-9.9,4.26-0.94,1.69-2,5.26,1,10.14l17.29,27.87a140.08,140.08,0,0,0,5.67,23.29c-49-.23-51.77,41.11-31.13,72.25L41.78,413.2c-1.13,1.24-4.58,5-2.88,8.88a5.66,5.66,0,0,0,5.41,3.26h0a14.26,14.26,0,0,0,5-1.15l17.78-7.06c14.84,13.2,34.79,21,56.7,16.31-3.87,30.46,32.7,49.94,73.26,59.46,40.6,9.89,85.2,9.83,98.37,9.7,69.88,2.08,198.74-20,183.14-75.27,46.74-13.91,80.5-60.38,75.08-104C552.17,311.21,547,302.67,539.46,297.21Z" transform="translate(-38.44 -150.36)"/><path class="cls-2" d="M361,160.49c1,1.57.52,4.29,0.21,5.62-0.58,2.53.69,2,2.28,3.11,1.08,0.72,1.95,1.09,3.38,1.9,0.35,1.52,2.13,1.77,3.29,2.3,1.9-1,1.76-1.73,2.84-2.87s4.65-5.53,5.07-1.93c0.37,1.61-2.14,2.56-2.76,3.72-1.92,3.59.3,4.18,3,6.46,2.46,5.75,5.89-.9,8.47-0.31,4,0.91-3.42,4.67-3.28,7.4,0.06,1.18,1.27,2.23,2.36,2.79,0.19,0.19,1.88,2,1.86,2,2.08,0.16,2.93-.68,4.55-0.7,2.91,0,2.45,4.69.24,4.18-3.25-.74-1.7,4.32-1.58,5.12a28.65,28.65,0,0,1,4.06-1c1.29-.18,4.14-1.28,6.27-1.23l-0.15.67c-2.78.3-2.74,2.35-4.25,3.67-1.58,1-2.48.58-4.08,1.89-1.87,1.53-.53,2.16-0.78,3.25a22.57,22.57,0,0,0,.49,4.4c1.38,2,6.7.43,7.55,3.36,0.72,2.5-3.77,2.68-5.12,2.48a2.16,2.16,0,0,0-2.61,2c0.15,1.82,6,3.39,1.37,4.51-5.9,1.44,1.42,2.36,1,4.07-0.22,1,1.59,4.65-2,3.82-2.54-.58-2.71,2-3.15,3.95-0.38,1.65,3.52,6.77,5.37,7.39A13.2,13.2,0,0,1,400,246a2.85,2.85,0,0,0,.74-0.26c-0.3.7,0.12,1.07,1.24,1.13-0.05.22-.1,0.45-0.16,0.67-6.14-1.41-9.24-8.9-17.22-3.94-2.27,1.41-2.26,2.46-2.5,6.17,0,1.34,1.62,4.76-2.53,4.48-0.69-.4-2.73-1.9-4-1-2.59,1.68,2.81,7.65-1,7.88-2.51.15-2.46-3.49-5.4-4.16-1.54,1.92-2.3,2.08-2.41,4.58-0.1,2.14-1.67,2.68-3.5,1.94-2.87-1.15-3.19,2.32-3.49,4.82-2.15,3.5-2.13-1.52-2.9-2.21-1.41-3-8.53.42-11.49-1.58s-3.37,4-3.91,6.34c-1.76-.54-4.81-3.41-4.88-5.47-4.18-1.85-1,7.75-4,8.07-1.36-2.25,2.32-5.12,1.33-7.57-3.74-1.56-3.81-4.21-8.06-4.09a8.07,8.07,0,0,1-3.22.38c-0.53-1.78-2-4.72-3.17-5.78s-2.64-.66-3.73-1.56c0.06,0-1.08-1.94-1.06-1.93-1.73-1.46-4.88.35-6.84,0.12,0-1.92,2.26-5.43.49-6.92,0,0.07-3.84-5.66-3.68-5.62-0.47-.11-0.47-1.3-1.15-1.81,0.37-1.63-3.57-.54-4.33-0.71-5.42-1.24.81-4.1,3-4.66-2.91-4.81-4.84-.69-9.41-1.73,1-3.37,6.2-3.19,7.3-6.9a8.79,8.79,0,0,0-1.28-4.51c-0.71-.91-5-0.71-5.42-2.51-0.69-2.73,10.88-4.33,4.77-7.76-0.46-.73-2.22-0.71-2.31-2.34-0.13-2.3,1.55-2.34,3.29-2.77,1.44-.36,3.25-2,2.12-3.66-1.32-1.9-2.27-.8-4-2-1.5-1.26-.89-2.15-2.33-2.92-1.21-.65-3-0.54-4.27-1-1.74-.58-3.46-2.07-5.75-2.86,3.33-.07,6.45,1.79,9,2.91,1.69,0.73,7,1.77,9.16.4,3.61-2.29-1.3-4.44-1.9-5.34-1-1.06-1.37-1.71-.58-2.88,1.31-1.93,3.87.56,4.74,0.73,4.66,4,5-5.31,6.11-6.47,1.82-.47,4.32-0.18,5.83-0.88,2.35-1.08-1.37-3.53,1.26-4.61s2.76-1.54,2.94-3.25c0.67-6.42,1.74-6.52,5.52-5.82,2.5,0.35,1.88-.07,2.74-1.06-0.32-1.4-.5-3.86-1.28-5.14s-0.37-3.11-1.51-4.07c-0.31-1.37-2.33-5-1.5-6.53,1.46,1.1,1.8,4,2.22,5.91,0.56,2.63,2.16,3.81,2.6,5.73a25.89,25.89,0,0,0,2.31,1.23c0.54,0.73.25,2.46,1.54,3.33,5,3.36,5.75-5.17,9.32-4.35,1.66,4.95,7.89.74,10,1.15,0.93,0.78,1.76,2,3,2.24,3.74,0.86,3-3.42,4.71-5.11m-18.87.32-0.39-.09" transform="translate(-38.44 -150.36)"/><path class="cls-3" d="M385.08,279.78q-2.68,38.39-7.2,76.62,31.74-1.13,64.79.64-19.12-12.12-39.61-23.14,16.42-6.41,33.76-12.11-17.42-10.53-35.89-20.22,30.14-14.32,63.58-26.37Q423.74,275.58,385.08,279.78Z" transform="translate(-38.44 -150.36)"/><path class="cls-3" d="M183.92,288.23Q172,310.7,162.48,333.41a520.3,520.3,0,0,1,44.38,31.33,593.34,593.34,0,0,1,26.7-56.89Q209.73,297.25,183.92,288.23Z" transform="translate(-38.44 -150.36)"/><path class="cls-3" d="M214.54,368.63c9.08-18.19,20.06-40.93,34-68.53q6,9.6,11.34,19.54,11-13.51,23.58-29.74a664,664,0,0,1,16.77,110.92,281.64,281.64,0,0,0-22.43-45.38q-6.95,10.67-13.18,20-8.61-10.67-18.49-21A142.34,142.34,0,0,1,214.54,368.63Z" transform="translate(-38.44 -150.36)"/><path class="cls-3" d="M291.66,290.88A663.3,663.3,0,0,1,311,402c3-18.51,6.44-36.39,10.52-53.63,4.72,8.86,8.82,17.25,12.41,25.17q5.67-17.27,12.47-33.5c7.87,12.46,14.24,23.58,19.52,33.34a751.78,751.78,0,0,0,8-85,219.64,219.64,0,0,0-39,27.72C321.67,308.56,307.38,300.14,291.66,290.88Z" transform="translate(-38.44 -150.36)"/><path class="cls-3" d="M461.9,287.57c-7.84,32.59-15.45,64.06-23,94.35q13-10.27,25.74-19.4c9.29,15.5,19.51,28.9,31.24,40.36q0-21.52.82-45.69c23.05-22.77,44.11-42.25,61.83-58.78A778.62,778.62,0,0,0,461.9,287.57Z" transform="translate(-38.44 -150.36)"/><path class="cls-3" d="M134.45,304.89l36.23-14.45c-32.64-3.08-65.56-6.21-99.39-9.28C87.51,307.23,104,333.37,120,359.65l1.1,1.81-1.24,1.28C94.7,388.81,71.61,414,49.82,438.05,97,420.89,141.9,402.39,190.47,382.14c-17.88-24.71-37-49.27-56.64-73.68l-2-2.51Z" transform="translate(-38.44 -150.36)"/><path class="cls-4" d="M384.19,265.12a12.24,12.24,0,0,0-10.78,10.79S370,317.08,367,342.56q31.74-1.13,64.79.64-19.11-12.12-39.6-23.13,16.42-6.41,33.76-12.12-17.42-10.53-35.89-20.22,30.14-14.32,63.58-26.37C426.48,261.62,384.19,265.12,384.19,265.12Z" transform="translate(-38.44 -150.36)"/><path class="cls-5" d="M384.19,265.12a12.24,12.24,0,0,0-10.78,10.79S370,317.08,367,342.56q31.74-1.13,64.79.64-19.11-12.12-39.6-23.13,16.42-6.41,33.76-12.12-17.42-10.53-35.89-20.22,30.14-14.32,63.58-26.37C426.48,261.62,384.19,265.12,384.19,265.12Z" transform="translate(-38.44 -150.36)"/><path class="cls-4" d="M182.44,277.88a11.44,11.44,0,0,0-13.86,5.45s-10.6,21.12-17,36.24A521.31,521.31,0,0,1,196,350.91,593.32,593.32,0,0,1,222.72,294C206.82,286.95,182.44,277.88,182.44,277.88Z" transform="translate(-38.44 -150.36)"/><path class="cls-5" d="M182.44,277.88a11.44,11.44,0,0,0-13.86,5.45s-10.6,21.12-17,36.24A521.31,521.31,0,0,1,196,350.91,593.32,593.32,0,0,1,222.72,294C206.82,286.95,182.44,277.88,182.44,277.88Z" transform="translate(-38.44 -150.36)"/><path class="cls-4" d="M213.06,351.29c-5.15,1.93-7.39-.54-5-5.48,0,0,15.66-32,29.65-59.55q6,9.6,11.35,19.54,11-13.52,23.58-29.74A664.4,664.4,0,0,1,289.43,387,282,282,0,0,0,267,341.6q-6.95,10.67-13.18,20-8.6-10.67-18.49-21A161.72,161.72,0,0,1,213.06,351.29Z" transform="translate(-38.44 -150.36)"/><path class="cls-5" d="M213.06,351.29c-5.15,1.93-7.39-.54-5-5.48,0,0,15.66-32,29.65-59.55q6,9.6,11.35,19.54,11-13.52,23.58-29.74A664.4,664.4,0,0,1,289.43,387,282,282,0,0,0,267,341.6q-6.95,10.67-13.18,20-8.6-10.67-18.49-21A161.72,161.72,0,0,1,213.06,351.29Z" transform="translate(-38.44 -150.36)"/><path class="cls-4" d="M289.42,282.12c-4.74-2.79-7.67-.68-6.52,4.7,0,0,14.09,65.73,17.23,101.32,3-18.51,6.44-36.39,10.52-53.63,4.71,8.86,8.82,17.25,12.41,25.17q5.67-17.27,12.47-33.5c7.87,12.46,14.24,23.58,19.52,33.34a753.17,753.17,0,0,0,8-85,219.32,219.32,0,0,0-39,27.72C310.82,294.73,289.42,282.12,289.42,282.12Z" transform="translate(-38.44 -150.36)"/><path class="cls-5" d="M289.42,282.12c-4.74-2.79-7.67-.68-6.52,4.7,0,0,14.09,65.73,17.23,101.32,3-18.51,6.44-36.39,10.52-53.63,4.71,8.86,8.82,17.25,12.41,25.17q5.67-17.27,12.47-33.5c7.87,12.46,14.24,23.58,19.52,33.34a753.17,753.17,0,0,0,8-85,219.32,219.32,0,0,0-39,27.72C310.82,294.73,289.42,282.12,289.42,282.12Z" transform="translate(-38.44 -150.36)"/><path class="cls-4" d="M461,274.54a12.11,12.11,0,0,0-12.31,8.91S435.6,337.8,428,368.08q13-10.27,25.74-19.4C463,364.18,473.27,377.58,485,389q0-21.52.82-45.69c23.06-22.77,44.11-42.25,61.83-58.78C517,279.11,461,274.54,461,274.54Z" transform="translate(-38.44 -150.36)"/><path class="cls-5" d="M461,274.54a12.11,12.11,0,0,0-12.31,8.91S435.6,337.8,428,368.08q13-10.27,25.74-19.4C463,364.18,473.27,377.58,485,389q0-21.52.82-45.69c23.06-22.77,44.11-42.25,61.83-58.78C517,279.11,461,274.54,461,274.54Z" transform="translate(-38.44 -150.36)"/><path class="cls-4" d="M122.71,291.41l10.17-4.06,17.66-7c5.11-2,4.81-4.13-.67-4.65L70.4,268.25c-5.48-.51-7.57,2.89-4.65,7.55l38.16,61.52,5.64,9.1a2.35,2.35,0,0,1,.32,1.63c-0.23.23-3.91,4.13-7.68,8.13L45.7,416.83c-3.7,4.07-2.54,5.77,2.59,3.78l122.09-48.48c5.08-2.11,6.54-7.43,3.23-11.83l-44.43-57.84-6.88-8.68C121.93,293.33,122.23,291.6,122.71,291.41Z" transform="translate(-38.44 -150.36)"/><path class="cls-5" d="M122.71,291.41l10.17-4.06,17.66-7c5.11-2,4.81-4.13-.67-4.65L70.4,268.25c-5.48-.51-7.57,2.89-4.65,7.55l38.16,61.52,5.64,9.1a2.35,2.35,0,0,1,.32,1.63c-0.23.23-3.91,4.13-7.68,8.13L45.7,416.83c-3.7,4.07-2.54,5.77,2.59,3.78l122.09-48.48c5.08-2.11,6.54-7.43,3.23-11.83l-44.43-57.84-6.88-8.68C121.93,293.33,122.23,291.6,122.71,291.41Z" transform="translate(-38.44 -150.36)"/><path class="cls-3" d="M243.35,433.29q2.58-5,1.08-12.94-1-5.39-3.84-8.13-7.31-7.23-15.94-8.64,3-2.87,4.11-3.93,2.88-2.73,2.62-4.13a1.4,1.4,0,0,0-.92-1q-1.47-.7-5.67,1.43-1.67.8-9.43,7.23a90.19,90.19,0,0,0-13.76,1.62q-16.51,3.11-28.7,16.32-9.94,11-10.62,19.59-0.61,9,0,12.48a19.56,19.56,0,0,0,5.93,10.89q4.12,3.84,8.92,2.93a6,6,0,0,0,2-.75,4.65,4.65,0,0,0,2.51-5.32q-0.46-2.46-4.41-2.81-7.4-.67-8.81-8.16a17.67,17.67,0,0,1-.29-3.46,26.89,26.89,0,0,1,3.87-14.19q4.35-7.12,15-14.23a38.6,38.6,0,0,1,14.72-6.17,32.31,32.31,0,0,1,6.81-.56,130.18,130.18,0,0,0-13.23,25.05q-4.85,11.59-10.36,28a195.59,195.59,0,0,1-7,18.9,38.19,38.19,0,0,1-9.94,12.91,14.64,14.64,0,0,1-6.53,3.29q-4.22.8-6.48-1.57a5.26,5.26,0,0,1-1.61-2.73q-0.64-3.4,4.6-8.39a7.37,7.37,0,0,0,2-7.18,8.2,8.2,0,0,0-3.77-5.54,9.07,9.07,0,0,0-6.86-1.31,10.8,10.8,0,0,0-5.93,3.3,17,17,0,0,0-4.55,15.78,22.2,22.2,0,0,0,7,12,21,21,0,0,0,10.16,5,28.43,28.43,0,0,0,11.45.27,38.12,38.12,0,0,0,12.53-4.3q8.82-5.3,15.65-18,2.92,6.49,11.43,10.46a17.38,17.38,0,0,0,10.74,1,33.39,33.39,0,0,0,15.51-7.78q7.31-6.23,9.13-14,2.62-10.56,1.18-18.17a20.89,20.89,0,0,0-3.21-8,23.88,23.88,0,0,0-6.73-6.13A32.85,32.85,0,0,0,243.35,433.29Zm-33.86,14q0.68,3.63,4,3a48.39,48.39,0,0,1,5.45-.06q3.07,0.87,5,6.58a14.76,14.76,0,0,1,.72,2.53,33.52,33.52,0,0,1-4.1,21.39q-4,6-8.42,6.8-4,.75-8.39-2.06a5.71,5.71,0,0,1-2.46-4,11.41,11.41,0,0,1,2-9.23q4.82-6.61,9.23-8.29,3.61-1.41,3.15-3.87t-3-2a8.89,8.89,0,0,0-1.83.59,45.69,45.69,0,0,0-6.07,3.81q2-8,4.37-25.08,1.59-12.79,4.46-18.18a71,71,0,0,1,4.14-7,37.1,37.1,0,0,1,3.87,1.21q5.77,2.31,7,9a12.24,12.24,0,0,1,.2,3q-0.72,12.27-8,14.61-3.71.94-7.43,1.76Q208.78,443.56,209.49,447.31Z" transform="translate(-38.44 -150.36)"/><path class="cls-3" d="M472.8,425q-0.46-2.46-2.1-2.15-1.05.2-2.32,2.5-1.91,3.39-2,3.53-5.29,6.7-8.33,7.27a1,1,0,0,1-1.16-1q-0.48-2.57,4.46-18.79,3.52-11.58,3-14.39a3.16,3.16,0,0,0-.8-1.67q-3.68-3.43-6.84-2.83a9.57,9.57,0,0,0-4.37,2.52q-2.39,2.15-4.65,4.27-3.54,3.09-10.42,12.27-2.92,3.82-6.27,8.58,2.71-6.21,2.9-8.43a16.43,16.43,0,0,0-1.55-8.2,9.51,9.51,0,0,0-3.45-3.83,9,9,0,0,0-4.78-1.89q-3.18-.13-9.33,14.86-5.6,11.17-9.76,19a14.39,14.39,0,0,0-1.31,1.11,43.41,43.41,0,0,0-4.94,6.93,41.34,41.34,0,0,1-6.77,7.83q-4.49,3.88-7.79,4.38-5.29.88-5.92-5.68A52.77,52.77,0,0,0,398,432.65q5.61-8.82,4.55-14.44a10,10,0,0,0-4.6-6.41,10.8,10.8,0,0,0-8.4-1.45q-7.5,1.41-15.73,10.48A80.73,80.73,0,0,0,362.9,436.1q-5,9-6.16,10.13-2,2.08-1.77,3.49a2.66,2.66,0,0,0,.26.71q-1.79,2.58-5,7.35a38.47,38.47,0,0,1-5.21,5.83q7.91-30.72,11.23-43.35a5.6,5.6,0,0,0-1.78-3.67q-1.5-1.54-3-3-3.47-3.59-5.57-3.2-3.4.64-5.92,13.61-0.77-4.1-14-1.61-6.44,1.22-14.22,11.41-1.75,2.27-8.63,13.39-4.86,8.32-6.82,12.08a2.24,2.24,0,0,0-.32,1.51,2,2,0,0,0,.34.76,9.25,9.25,0,0,1-1.38.77q-0.46-2.45-2-3,3.68-12.66,2.2-20.48a13.16,13.16,0,0,0-1.36-4q-4.21-7.55-12.18-6a20.59,20.59,0,0,0-8.27,3.73q-7.28,5.12-15.5,18.15-5.35,8.26-9.73,16.58a3.35,3.35,0,0,0-.52,2.39,2.1,2.1,0,0,0,2.78,1.89,1.61,1.61,0,0,0,1.08-.69,26.52,26.52,0,0,0,.4,6q1.24,6.56,5.48,9.76a12.4,12.4,0,0,0,10.22,2.08q12.65-2.38,20.39-17.91a7.71,7.71,0,0,0,4.47-.11,16.63,16.63,0,0,0,7.76-4.68,24.92,24.92,0,0,0,.47,5.91,11.29,11.29,0,0,0,2.41,5.73q3.46,3.59,10.49,2.27a26.22,26.22,0,0,0,10.6-4.91,16.46,16.46,0,0,1-.62,3.15q-6.31,3.86-8.85,5.79-6.58,5-13.06,9.86-6.63,6-6.07,12.18t5,8.69q4.47,2.49,11.5,1.17a40.87,40.87,0,0,0,9-2.91q12.85-5.82,21.6-40.46a89.69,89.69,0,0,0,17.52-18.36c0,0.61,0,1.33,0,2.19q0,2.78,2.64,6.29a15.21,15.21,0,0,0,7.51,5.74,13.91,13.91,0,0,0,7.1.36q12.53-2.36,25-19.15c4.21-5.7,6.28-9.46,6.28-11.33q3.23-4.79,8.47-14-5.13,17.83-6.42,22.56-0.05.37-2.08,5.73a10.53,10.53,0,0,0-.92,5.39q0.82,4.33,5,3.54,3.16-.6,6.81-4.38a29.58,29.58,0,0,0,5.71-8.29q2.06-4.51,7.83-14.45,5-8.71,6.88-11.42t3.84-3.09c0.55-.1.86,0,0.93,0.43a3,3,0,0,1-.2,1.49q-7.44,23.6-5.65,28.59t8.61,3.84a15.47,15.47,0,0,0,5.8-2.37q2.64-1.77,9.32-10.07a117.94,117.94,0,0,0,8.17-11Q473.2,427.08,472.8,425Zm-88.21,3.65q4.3-8.69,6.53-9.11,1.41-.27,1.76,1.61,0.79,4.22-2.11,8.77-4.88,7.59-6.75,7.94t-2-1.19Q381.52,434.17,384.6,428.62ZM284.9,454.93q-6.29.09-7.08,4.25a8,8,0,0,0,0,3.15,11.25,11.25,0,0,0,2.56,5.22q-1.67,7.23-5.42,7.93a4.17,4.17,0,0,1-1.71,0q-2.54-.61-3.11-3.66-0.82-4.33,3.2-16.49,5.2-16.14,9.89-17,3.16-.6,3.78,2.68Q287.81,445.28,284.9,454.93Zm32.35,46.54q-2.26,6.36-5.42,7-2.11.4-2.66-2.53a13.14,13.14,0,0,1,.6-5.82q2.09-6.94,11.81-13.26Q319.51,495.09,317.26,501.46ZM332.71,448q-3.94,11.9-8.86,12.83a6.42,6.42,0,0,1-2.06,0c-1.18-.26-1.84-0.75-2-1.45q-0.51-2.69,4.55-15.78,4.31-11.24,8.64-12.06a2.72,2.72,0,0,1,1.47.09,1.77,1.77,0,0,1,1.5,1.54Q336.6,436.45,332.71,448Z" transform="translate(-38.44 -150.36)"/><path class="cls-4" d="M243.35,424.9q2.58-5,1.08-12.94-1-5.39-3.84-8.13-7.31-7.23-15.94-8.64,3-2.86,4.11-3.93,2.88-2.73,2.62-4.13a1.4,1.4,0,0,0-.92-1q-1.47-.69-5.67,1.43-1.67.8-9.43,7.23a90.17,90.17,0,0,0-13.76,1.62q-16.51,3.11-28.7,16.32-9.94,11-10.62,19.59-0.61,9,0,12.48a19.58,19.58,0,0,0,5.93,10.89q4.12,3.83,8.92,2.93a6.1,6.1,0,0,0,2-.75,4.65,4.65,0,0,0,2.51-5.33q-0.46-2.46-4.41-2.81-7.4-.67-8.81-8.16a17.68,17.68,0,0,1-.29-3.46,26.9,26.9,0,0,1,3.87-14.2q4.36-7.12,15-14.23a38.6,38.6,0,0,1,14.72-6.17,32.33,32.33,0,0,1,6.81-.55A130.09,130.09,0,0,0,195.42,428q-4.85,11.59-10.36,28a196.14,196.14,0,0,1-7,18.9,38.21,38.21,0,0,1-9.94,12.91,14.67,14.67,0,0,1-6.53,3.29q-4.22.79-6.48-1.57a5.25,5.25,0,0,1-1.61-2.73q-0.64-3.4,4.6-8.39a7.37,7.37,0,0,0,2-7.18,8.2,8.2,0,0,0-3.77-5.53,9.06,9.06,0,0,0-6.86-1.31,10.78,10.78,0,0,0-5.93,3.3,17,17,0,0,0-4.55,15.78,22.2,22.2,0,0,0,7,12,21,21,0,0,0,10.16,5,28.42,28.42,0,0,0,11.45.27,38.13,38.13,0,0,0,12.53-4.3q8.82-5.3,15.65-18,2.92,6.48,11.43,10.46A17.39,17.39,0,0,0,218,490a33.38,33.38,0,0,0,15.51-7.78q7.31-6.23,9.13-14,2.62-10.56,1.18-18.17a20.89,20.89,0,0,0-3.21-8,23.83,23.83,0,0,0-6.73-6.13A32.83,32.83,0,0,0,243.35,424.9Zm-33.86,14q0.68,3.63,4,3a48.6,48.6,0,0,1,5.45-.06q3.07,0.88,5,6.58a14.79,14.79,0,0,1,.72,2.53,33.52,33.52,0,0,1-4.09,21.39q-4,6-8.42,6.8-4,.75-8.39-2.06a5.71,5.71,0,0,1-2.46-4,11.41,11.41,0,0,1,2-9.23q4.82-6.61,9.23-8.29,3.61-1.41,3.15-3.87t-3-2a8.82,8.82,0,0,0-1.83.59,45.59,45.59,0,0,0-6.07,3.81q2-8,4.37-25.08,1.59-12.79,4.46-18.18a70.63,70.63,0,0,1,4.14-7,37.11,37.11,0,0,1,3.87,1.21q5.77,2.31,7,9a12.22,12.22,0,0,1,.2,3q-0.72,12.27-8,14.61-3.71.94-7.43,1.76Q208.78,435.18,209.49,438.92Z" transform="translate(-38.44 -150.36)"/><path class="cls-4" d="M472.8,416.59q-0.46-2.46-2.1-2.15-1.05.2-2.32,2.5-1.91,3.39-2,3.53-5.29,6.7-8.33,7.27a1,1,0,0,1-1.16-1q-0.49-2.57,4.46-18.79,3.52-11.58,3-14.39a3.16,3.16,0,0,0-.8-1.67q-3.68-3.43-6.84-2.83a9.54,9.54,0,0,0-4.38,2.52q-2.39,2.15-4.65,4.27-3.54,3.09-10.42,12.27-2.92,3.82-6.27,8.58,2.71-6.21,2.9-8.43a16.46,16.46,0,0,0-1.54-8.2,9.51,9.51,0,0,0-3.45-3.84,9,9,0,0,0-4.78-1.89q-3.18-.13-9.33,14.86-5.6,11.17-9.76,19a14.55,14.55,0,0,0-1.31,1.11,43.46,43.46,0,0,0-4.94,6.93,41.32,41.32,0,0,1-6.77,7.82q-4.49,3.88-7.79,4.38-5.29.88-5.92-5.68A52.76,52.76,0,0,0,398,424.26q5.61-8.82,4.55-14.44a10,10,0,0,0-4.6-6.41,10.8,10.8,0,0,0-8.4-1.45q-7.5,1.41-15.73,10.48a80.62,80.62,0,0,0-10.89,15.27q-5,9-6.16,10.13-2,2.08-1.77,3.49a2.67,2.67,0,0,0,.26.71q-1.79,2.58-5,7.34a38.61,38.61,0,0,1-5.21,5.83q7.91-30.72,11.23-43.35,0.06-1.59-1.78-3.67-1.5-1.54-3-3-3.47-3.59-5.58-3.19-3.4.64-5.92,13.61-0.77-4.1-14-1.6-6.44,1.21-14.22,11.41-1.76,2.27-8.63,13.39-4.86,8.31-6.82,12.08a2.24,2.24,0,0,0-.32,1.51,2,2,0,0,0,.34.76,9.3,9.3,0,0,1-1.38.77q-0.46-2.45-2-3,3.68-12.66,2.2-20.48a13.19,13.19,0,0,0-1.36-4q-4.21-7.55-12.18-6a20.62,20.62,0,0,0-8.27,3.74q-7.28,5.12-15.5,18.15-5.35,8.26-9.73,16.58a3.36,3.36,0,0,0-.52,2.39,2.1,2.1,0,0,0,2.78,1.89,1.62,1.62,0,0,0,1.08-.69,26.47,26.47,0,0,0,.4,6q1.24,6.56,5.48,9.76a12.41,12.41,0,0,0,10.22,2.08q12.65-2.38,20.39-17.91a7.72,7.72,0,0,0,4.47-.11,16.65,16.65,0,0,0,7.76-4.67,24.9,24.9,0,0,0,.47,5.91,11.31,11.31,0,0,0,2.41,5.73q3.47,3.59,10.49,2.27a26.23,26.23,0,0,0,10.6-4.91,16.64,16.64,0,0,1-.62,3.15q-6.31,3.85-8.85,5.79-6.58,5-13.06,9.86-6.63,6-6.07,12.18t5,8.69q4.47,2.49,11.5,1.17a40.75,40.75,0,0,0,9-2.92q12.85-5.82,21.6-40.46a89.75,89.75,0,0,0,17.52-18.36c0,0.61,0,1.34,0,2.19q0,2.78,2.64,6.29a15.21,15.21,0,0,0,7.51,5.74,13.9,13.9,0,0,0,7.1.36q12.53-2.36,25-19.15c4.21-5.7,6.28-9.46,6.28-11.33q3.23-4.79,8.47-14-5.13,17.83-6.42,22.56-0.05.37-2.07,5.73a10.51,10.51,0,0,0-.93,5.39q0.82,4.33,5,3.54,3.16-.6,6.82-4.38a29.61,29.61,0,0,0,5.71-8.29q2.06-4.51,7.83-14.45,5-8.71,6.88-11.42t3.84-3.09c0.55-.1.86,0,0.93,0.43a3,3,0,0,1-.2,1.49Q437.23,437,439,442t8.61,3.84a15.42,15.42,0,0,0,5.8-2.37q2.64-1.77,9.32-10.06a118.12,118.12,0,0,0,8.17-11Q473.2,418.69,472.8,416.59Zm-88.21,3.65q4.3-8.69,6.53-9.11,1.4-.27,1.76,1.61,0.79,4.22-2.11,8.77-4.88,7.59-6.75,7.94t-2-1.19Q381.52,425.79,384.6,420.23ZM284.9,446.54q-6.29.1-7.08,4.25a8,8,0,0,0,0,3.16,11.24,11.24,0,0,0,2.56,5.22q-1.67,7.23-5.42,7.93a4.21,4.21,0,0,1-1.71,0q-2.54-.61-3.11-3.66-0.82-4.33,3.2-16.49,5.2-16.14,9.89-17,3.16-.6,3.78,2.68Q287.81,436.9,284.9,446.54Zm32.36,46.54q-2.26,6.36-5.42,7-2.11.4-2.66-2.53a13.13,13.13,0,0,1,.6-5.81q2.09-6.94,11.81-13.26Q319.51,486.71,317.26,493.08Zm15.45-53.49q-3.94,11.9-8.86,12.83a6.39,6.39,0,0,1-2.06,0q-1.77-.39-2-1.45-0.51-2.69,4.55-15.78Q328.67,424,333,423.16a2.73,2.73,0,0,1,1.47.09,1.77,1.77,0,0,1,1.5,1.54Q336.6,428.07,332.71,439.59Z" transform="translate(-38.44 -150.36)"/><path class="cls-3" d="M471.5,299.64L463,325.39l36.82-24.9A75.14,75.14,0,0,0,471.5,299.64Z" transform="translate(-38.44 -150.36)"/><path class="cls-6" d="M462.1,326.62l9-27.42,0.29-.05a68.19,68.19,0,0,1,11.78-1A75.47,75.47,0,0,1,500,300l1.08,0.28-39,26.35h0Zm9.78-26.54L464,324.15l34.66-23.44a77.54,77.54,0,0,0-15.43-1.55,67.44,67.44,0,0,0-11.31.92h0Z" transform="translate(-38.44 -150.36)"/><path class="cls-3" d="M176.42,298.62q-4.16,7.85-7.49,15.79a182.05,182.05,0,0,1,15.51,11,207.67,207.67,0,0,1,9.33-19.88Q185.44,301.78,176.42,298.62Z" transform="translate(-38.44 -150.36)"/><path class="cls-6" d="M184.65,326.17l-0.52-.41a182.2,182.2,0,0,0-15.47-10.92l-0.36-.23,0.16-.39c2.22-5.29,4.75-10.62,7.51-15.83l0.2-.38,0.41,0.14c5.92,2.06,11.77,4.38,17.39,6.87l0.49,0.22-0.25.47a208,208,0,0,0-9.31,19.83l-0.25.62h0Zm-15.1-12c5.12,3.25,10.06,6.73,14.67,10.34,2.59-6.32,5.56-12.65,8.85-18.84-5.31-2.35-10.83-4.53-16.41-6.49-2.6,4.94-5,10-7.11,15h0Z" transform="translate(-38.44 -150.36)"/></svg>