<svg xmlns="http://www.w3.org/2000/svg" width="168.5" height="181.688" viewBox="0 0 168.5 181.688">
  <defs>
    <style>
      .cls-1 {
        fill: #000000;
        fill-rule: evenodd;
      }
    </style>
  </defs>
  <path class="cls-1" d="M136.773,116.805c6.048-1.682.492-11.472-2.917-12.277-2.966-.7-5.615.327-6.253,2.684C126.146,112.588,131.4,115.676,136.773,116.805Zm59.191-3.069c-3.1-1.1-5.408.28-5.418,2.3C190.523,120.526,199.615,118.889,195.964,113.736Zm-67.945,1.535c1.484,2.215,1.941,5.374,4.586,6.522C131.637,119.1,130.326,116.729,128.019,115.271ZM55.906,135.988c5.362-5.836-8.367-5.958-2.917,0h2.917Zm147.145-.767c-1.514-.656-4-0.524-4.586.768C197.681,140.639,205.6,139.312,203.051,135.221Zm-76.7,7.289c-1.553,2.664-1.986,6.356-2.917,9.592,2.447-2.095,2.6-6.306,4.167-9.207C127.069,142.874,127.025,142.4,126.352,142.51ZM77.165,171.67c-0.544-.541-2.207-1.38-2.5,0C75.394,171.563,76.744,172.749,77.165,171.67ZM196.8,177.042c-2.3-.2-3.483.629-3.334,2.685C195.37,179.564,196.724,178.89,196.8,177.042ZM52.571,178.575c0.9,2.244,3.113,3.276,5.836,3.838C57.135,180.512,54.988,179.421,52.571,178.575Zm115.882,16.5a19.082,19.082,0,0,0-10.421,1.918C161.509,196.042,166.278,196.212,168.453,195.073Zm-2.084,37.983c1.5,1.558,3.732,2.446,6.669,2.685C172.011,233.743,168.418,234.111,166.369,233.056ZM45.9,234.591c-0.836.961,0.342,2.526,1.251,3.069C47.1,236.3,47.454,234.568,45.9,234.591Zm137.557,11.893c-3.713-.286-5.68,1.739-5,4.221C179.876,255.9,189.841,250.585,183.459,246.484Zm-125.052.383c0.2,1.208-1.279.869-.834,2.3C58.9,249.592,59.733,246.445,58.407,246.867Zm102.96,0.385v1.15c0.95,0.107,1.565-.092,1.668-0.767A2.873,2.873,0,0,0,161.367,247.252Zm-81.7,4.6c-0.067-.45.071-1.089-0.418-1.15-1.847,3.8-6.363,5.141-7.087,9.975C75.463,258.473,77.062,254.7,79.667,251.855Zm86.285,4.988a3.767,3.767,0,0,0,3.752-.384V254.54C167.95,253.335,165.205,253.755,165.952,256.843Zm29.178,5.371c0.611,0.845,1.105,1.8,2.917,1.535a2.762,2.762,0,0,0,1.252-3.07C197.671,259.494,195.239,259.973,195.13,262.214Zm-46.268,1.918q-0.291,1.8,1.666,1.536a2.341,2.341,0,0,0,.418-1.919C149.767,263.431,149.866,264.289,148.862,264.132ZM97.59,276.793c-0.4,1.142-1.691,2.007-2.084,3.069-0.814,2.207-.667,4.382-1.252,6.138,4.394-4.907,5.1-13.206,7.087-20.332-0.788.085-.918-0.433-1.666-0.385C97.05,267.519,98.887,273.1,97.59,276.793Zm-24.177,1.535A44.691,44.691,0,0,1,78,282.549c4.2,0.52,6.572.88,10-.384,0.725-3.169,3.925-4.06,5.835-6.138-2.466-2.335-3.737-5.77-5.835-8.441C79.605,264.336,70.945,269.3,73.413,278.328Zm52.522-1.919c1.221-.1,1.281.869,2.5,0.769,1.094-.656,2.091-1.4,1.667-3.453C128.137,271.609,124.064,273.821,125.935,276.409Zm-30.43,0c-0.269-.965,1.91-2.63,0-2.684C96.055,274.913,94.269,275.852,95.505,276.409ZM65.493,185.865a48.7,48.7,0,0,0-6.253-3.454C60.26,184.094,65.211,186.042,65.493,185.865ZM47.569,219.628c0.019-1.169-.88-1.492-1.252-2.3-1.555-.152-2.445.307-2.5,1.535,0.075,1.083,1.981.478,1.666,1.919C46.537,219.965,45.117,219.783,47.569,219.628Zm104.209,7.289c0.507-.118,1.438,1.109.417,1.151-1.587-.561-6.573-1.3-3.751-3.453,1.525-.232,1.939,2.535,3.334,1.151a2.809,2.809,0,0,1-2.082-1.919c1.052-.948,3.182-0.907,5-1.151-0.241-6.32,11.188-2.5,12.088-6.906,1.1-5.376-12.753-4.218-7.92-12.661a2.032,2.032,0,0,1-1.25-1.15c-3.128-.45-4.167,1.024-7.087.767-0.246-1.224.782-1.187,0-1.919-1.651.571-2.4,1.039-2.916-.766,0.652-1.446,3.885-.515,4.166-2.3-5.057,1-10.709,1.455-10-4.6,6.266-2.99,9.459-8.82,15.006-11.894,2.739-1.519,5.718-3.139,5.836-6.522-4.2-5.061-7.7,2.452-13.339,1.918-4.925,1.987-6.976,6.623-12.088,8.44,0.691-.682.6-2.81-0.834-2.684-2.064.289,0.213,3.063-.417,3.068-2.432-.235-1.023-2.779-1.667-4.22-0.914-2.048-3.2-3.238-1.667-6.522,0.969-.516,2.366-0.636,3.334-1.151-0.535-2.194,2.4-5.756-1.25-6.138-1.075.545-.624,2.493-2.084,2.685-2.522-5.464-.449-10.257-1.667-16.116-5.885-4.422-5.476,4.589-8.754,6.141,0-1.969.535-1.737,0.833-3.838-2.708.7-.1,6.3-3.334,6.523-1.133-2.538-1.427-5.849-5-6.139-1.273,3.165,2.419,5.151,2.086,7.675,4.519-1.813-.721,4.359-4.169,3.451-1.138-.361-0.792-2.085-2.918-1.535-0.355,2.945,1.319,8.253-3.752,6.906-8.854-8.219-16.267-17.765-19.176-31.459-4.1-2.56-2.668-17.687-9.17-18.418-5.247-.587-4.222,3.856-3.335,6.14,2.055,5.291,4.814,14.09,6.67,18.031,4.834,10.267,11.319,18.707,8.753,29.545-2.882,5.657-10.3,1.811-14.589-.385-3.549-1.821-4.852-2.765-5-6.14-7.107-1.526-10.22-8.737-17.508-8.823,4.491,10.062,16.508,13.2,23.759,20.719-0.035,2.47,1.157,5.833,0,8.056-3.065-1.527-6.783-2.453-9.586-4.22,2.193,3.095,7.5,3.322,10,6.137-8.509,5.439-22.95,2.222-30.846-1.533-0.3-1.042,1.966.273,1.668-.769-2.633-.894-2.968,1.453-5.837,1.919-0.064.45,0.072,1.089-.416,1.152,2.284,6.592,15.212,3.391,20.425,7.289a3.8,3.8,0,0,0-2.5.383c0.1,2.68.1,3.175,1.25,4.988-5.008,2.3-7.25,7.139-12.088,9.592,0.877,0.785,3.453-.823,4.167.767-1.719,2.976-6.113,5.262-7.087,7.673-3.463,1.546-7.814,2.271-10.42,4.6,6.244-1.248,15.791-4.535,19.59-8.058,2.319,0.552,4.929-.465,5.836,1.919a9.883,9.883,0,0,0-2.5-.767c-0.541.951,0.931,1.862,0,1.918-2.659-.007-1.5,1.851-2.917.383-0.934,2.361,3.713,2.652,5.419,3.837-1.253.636-3.4,0.453-3.751,1.918,3.677-.448,10.244-2.612,15.84-4.221,3.226-.927,8.56-2.615,9.172,1.536,0.465,3.163-3.444,2.971-4.586,5.755,1.494,1.163,2.674-2.316,4.168-1.151-0.68,4.745-4.858,8.24-8.753,11.127-5.622,4.164-12.992,8.3-11.254,15.728a12.049,12.049,0,0,0,6.669.385c2.6-3.547,7.147-6.527,10.421-10.358,2.576-3.017,3.819-7.418,7.919-7.291-0.891,1.355-2.231,2.3-2.5,4.221,3.82-.48,4.132-7.429,8.337-8.825,1.136,3.409-3.891,4.3-3.751,8.057,4.077-1.235,3.659-6.608,7.5-8.057,1.981,2.652,4.72,4.606,6.252,7.674-0.668,4.89-.864,9.92-1.25,14.963,2.925-2.424.252-10,3.751-11.895-0.193,3.376-.325,6.694,3.335,6.525,2.5-.645,1.9-4.137,2.5-6.525,2.027-1.244,3.783-1.393,6.254-1.535,1.061-2.028,1.7-5.39,4.167-4.987,0.249-2.4-.351-3.189,1.251-4.22,3.816,0.323,4.994,3.077,6.669,5.372,5.772,2.361,8.842,7.207,12.922,11.124,1.088,3.349,2.463,6.431,5.837,7.675-0.946-6.131-5.1-9.432-4.168-15.346-0.851-.879-2.766-0.782-3.753-1.535-0.556-5.472-9.019-15.58-1.25-17.264,4.757-1.032,4.748,1.948,8.336,2.685a3.335,3.335,0,0,0,1.667-1.535c2.81,0.61,4.49,2.263,7.921,2.3C155.486,228.614,153.561,226.183,151.778,226.917Zm-90.037.383a3.513,3.513,0,0,1,.834-4.6c2.568,2.083,6-.883,8.337,0C69.653,225.887,64.655,225.633,61.741,227.3Zm2.918-8.44c0.42-.891,1.435-1.236,2.918-1.151C66.825,218.3,66.3,219.091,64.659,218.86Zm5.419-4.22c0.052,0.847,1.769.163,2.5,0.382-1.451,1.735-4.921,1.611-7.5,2.3a13.46,13.46,0,0,1-.834-2.684c2-1.413,6.929-4.778,9.588-1.919A4.55,4.55,0,0,1,70.078,214.64Zm0.418-4.988c-1.457-1.6-2.689-3.408-5.42-3.837-0.43-6.428,8.084-5.045,7.919.383,0.685,0.906,2.147,1.093,2.92,1.919C75.4,209.818,71.322,208.238,70.5,209.652Zm-5,31.076a14.831,14.831,0,0,0-6.253,3.837C61.486,245.367,65.425,240.653,65.493,240.728ZM80.5,250.32c1.487-.42,1.63-2.081,2.5-3.068C81.512,247.672,81.371,249.333,80.5,250.32Z" transform="translate(-35.063 -104.312)"/>
</svg>
