<svg id="Layer_1" data-name="Layer 1" xmlns="http://www.w3.org/2000/svg" viewBox="0 0 13.33 11.06"><defs></defs><title>materialikon-uden-kvadrat-lydbog_v2</title><path  d="M6.68,11a0.42,0.42,0,0,1-.33-0.15,4.54,4.54,0,0,0-3-1.29,3.37,3.37,0,0,0-2.6,1A0.42,0.42,0,0,1,0,10.36V1.6A0.42,0.42,0,0,1,.09,1.34,4.21,4.21,0,0,1,3.34,0,5.58,5.58,0,0,1,6.68,1.27,5.58,5.58,0,0,1,10,0a4.21,4.21,0,0,1,3.24,1.34,0.42,0.42,0,0,1,.09.26v8.76a0.42,0.42,0,0,1-.28.39,0.43,0.43,0,0,1-.47-0.13,3.36,3.36,0,0,0-2.6-1,4.54,4.54,0,0,0-3,1.29,0.42,0.42,0,0,1-.32.15h0ZM3.34,8.76A5.59,5.59,0,0,1,6.68,10,5.59,5.59,0,0,1,10,8.76a4.69,4.69,0,0,1,2.5.69V1.76A3.47,3.47,0,0,0,10,.83,4.53,4.53,0,0,0,7,2.12a0.42,0.42,0,0,1-.59.06L6.35,2.12a4.54,4.54,0,0,0-3-1.29,3.47,3.47,0,0,0-2.5.92v7.7a4.69,4.69,0,0,1,2.5-.69" transform="translate(0 0)"/><path  d="M5.57,5.84H5.26V8H5.57a0.16,0.16,0,0,0,.16-0.16V6A0.16,0.16,0,0,0,5.57,5.84Z" transform="translate(0 0)"/><path  d="M7.78,5.84A0.16,0.16,0,0,0,7.62,6h0V7.89A0.16,0.16,0,0,0,7.78,8H8.1V5.84H7.78Z" transform="translate(0 0)"/><path  d="M9.2,5.52a2.53,2.53,0,1,0-4.9.86A1.11,1.11,0,0,0,5.1,8V5.85A1.1,1.1,0,0,0,4.66,6a2,2,0,1,1,4,0,1.1,1.1,0,0,0-.43-0.16V8A1.11,1.11,0,0,0,9,6.35,2.52,2.52,0,0,0,9.2,5.52Z" transform="translate(0 0)"/></svg>
