<?xml version="1.0" encoding="utf-8"?>
<!-- Generator: Adobe Illustrator 16.0.0, SVG Export Plug-In . SVG Version: 6.00 Build 0)  -->
<!DOCTYPE svg PUBLIC "-//W3C//DTD SVG 1.1//EN" "http://www.w3.org/Graphics/SVG/1.1/DTD/svg11.dtd">
<svg version="1.1" id="Layer_1" xmlns="http://www.w3.org/2000/svg" xmlns:xlink="http://www.w3.org/1999/xlink" x="0px" y="0px"
	 width="19.977px" height="19.977px" viewBox="0 0 19.977 19.977" enable-background="new 0 0 19.977 19.977" xml:space="preserve">
<g>
	<rect x="0.25" y="0.25" fill="#FFFFFF" width="19.477" height="19.477"/>
	<path fill="#E6E6E6" d="M19.477,0.5v18.977H0.5V0.5H19.477 M19.977,0H0v19.977h19.977V0L19.977,0z"/>
</g>
<g>
	<polygon points="8.14,7.096 12.781,9.881 8.14,12.666 	"/>
	<path d="M9.996,16.131c-0.143,0-0.275-0.062-0.364-0.17c-0.544-0.678-2.095-1.436-3.349-1.436
		c-1.215,0-2.322,0.441-2.89,1.143c-0.124,0.156-0.333,0.213-0.517,0.148c-0.188-0.068-0.31-0.242-0.31-0.439V5.629
		c0-0.104,0.036-0.211,0.104-0.292C3.41,4.419,4.794,3.85,6.283,3.85c1.352,0,2.87,0.672,3.713,1.41
		c0.84-0.737,2.361-1.412,3.713-1.412c1.486,0,2.871,0.57,3.609,1.487c0.069,0.081,0.105,0.186,0.105,0.292v9.75
		c0,0.197-0.123,0.371-0.311,0.439c-0.188,0.061-0.393,0-0.516-0.15c-0.569-0.699-1.676-1.141-2.891-1.141
		c-1.256,0-2.807,0.758-3.351,1.436c-0.092,0.107-0.224,0.17-0.364,0.17H9.996z M6.283,13.596c1.352,0,2.87,0.678,3.713,1.412
		c0.84-0.734,2.361-1.412,3.711-1.412c1.045,0,2.033,0.277,2.786,0.762V5.8c-0.591-0.634-1.644-1.024-2.784-1.024
		c-1.258,0-2.809,0.755-3.353,1.437c-0.09,0.108-0.224,0.169-0.364,0.169c-0.139,0-0.271-0.062-0.36-0.169
		C9.086,5.531,7.537,4.776,6.279,4.776c-1.143,0-2.192,0.392-2.785,1.026v8.558C4.25,13.875,5.239,13.596,6.283,13.596"/>
</g>
</svg>
