<?xml version="1.0" encoding="utf-8"?>
<!-- Generator: Adobe Illustrator 16.0.0, SVG Export Plug-In . SVG Version: 6.00 Build 0)  -->
<!DOCTYPE svg PUBLIC "-//W3C//DTD SVG 1.1//EN" "http://www.w3.org/Graphics/SVG/1.1/DTD/svg11.dtd">
<svg version="1.1" id="Layer_1" xmlns="http://www.w3.org/2000/svg" xmlns:xlink="http://www.w3.org/1999/xlink" x="0px" y="0px"
	 width="19.977px" height="19.977px" viewBox="0 0 19.977 19.977" enable-background="new 0 0 19.977 19.977" xml:space="preserve">
<g>
	<rect x="0.25" y="0.25" fill="#FFFFFF" width="19.477" height="19.477"/>
	<path fill="#E6E6E6" d="M19.477,0.5v18.977H0.5V0.5H19.477 M19.977,0H0v19.977h19.977V0L19.977,0z"/>
</g>
<g>
	<path d="M17.307,5.72c-0.739-0.921-2.125-1.491-3.608-1.491c-1.486,0-2.866,0.573-3.608,1.491
		C10.025,5.8,9.987,5.905,9.987,6.008c0-0.105-0.035-0.208-0.104-0.288c-0.74-0.921-2.123-1.491-3.608-1.491
		c-1.484,0-2.867,0.573-3.608,1.491C2.602,5.8,2.566,5.903,2.566,6.008v9.278c0,0.192,0.123,0.372,0.308,0.436
		c0.188,0.064,0.394,0.007,0.519-0.144c0.566-0.709,1.672-1.143,2.885-1.143c1.212,0,2.319,0.434,2.884,1.143
		c0.094,0.11,0.227,0.17,0.362,0.17h0.929c0.134,0,0.271-0.06,0.359-0.17c0.568-0.709,1.673-1.143,2.888-1.143
		c1.21,0,2.317,0.434,2.884,1.143c0.126,0.15,0.334,0.208,0.518,0.144c0.187-0.063,0.309-0.243,0.309-0.436V6.008
		C17.408,5.903,17.376,5.8,17.307,5.72L17.307,5.72z M9.061,14.268c-0.756-0.486-1.744-0.763-2.785-0.763
		c-1.041,0-2.031,0.276-2.784,0.763V6.181c0.593-0.635,1.643-1.023,2.784-1.023c1.142,0,2.189,0.388,2.785,1.023V14.268z
		 M16.481,14.268c-0.756-0.486-1.742-0.763-2.785-0.763c-1.039,0-2.028,0.276-2.782,0.763V6.181
		c0.595-0.635,1.641-1.023,2.784-1.023c1.143,0,2.19,0.388,2.783,1.023V14.268L16.481,14.268z"/>
	<rect x="11.844" y="7.013" width="3.712" height="0.927"/>
	<rect x="11.844" y="8.865" width="3.712" height="0.931"/>
	<rect x="11.844" y="10.723" width="2.785" height="0.929"/>
	<rect x="4.423" y="7.013" width="3.711" height="0.927"/>
	<rect x="4.423" y="8.865" width="3.711" height="0.931"/>
	<rect x="4.423" y="10.723" width="2.783" height="0.929"/>
</g>
</svg>
