<?xml version="1.0" encoding="utf-8"?>
<!-- Generator: Adobe Illustrator 16.0.0, SVG Export Plug-In . SVG Version: 6.00 Build 0)  -->
<!DOCTYPE svg PUBLIC "-//W3C//DTD SVG 1.1//EN" "http://www.w3.org/Graphics/SVG/1.1/DTD/svg11.dtd">
<svg version="1.1" id="Layer_1" xmlns="http://www.w3.org/2000/svg" xmlns:xlink="http://www.w3.org/1999/xlink" x="0px" y="0px"
	 width="19.977px" height="19.977px" viewBox="0 0 19.977 19.977" enable-background="new 0 0 19.977 19.977" xml:space="preserve">
<g>
	<rect x="0.25" y="0.25" fill="#FFFFFF" width="19.477" height="19.477"/>
	<path fill="#E6E6E6" d="M19.477,0.5v18.977H0.5V0.5H19.477 M19.977,0H0v19.977h19.977V0L19.977,0z"/>
</g>
<g>
	<path fill="#4740B7" d="M10.297,10.277c-1.739,0-3.401,0.779-4.477,3.908c-1.073,3.129,1.297,2.877,2.791,2.232
		c1.451-0.627,1.998-0.723,3.744,0.109c1.641,0.781,3.043-0.039,2.455-1.744C14.226,13.07,12.255,10.275,10.297,10.277
		L10.297,10.277z M7.008,3.228C6.018,3.467,5.495,4.812,5.84,6.234c0.345,1.424,1.425,2.386,2.416,2.151
		c0.003,0,0.01-0.004,0.013-0.004C9.26,8.142,9.782,6.797,9.438,5.375C9.291,4.763,9.006,4.233,8.651,3.852
		c-0.47-0.508-1.065-0.76-1.629-0.627C7.018,3.225,7.012,3.225,7.008,3.228 M12.744,3.18c-0.997-0.211-2.043,0.785-2.343,2.218
		c-0.171,0.825-0.055,1.616,0.264,2.18c0.237,0.413,0.582,0.707,1.006,0.793c0.003,0.002,0.006,0.002,0.012,0.003
		c0.997,0.208,2.044-0.786,2.341-2.218c0.299-1.436-0.269-2.766-1.268-2.975C12.756,3.182,12.752,3.18,12.744,3.18 M3.172,10.578
		c0.549,1.268,1.702,1.988,2.578,1.607c0.501-0.215,0.803-0.748,0.87-1.395c0.046-0.484-0.042-1.043-0.275-1.582
		c0-0.002,0-0.002,0-0.002C5.795,7.938,4.643,7.218,3.766,7.598C2.89,7.977,2.625,9.311,3.172,10.578L3.172,10.578 M14.221,11.963
		c0.499,0.219,1.09,0.08,1.607-0.312c0.389-0.299,0.737-0.74,0.973-1.285c0.551-1.264,0.288-2.598-0.584-2.982
		c-0.005,0-0.009-0.003-0.012-0.005c-0.878-0.386-2.029,0.331-2.583,1.598c-0.551,1.265-0.289,2.601,0.584,2.982
		C14.212,11.961,14.218,11.963,14.221,11.963"/>
</g>
</svg>
