<svg id="Layer_1" data-name="Layer 1" xmlns="http://www.w3.org/2000/svg" viewBox="0 0 13.43 10.42"><defs></defs><title>materialikon-uden-kvadrat-bog_test</title><path  d="M13.34,1.35A4.24,4.24,0,0,0,10.07,0,4.24,4.24,0,0,0,6.81,1.35a0.42,0.42,0,0,0-.09.26,0.42,0.42,0,0,0-.09-0.26A4.24,4.24,0,0,0,3.36,0,4.24,4.24,0,0,0,.09,1.35,0.43,0.43,0,0,0,0,1.61V10a0.42,0.42,0,0,0,.28.39,0.42,0.42,0,0,0,.47-0.13,3.39,3.39,0,0,1,2.61-1,3.38,3.38,0,0,1,2.61,1,0.43,0.43,0,0,0,.33.16H7.14a0.42,0.42,0,0,0,.33-0.16,3.39,3.39,0,0,1,2.61-1,3.38,3.38,0,0,1,2.61,1A0.42,0.42,0,0,0,13.43,10V1.61a0.42,0.42,0,0,0-.09-0.26h0ZM5.88,9.08a4.72,4.72,0,0,0-2.52-.69,4.72,4.72,0,0,0-2.52.69V1.77A3.5,3.5,0,0,1,3.36.84a3.5,3.5,0,0,1,2.52.93V9.08Zm6.71,0a4.72,4.72,0,0,0-2.52-.69,4.71,4.71,0,0,0-2.52.69V1.77A3.5,3.5,0,0,1,10.07.84a3.5,3.5,0,0,1,2.52.93V9.08h0Z"/><rect  x="8.39" y="2.52" width="3.36" height="0.84"/><rect  x="8.39" y="4.2" width="3.36" height="0.84"/><rect  x="8.39" y="5.88" width="2.52" height="0.84"/><rect  x="1.68" y="2.52" width="3.36" height="0.84"/><rect  x="1.68" y="4.2" width="3.36" height="0.84"/><rect x="1.68" y="5.88" width="2.52" height="0.84"/></svg>
