<?xml version="1.0" encoding="utf-8"?>
<!-- Generator: Adobe Illustrator 16.0.0, SVG Export Plug-In . SVG Version: 6.00 Build 0)  -->
<!DOCTYPE svg PUBLIC "-//W3C//DTD SVG 1.1//EN" "http://www.w3.org/Graphics/SVG/1.1/DTD/svg11.dtd">
<svg version="1.1" id="Layer_1" xmlns="http://www.w3.org/2000/svg" xmlns:xlink="http://www.w3.org/1999/xlink" x="0px" y="0px"
	 width="19.977px" height="19.977px" viewBox="0 0 19.977 19.977" enable-background="new 0 0 19.977 19.977" xml:space="preserve">
<g>
	<path d="M5.88,4.858H3.106c-0.253,0-0.462,0.208-0.462,0.462v10.17c0,0.254,0.209,0.461,0.462,0.461H5.88
		c0.253,0,0.462-0.205,0.462-0.461V5.32C6.342,5.066,6.134,4.858,5.88,4.858 M5.418,7.631H3.569V6.71h1.849V7.631z"/>
	<path d="M10.503,4.858H7.729c-0.253,0-0.462,0.208-0.462,0.462v10.17c0,0.254,0.208,0.461,0.462,0.461h2.774
		c0.253,0,0.462-0.205,0.462-0.461V5.32C10.965,5.066,10.756,4.858,10.503,4.858 M10.042,7.631H8.191V6.71h1.849L10.042,7.631
		L10.042,7.631z"/>
	<path d="M13.695,5.573l-2.477,1.248c-0.227,0.115-0.318,0.392-0.202,0.622l4.157,8.252
		c0.116,0.229,0.397,0.32,0.623,0.205l2.479-1.246c0.223-0.113,0.314-0.398,0.202-0.623l-4.16-8.252
		C14.201,5.549,13.924,5.46,13.695,5.573"/>
</g>
</svg>
