<?xml version="1.0" encoding="utf-8"?>
<!-- Generator: Adobe Illustrator 16.0.0, SVG Export Plug-In . SVG Version: 6.00 Build 0)  -->
<!DOCTYPE svg PUBLIC "-//W3C//DTD SVG 1.1//EN" "http://www.w3.org/Graphics/SVG/1.1/DTD/svg11.dtd">
<svg version="1.1" id="Layer_1" xmlns="http://www.w3.org/2000/svg" xmlns:xlink="http://www.w3.org/1999/xlink" x="0px" y="0px"
	 width="19.977px" height="19.977px" viewBox="0 0 19.977 19.977" enable-background="new 0 0 19.977 19.977" xml:space="preserve">
<g>
	<rect x="0.25" y="0.25" fill="#FFFFFF" width="19.477" height="19.477"/>
	<path fill="#E6E6E6" d="M19.477,0.5v18.977H0.5V0.5H19.477 M19.977,0H0v19.977h19.977V0L19.977,0z"/>
</g>
<g>
	<path fill="#4740B7" d="M2.895,15.287h14.135V4.689H2.895V15.287z M5.547,14.407H3.779v-1.767h1.765v1.767H5.547z M5.547,10.872
		H3.779V9.107h1.765v1.765H5.547z M5.547,7.339H3.779V5.572h1.765v1.767H5.547z M13.495,14.407H6.43V5.572h7.065V14.407
		L13.495,14.407z M16.148,14.407H14.38v-1.767h1.769V14.407z M16.148,10.872H14.38V9.107h1.769V10.872z M16.148,7.339H14.38V5.572
		h1.769V7.339z M8.197,7.339v5.302l3.532-2.652L8.197,7.339z"/>
</g>
</svg>
