<?xml version="1.0" encoding="utf-8"?>
<!-- Generator: Adobe Illustrator 16.0.0, SVG Export Plug-In . SVG Version: 6.00 Build 0)  -->
<!DOCTYPE svg PUBLIC "-//W3C//DTD SVG 1.1//EN" "http://www.w3.org/Graphics/SVG/1.1/DTD/svg11.dtd">
<svg version="1.1" id="Layer_1" xmlns="http://www.w3.org/2000/svg" xmlns:xlink="http://www.w3.org/1999/xlink" x="0px" y="0px"
	 width="19.977px" height="19.977px" viewBox="0 0 19.977 19.977" enable-background="new 0 0 19.977 19.977" xml:space="preserve">
<g>
	<rect x="0.25" y="0.25" fill="#FFFFFF" width="19.477" height="19.477"/>
	<path fill="#E6E6E6" d="M19.477,0.5v18.977H0.5V0.5H19.477 M19.977,0H0v19.977h19.977V0L19.977,0z"/>
</g>
<g>
	<path fill="#4740B7" d="M7.152,7.151H6.207v0.947H5.262v0.945h0.945v0.945h0.945V9.043h0.945V8.098H7.152V7.151z M11.879,7.86
		c0-0.392,0.315-0.709,0.709-0.709c0.389,0,0.71,0.319,0.71,0.709c0,0.391-0.321,0.71-0.71,0.71
		C12.197,8.57,11.879,8.252,11.879,7.86 M13.298,9.279c0-0.391,0.316-0.709,0.708-0.709c0.39,0,0.707,0.318,0.707,0.709
		c0,0.393-0.317,0.709-0.707,0.709C13.614,9.988,13.298,9.672,13.298,9.279 M13.346,4.964c-1.716,0-1.984,1.017-3.359,1.017
		c-1.376,0-1.641-1.017-3.358-1.017c-2.768,0-4.202,3.39-4.202,5.813c0,2.293,0.212,3.963,1.072,4.197
		c0.859,0.232,1.953-0.691,3.018-1.695c1.065-1.006,1.247-0.939,2.106-0.939l1.367,0.031l1.366-0.031
		c0.855,0,1.036-0.066,2.104,0.939c1.065,1.004,2.16,1.928,3.017,1.697c0.859-0.236,1.074-1.906,1.074-4.199
		C17.55,8.354,16.115,4.964,13.346,4.964 M6.679,10.934c-1.306,0-2.365-1.059-2.365-2.364c0-1.307,1.059-2.365,2.365-2.365
		c1.306,0,2.365,1.059,2.365,2.365C9.044,9.875,7.984,10.934,6.679,10.934 M13.298,10.934c-1.308,0-2.365-1.059-2.365-2.364
		c0-1.307,1.058-2.365,2.365-2.365c1.303,0,2.362,1.059,2.362,2.365C15.66,9.875,14.601,10.934,13.298,10.934"/>
</g>
</svg>
