<svg id="Layer_1" data-name="Layer 1" xmlns="http://www.w3.org/2000/svg" viewBox="0 0 13.53 8.99"><defs></defs><title>materialikon-uden-kvadrat-spil_v2</title><path  d="M4.23,2H3.38V2.8H2.54V3.65H3.38V4.49H4.23V3.65H5.07V2.8H4.23V2ZM8.45,2.59a0.63,0.63,0,1,1,.63.63,0.63,0.63,0,0,1-.63-0.63M9.72,3.86a0.63,0.63,0,1,1,.64.63,0.63,0.63,0,0,1-.64-0.63M9.77,0C8.23,0,8,.91,6.77.91S5.3,0,3.76,0C1.28,0,0,3,0,5.2S0.19,8.75,1,9s1.74-.62,2.7-1.52A2,2,0,0,1,5.54,6.6l1.22,0L8,6.6a2,2,0,0,1,1.88.84c1,0.9,1.93,1.73,2.7,1.52s1-1.7,1-3.76S12.24,0,9.77,0m-6,5.34A2.11,2.11,0,1,1,5.92,3.23,2.11,2.11,0,0,1,3.81,5.34m5.92,0a2.11,2.11,0,1,1,2.11-2.11A2.11,2.11,0,0,1,9.72,5.34"/></svg>
