<?xml version="1.0" encoding="utf-8"?>
<!-- Generator: Adobe Illustrator 16.0.0, SVG Export Plug-In . SVG Version: 6.00 Build 0)  -->
<!DOCTYPE svg PUBLIC "-//W3C//DTD SVG 1.1//EN" "http://www.w3.org/Graphics/SVG/1.1/DTD/svg11.dtd">
<svg version="1.1" id="Layer_1" xmlns="http://www.w3.org/2000/svg" xmlns:xlink="http://www.w3.org/1999/xlink" x="0px" y="0px"
	 width="19.977px" height="19.977px" viewBox="0 0 19.977 19.977" enable-background="new 0 0 19.977 19.977" xml:space="preserve">
<g>
	<rect x="0.25" y="0.25" fill="#FFFFFF" width="19.477" height="19.477"/>
	<path fill="#E6E6E6" d="M19.477,0.5v18.977H0.5V0.5H19.477 M19.977,0H0v19.977h19.977V0L19.977,0z"/>
</g>
<g>
	<path fill="#4740B7" d="M10.664,12.274v-0.136c0.967-0.371,1.674-1.523,1.674-2.889c0-1.664-1.05-3.012-2.341-3.012
		c-1.296,0-2.343,1.351-2.343,3.012c0,1.365,0.708,2.518,1.675,2.889v0.136c-2.274,0.096-4.018,0.654-4.018,1.326v1.34h9.369v-1.34
		C14.68,12.929,12.933,12.37,10.664,12.274"/>
	<path fill="#4740B7" d="M14.68,9.593V9.539c0.763-0.216,1.339-1.163,1.339-2.293c0.001-1.294-0.749-2.343-1.673-2.343
		c-0.927,0-1.674,1.049-1.674,2.343c0,1.13,0.574,2.077,1.337,2.293v0.054c-0.33,0.013-0.648,0.041-0.938,0.087
		c-0.065,0.714-0.294,1.375-0.646,1.915h4.933v-1.007C17.36,10.072,16.184,9.647,14.68,9.593L14.68,9.593z"/>
	<path fill="#4740B7" d="M6.918,9.68C6.63,9.634,6.312,9.605,5.978,9.593V9.541c0.763-0.217,1.339-1.162,1.339-2.295
		c0-1.293-0.749-2.343-1.672-2.343c-0.924,0-1.676,1.049-1.676,2.343c0,1.133,0.576,2.078,1.339,2.295v0.052
		c-1.504,0.056-2.675,0.482-2.675,0.998v1.004h4.933C7.214,11.055,6.985,10.394,6.918,9.68L6.918,9.68z"/>
</g>
</svg>
