<svg xmlns="http://www.w3.org/2000/svg" viewBox="0 0 13.67 9.55">
    <path d="M2.79,0H.4A.4.4,0,0,0,0,.4V9.15a.4.4,0,0,0,.4.4H2.79a.4.4,0,0,0,.4-.4V.4a.4.4,0,0,0-.4-.4m-.4,2.39H.8v-.8H2.39Z"/>
    <path d="M6.76,0H4.38A.4.4,0,0,0,4,.4V9.15a.4.4,0,0,0,.4.4H6.76a.4.4,0,0,0,.4-.4V.4a.4.4,0,0,0-.4-.4m-.4,2.39H4.77v-.8H6.37v.8Z"/>
    <path d="M9.51.62,7.38,1.69a.4.4,0,0,0-.18.53l3.58,7.11a.4.4,0,0,0,.53.18l2.13-1.07a.4.4,0,0,0,.18-.53L10,.79A.4.4,0,0,0,9.51.62"/>
    <path d="M11.54,9.15a.4.4,0,1,1-.4-.4.4.4,0,0,1,.4.4"/>
</svg>
