<?xml version="1.0" encoding="utf-8"?>
<!-- Generator: Adobe Illustrator 16.0.0, SVG Export Plug-In . SVG Version: 6.00 Build 0)  -->
<!DOCTYPE svg PUBLIC "-//W3C//DTD SVG 1.1//EN" "http://www.w3.org/Graphics/SVG/1.1/DTD/svg11.dtd">
<svg version="1.1" id="Layer_1" xmlns="http://www.w3.org/2000/svg" xmlns:xlink="http://www.w3.org/1999/xlink" x="0px" y="0px"
	 width="19.977px" height="19.977px" viewBox="0 0 19.977 19.977" enable-background="new 0 0 19.977 19.977" xml:space="preserve">
<g>
	<rect x="0.25" y="0.25" fill="#FFFFFF" width="19.477" height="19.477"/>
	<path fill="#E6E6E6" d="M19.477,0.5v18.977H0.5V0.5H19.477 M19.977,0H0v19.977h19.977V0L19.977,0z"/>
</g>
<path fill="#4740B7" d="M15.43,3.17L7.756,4.876v8.309c-0.541-0.393-1.297-0.639-2.129-0.639c-1.65,0-2.983,0.953-2.983,2.13
	c0,1.179,1.333,2.13,2.983,2.13c1.646,0,2.983-0.955,2.983-2.13V9.172l6.819-1.516v3.823c-0.542-0.395-1.3-0.641-2.133-0.641
	c-1.649,0-2.982,0.955-2.982,2.132c0,1.175,1.336,2.13,2.982,2.13s2.982-0.955,2.982-2.13v-9.8H15.43L15.43,3.17z M15.43,6.566
	L8.61,8.078V6.392l6.819-1.516V6.566z"/>
</svg>
