<?xml version="1.0" encoding="utf-8"?>
<!-- Generator: Adobe Illustrator 19.2.1, SVG Export Plug-In . SVG Version: 6.00 Build 0)  -->
<svg version="1.1" id="Layer_1" xmlns="http://www.w3.org/2000/svg" xmlns:xlink="http://www.w3.org/1999/xlink" x="0px" y="0px"
	 viewBox="0 0 13.5 13.5" style="enable-background:new 0 0 13.5 13.5;" xml:space="preserve">
<style type="text/css">
	.st0{display:none;fill:#938EE9;}
	.st1{fill:#938EE9;}
</style>
<title>materialikon-uden-kvadrat-other</title>
<path class="st0" d="M12.7,0L5.1,1.7v8.2C4.5,9.5,3.7,9.3,3,9.3c-1.6,0-3,0.9-3,2.1s1.3,2.1,3,2.1s3-0.9,3-2.1V5.9l6.8-1.5v3.8
	c-0.6-0.4-1.4-0.6-2.1-0.6c-1.6,0-3,0.9-3,2.1s1.3,2.1,3,2.1s3-0.9,3-2.1V0H12.7z M12.7,3.4L5.9,4.9V3.2l6.8-1.5V3.4z"/>
<g transform="translate(736 1120)">
	<path class="st1" d="M-736-1120h5.9v5.9h-5.9V-1120z M-728.4-1120h5.9v5.9h-5.9V-1120z M-736-1112.4h5.9v5.9h-5.9V-1112.4z
		 M-728.4-1112.4h5.9v5.9h-5.9V-1112.4z"/>
</g>
</svg>
