<?xml version="1.0" encoding="utf-8"?>
<!-- Generator: Adobe Illustrator 16.0.0, SVG Export Plug-In . SVG Version: 6.00 Build 0)  -->
<!DOCTYPE svg PUBLIC "-//W3C//DTD SVG 1.1//EN" "http://www.w3.org/Graphics/SVG/1.1/DTD/svg11.dtd">
<svg version="1.1" id="Layer_1" xmlns="http://www.w3.org/2000/svg" xmlns:xlink="http://www.w3.org/1999/xlink" x="0px" y="0px"
	 width="19.977px" height="19.977px" viewBox="0 0 19.977 19.977" enable-background="new 0 0 19.977 19.977" xml:space="preserve">
<g>
	<rect x="0.25" y="0.25" fill="#FFFFFF" width="19.477" height="19.477"/>
	<path fill="#E6E6E6" d="M19.477,0.5v18.977H0.5V0.5H19.477 M19.977,0H0v19.977h19.977V0L19.977,0z"/>
</g>
<g>
	<path fill="#4740B7" d="M7.106,10.874c0,1.592,1.291,2.883,2.884,2.883c1.592,0,2.88-1.291,2.88-2.883
		c0-1.591-1.288-2.882-2.88-2.882C8.397,7.995,7.106,9.284,7.106,10.874 M16.193,5.997h-3.103C12.87,5.11,12.65,4.224,11.76,4.224
		H8.212c-0.885,0-1.107,0.886-1.329,1.773H3.78c-0.487,0-0.885,0.402-0.885,0.887v7.982c0,0.484,0.398,0.887,0.885,0.887h12.414
		c0.489,0,0.888-0.402,0.888-0.887V6.884C17.081,6.399,16.683,5.997,16.193,5.997 M9.987,14.811c-2.173,0-3.933-1.763-3.933-3.937
		c0-2.172,1.76-3.933,3.933-3.933c2.174,0,3.934,1.76,3.934,3.933C13.921,13.048,12.161,14.811,9.987,14.811 M16.193,8.658h-1.772
		V7.774h1.772V8.658z"/>
</g>
</svg>
