<?xml version="1.0" encoding="utf-8"?>
<!-- Generator: Adobe Illustrator 16.0.0, SVG Export Plug-In . SVG Version: 6.00 Build 0)  -->
<!DOCTYPE svg PUBLIC "-//W3C//DTD SVG 1.1//EN" "http://www.w3.org/Graphics/SVG/1.1/DTD/svg11.dtd">
<svg version="1.1" id="Layer_1" xmlns="http://www.w3.org/2000/svg" xmlns:xlink="http://www.w3.org/1999/xlink" x="0px" y="0px"
	 width="19.977px" height="19.977px" viewBox="0 0 19.977 19.977" enable-background="new 0 0 19.977 19.977" xml:space="preserve">
<g>
	<rect x="0.25" y="0.25" fill="#FFFFFF" width="19.477" height="19.477"/>
	<path fill="#E6E6E6" d="M19.477,0.5v18.977H0.5V0.5H19.477 M19.977,0H0v19.977h19.977V0L19.977,0z"/>
</g>
<path fill="#4740B7" d="M9.995,16.748c3.732,0,6.761-3.026,6.761-6.76c0-3.734-3.028-6.761-6.761-6.761
	c-3.733,0-6.76,3.027-6.76,6.761C3.235,13.722,6.262,16.748,9.995,16.748 M9.995,4.497c3.033,0,5.493,2.458,5.493,5.492
	c0,3.032-2.457,5.49-5.493,5.49c-3.033,0-5.492-2.458-5.492-5.49C4.503,6.954,6.962,4.497,9.995,4.497 M13.799,6.609
	c0.23,0,0.422,0.191,0.422,0.423V8.3c0,0.466-0.383,0.846-0.846,0.846h-1.689c-0.465,0-0.847-0.381-0.847-0.846H9.15
	c0,0.466-0.38,0.846-0.846,0.846H6.615c-0.467,0-0.846-0.381-0.846-0.846V7.029c0-0.232,0.191-0.421,0.424-0.421h2.534
	c0.229,0,0.419,0.191,0.419,0.421v0.425h1.691V7.029c0-0.232,0.189-0.421,0.421-0.421L13.799,6.609L13.799,6.609z M9.995,13.368
	c1.23,0,2.308-0.659,2.9-1.643l0.723,0.437c-0.738,1.229-2.086,2.051-3.623,2.051c-0.64,0-1.249-0.143-1.791-0.396l0.435-0.73
	C9.058,13.268,9.515,13.368,9.995,13.368L9.995,13.368z"/>
</svg>
