<?xml version="1.0" encoding="utf-8"?>
<!-- Generator: Adobe Illustrator 16.0.0, SVG Export Plug-In . SVG Version: 6.00 Build 0)  -->
<!DOCTYPE svg PUBLIC "-//W3C//DTD SVG 1.1//EN" "http://www.w3.org/Graphics/SVG/1.1/DTD/svg11.dtd">
<svg version="1.1" id="Layer_1" xmlns="http://www.w3.org/2000/svg" xmlns:xlink="http://www.w3.org/1999/xlink" x="0px" y="0px"
	 width="13.506px" height="13.506px" viewBox="0 0 13.506 13.506" enable-background="new 0 0 13.506 13.506" xml:space="preserve">
<path fill="#444444" d="M12.662,0L5.064,1.688V9.92c-0.536-0.392-1.284-0.634-2.11-0.634C1.322,9.286,0,10.23,0,11.396
	c0,1.165,1.322,2.11,2.954,2.11c1.632,0,2.955-0.945,2.955-2.11V5.943l6.753-1.501V8.23c-0.536-0.391-1.284-0.633-2.11-0.633
	c-1.633,0-2.955,0.945-2.955,2.11c0,1.165,1.322,2.11,2.955,2.11c1.631,0,2.954-0.945,2.954-2.11V0L12.662,0L12.662,0z
	 M12.662,3.362l-6.753,1.5V3.189l6.753-1.5V3.362z"/>
</svg>
