<?xml version="1.0" encoding="utf-8"?>
<!-- Generator: Adobe Illustrator 16.0.0, SVG Export Plug-In . SVG Version: 6.00 Build 0)  -->
<!DOCTYPE svg PUBLIC "-//W3C//DTD SVG 1.1//EN" "http://www.w3.org/Graphics/SVG/1.1/DTD/svg11.dtd">
<svg version="1.1" id="Layer_1" xmlns="http://www.w3.org/2000/svg" xmlns:xlink="http://www.w3.org/1999/xlink" x="0px" y="0px"
	 width="13.639px" height="11.082px" viewBox="0 0 13.639 11.082" enable-background="new 0 0 13.639 11.082" xml:space="preserve">
<g>
	<path fill="#444444" d="M4.049,6.393c0,1.531,1.24,2.771,2.771,2.771c1.53,0,2.771-1.24,2.771-2.771c0-1.53-1.24-2.771-2.771-2.771
		C5.289,3.623,4.049,4.863,4.049,6.393 M12.787,1.705H9.803C9.59,0.852,9.377,0,8.524,0h-3.41C4.262,0,4.049,0.852,3.836,1.705
		H0.852C0.382,1.705,0,2.089,0,2.557v7.673c0,0.468,0.382,0.852,0.852,0.852h11.935c0.468,0,0.852-0.384,0.852-0.852V2.557
		C13.639,2.089,13.255,1.705,12.787,1.705 M6.819,10.176c-2.089,0-3.784-1.693-3.784-3.783c0-2.089,1.695-3.783,3.784-3.783
		c2.089,0,3.783,1.694,3.783,3.783C10.602,8.483,8.908,10.176,6.819,10.176 M12.787,4.262h-1.705V3.41h1.705V4.262z"/>
</g>
</svg>
