<?xml version="1.0" encoding="utf-8"?>
<!-- Generator: Adobe Illustrator 16.0.0, SVG Export Plug-In . SVG Version: 6.00 Build 0)  -->
<!DOCTYPE svg PUBLIC "-//W3C//DTD SVG 1.1//EN" "http://www.w3.org/Graphics/SVG/1.1/DTD/svg11.dtd">
<svg version="1.1" id="Layer_1" xmlns="http://www.w3.org/2000/svg" xmlns:xlink="http://www.w3.org/1999/xlink" x="0px" y="0px"
	 width="13.432px" height="10.423px" viewBox="0 0 13.432 10.423" enable-background="new 0 0 13.432 10.423" xml:space="preserve">
<path fill="#444444" d="M13.337,1.345C12.667,0.516,11.416,0,10.073,0C8.729,0,7.479,0.516,6.808,1.345
	c-0.06,0.076-0.093,0.168-0.093,0.264c0-0.096-0.032-0.188-0.093-0.264C5.952,0.516,4.701,0,3.357,0
	C2.014,0,0.763,0.516,0.092,1.345C0.033,1.421,0,1.514,0,1.609v8.395c0,0.178,0.112,0.336,0.28,0.394
	c0.168,0.06,0.355,0.007,0.467-0.13c0.514-0.638,1.514-1.034,2.611-1.034s2.097,0.396,2.61,1.034c0.083,0.1,0.204,0.156,0.328,0.156
	h0.839c0.123,0,0.245-0.056,0.326-0.156c0.515-0.638,1.515-1.034,2.612-1.034c1.096,0,2.097,0.396,2.61,1.034
	c0.113,0.137,0.3,0.191,0.468,0.13c0.167-0.058,0.28-0.217,0.28-0.394V1.609c0-0.096-0.033-0.188-0.093-0.264H13.337z M5.876,9.083
	c-0.683-0.438-1.577-0.69-2.519-0.69c-0.941,0-1.836,0.252-2.519,0.69V1.766C1.376,1.192,2.324,0.84,3.357,0.84
	c1.033,0,1.981,0.352,2.519,0.926V9.083z M12.591,9.083c-0.683-0.438-1.578-0.69-2.519-0.69s-1.836,0.252-2.518,0.69V1.766
	C8.091,1.192,9.04,0.84,10.073,0.84c1.033,0,1.981,0.352,2.519,0.926V9.083z"/>
<rect x="8.394" y="2.518" fill="#444444" width="3.357" height="0.839"/>
<rect x="8.394" y="4.196" fill="#444444" width="3.357" height="0.84"/>
<rect x="8.394" y="5.875" fill="#444444" width="2.519" height="0.839"/>
<rect x="1.679" y="2.518" fill="#444444" width="3.357" height="0.839"/>
<rect x="1.679" y="4.196" fill="#444444" width="3.357" height="0.84"/>
<rect x="1.679" y="5.875" fill="#444444" width="2.518" height="0.839"/>
</svg>
