<?xml version="1.0" encoding="utf-8"?>
<!-- Generator: Adobe Illustrator 16.0.0, SVG Export Plug-In . SVG Version: 6.00 Build 0)  -->
<!DOCTYPE svg PUBLIC "-//W3C//DTD SVG 1.1//EN" "http://www.w3.org/Graphics/SVG/1.1/DTD/svg11.dtd">
<svg version="1.1" id="Layer_1" xmlns="http://www.w3.org/2000/svg" xmlns:xlink="http://www.w3.org/1999/xlink" x="0px" y="0px"
	 width="13.668px" height="9.549px" viewBox="0 0 13.668 9.549" enable-background="new 0 0 13.668 9.549" xml:space="preserve">
<g>
	<path fill="#444444" d="M2.785,0H0.398C0.179,0,0,0.179,0,0.398v8.753C0,9.37,0.179,9.549,0.398,9.549h2.387
		c0.218,0,0.398-0.179,0.398-0.397V0.398C3.183,0.179,3.003,0,2.785,0 M2.387,2.387H0.795V1.592h1.592V2.387z"/>
	<path fill="#444444" d="M6.764,0H4.376C4.158,0,3.979,0.179,3.979,0.398v8.753c0,0.219,0.179,0.397,0.398,0.397h2.387
		c0.218,0,0.397-0.179,0.397-0.397V0.398C7.161,0.179,6.981,0,6.764,0 M6.366,2.387H4.774V1.592h1.591L6.366,2.387L6.366,2.387z"/>
	<path fill="#444444" d="M9.512,0.616L7.379,1.69C7.184,1.789,7.105,2.028,7.204,2.224l3.581,7.105
		c0.099,0.195,0.338,0.273,0.533,0.175l2.132-1.073c0.194-0.099,0.274-0.34,0.177-0.535l-3.581-7.104
		C9.947,0.597,9.707,0.518,9.512,0.616"/>
</g>
<path fill="#444444" d="M11.538,9.151c0,0.219-0.179,0.397-0.397,0.397c-0.22,0-0.397-0.179-0.397-0.397s0.178-0.398,0.397-0.398
	C11.357,8.753,11.538,8.933,11.538,9.151"/>
</svg>
