<?xml version="1.0" encoding="utf-8"?>
<!-- Generator: Adobe Illustrator 16.0.0, SVG Export Plug-In . SVG Version: 6.00 Build 0)  -->
<!DOCTYPE svg PUBLIC "-//W3C//DTD SVG 1.1//EN" "http://www.w3.org/Graphics/SVG/1.1/DTD/svg11.dtd">
<svg version="1.1" id="Layer_1" xmlns="http://www.w3.org/2000/svg" xmlns:xlink="http://www.w3.org/1999/xlink" x="0px" y="0px"
	 width="13.235px" height="13.235px" viewBox="0 0 13.235 13.235" enable-background="new 0 0 13.235 13.235" xml:space="preserve">
<path fill="#444444" d="M6.617,13.235c3.654,0,6.618-2.963,6.618-6.617S10.271,0,6.617,0S0,2.963,0,6.618S2.963,13.235,6.617,13.235
	 M6.617,1.241c2.97,0,5.377,2.407,5.377,5.377c0,2.969-2.407,5.376-5.377,5.376c-2.969,0-5.376-2.407-5.376-5.376
	C1.241,3.648,3.648,1.241,6.617,1.241 M10.34,3.309c0.227,0,0.414,0.186,0.414,0.414v1.241c0,0.455-0.373,0.827-0.827,0.827H8.271
	c-0.455,0-0.827-0.372-0.827-0.827H5.79c0,0.455-0.372,0.827-0.827,0.827H3.309c-0.455,0-0.827-0.372-0.827-0.827V3.722
	c0-0.228,0.187-0.414,0.414-0.414h2.481c0.226,0,0.413,0.186,0.413,0.414v0.414h1.655V3.722c0-0.228,0.186-0.414,0.413-0.414H10.34z
	 M6.617,9.926c1.205,0,2.258-0.644,2.837-1.607l0.709,0.426c-0.723,1.203-2.042,2.008-3.547,2.008c-0.626,0-1.221-0.14-1.752-0.389
	L5.292,9.65C5.699,9.827,6.146,9.926,6.617,9.926L6.617,9.926z"/>
</svg>
