<?xml version="1.0" encoding="utf-8"?>
<!-- Generator: Adobe Illustrator 16.0.0, SVG Export Plug-In . SVG Version: 6.00 Build 0)  -->
<!DOCTYPE svg PUBLIC "-//W3C//DTD SVG 1.1//EN" "http://www.w3.org/Graphics/SVG/1.1/DTD/svg11.dtd">
<svg version="1.1" id="Layer_1" xmlns="http://www.w3.org/2000/svg" xmlns:xlink="http://www.w3.org/1999/xlink" x="0px" y="0px"
	 width="13.351px" height="9.102px" viewBox="0 0 13.351 9.102" enable-background="new 0 0 13.351 9.102" xml:space="preserve">
<path fill="#444444" d="M7.282,6.687V6.562c0.877-0.336,1.518-1.38,1.518-2.618c0-1.508-0.952-2.731-2.124-2.731
	c-1.174,0-2.124,1.223-2.124,2.731c0,1.237,0.64,2.281,1.517,2.618v0.125C4.009,6.772,2.427,7.278,2.427,7.888v1.214h8.496V7.888
	C10.923,7.278,9.34,6.772,7.282,6.687"/>
<path fill="#444444" d="M10.923,4.253V4.205c0.692-0.196,1.213-1.053,1.213-2.081C12.137,0.951,11.458,0,10.62,0
	C9.781,0,9.103,0.951,9.103,2.124c0,1.028,0.521,1.885,1.213,2.081v0.048c-0.302,0.012-0.589,0.039-0.852,0.08
	c-0.06,0.647-0.267,1.246-0.585,1.735h4.472V5.157C13.351,4.688,12.288,4.303,10.923,4.253L10.923,4.253z"/>
<path fill="#444444" d="M3.886,4.333c-0.263-0.041-0.551-0.068-0.852-0.08V4.206c0.692-0.196,1.214-1.053,1.214-2.081
	C4.248,0.952,3.568,0,2.73,0C1.892,0,1.213,0.952,1.213,2.125c0,1.028,0.521,1.885,1.214,2.081v0.048C1.062,4.304,0,4.69,0,5.158
	v0.911h4.471C4.153,5.578,3.946,4.98,3.886,4.333L3.886,4.333z"/>
</svg>
