<?xml version="1.0" encoding="utf-8"?>
<!-- Generator: Adobe Illustrator 16.0.0, SVG Export Plug-In . SVG Version: 6.00 Build 0)  -->
<!DOCTYPE svg PUBLIC "-//W3C//DTD SVG 1.1//EN" "http://www.w3.org/Graphics/SVG/1.1/DTD/svg11.dtd">
<svg version="1.1" id="Layer_1" xmlns="http://www.w3.org/2000/svg" xmlns:xlink="http://www.w3.org/1999/xlink" x="0px" y="0px"
	 width="13.639px" height="10.229px" viewBox="0 0 13.639 10.229" enable-background="new 0 0 13.639 10.229" xml:space="preserve">
<g>
	<path fill="#444444" d="M0,10.229h13.639V0H0V10.229z M2.558,9.377H0.853V7.672h1.705V9.377z M2.558,5.967H0.853V4.262h1.705V5.967
		z M2.558,2.557H0.853V0.853h1.705V2.557z M10.229,9.377H3.41V0.853h6.819L10.229,9.377L10.229,9.377z M12.787,9.377h-1.705V7.672
		h1.705V9.377z M12.787,5.967h-1.705V4.262h1.705V5.967z M12.787,2.557h-1.705V0.853h1.705V2.557z M5.115,2.557v5.115l3.409-2.558
		L5.115,2.557z"/>
</g>
</svg>
