<?xml version="1.0" encoding="utf-8"?>
<!-- Generator: Adobe Illustrator 16.0.0, SVG Export Plug-In . SVG Version: 6.00 Build 0)  -->
<!DOCTYPE svg PUBLIC "-//W3C//DTD SVG 1.1//EN" "http://www.w3.org/Graphics/SVG/1.1/DTD/svg11.dtd">
<svg version="1.1" id="Layer_1" xmlns="http://www.w3.org/2000/svg" xmlns:xlink="http://www.w3.org/1999/xlink" x="0px" y="0px"
	 width="13.528px" height="8.987px" viewBox="0 -1.115 13.528 8.987" enable-background="new 0 -1.115 13.528 8.987"
	 xml:space="preserve">
<path fill="#444444" d="M4.228,0.842H3.382v0.845H2.537v0.846h0.845v0.846h0.846V2.533h0.845V1.687H4.228V0.842z M8.455,1.476
	c0-0.35,0.284-0.634,0.634-0.634s0.635,0.284,0.635,0.634c0,0.35-0.285,0.634-0.635,0.634S8.455,1.826,8.455,1.476 M9.724,2.744
	c0-0.35,0.284-0.634,0.635-0.634c0.349,0,0.634,0.284,0.634,0.634c0,0.351-0.285,0.634-0.634,0.634
	C10.008,3.378,9.724,3.095,9.724,2.744 M9.77-1.115c-1.538,0-1.776,0.909-3.005,0.909c-1.23,0-1.47-0.909-3.006-0.909
	C1.282-1.115,0,1.917,0,4.084c0,2.053,0.192,3.546,0.96,3.755c0.768,0.21,1.745-0.618,2.699-1.516
	c0.954-0.898,1.115-0.84,1.883-0.84l1.222,0.027l1.22-0.027c0.769,0,0.931-0.059,1.884,0.84c0.954,0.897,1.932,1.726,2.699,1.516
	c0.768-0.209,0.961-1.702,0.961-3.755C13.529,1.916,12.245-1.115,9.77-1.115 M3.805,4.225c-1.168,0-2.114-0.947-2.114-2.114
	c0-1.168,0.945-2.114,2.114-2.114c1.168,0,2.114,0.946,2.114,2.114C5.919,3.277,4.973,4.225,3.805,4.225 M9.724,4.225
	c-1.168,0-2.114-0.947-2.114-2.114c0-1.168,0.946-2.114,2.114-2.114c1.167,0,2.113,0.946,2.113,2.114
	C11.837,3.277,10.891,4.225,9.724,4.225"/>
</svg>
