<?xml version="1.0" encoding="utf-8"?>
<!-- Generator: Adobe Illustrator 16.0.0, SVG Export Plug-In . SVG Version: 6.00 Build 0)  -->
<!DOCTYPE svg PUBLIC "-//W3C//DTD SVG 1.1//EN" "http://www.w3.org/Graphics/SVG/1.1/DTD/svg11.dtd">
<svg version="1.1" id="Layer_1" xmlns="http://www.w3.org/2000/svg" xmlns:xlink="http://www.w3.org/1999/xlink" x="0px" y="0px"
	 width="13.7px" height="13.187px" viewBox="0 0 13.7 13.187" enable-background="new 0 0 13.7 13.187" xml:space="preserve">
<path fill="#444444" d="M7.146,6.875c-1.676,0-3.281,0.75-4.316,3.768c-1.036,3.018,1.25,2.778,2.692,2.154
	c1.396-0.604,1.928-0.696,3.61,0.104c1.583,0.752,2.936-0.033,2.371-1.682S9.036,6.874,7.146,6.875L7.146,6.875z M3.975,0.074
	c-0.955,0.229-1.46,1.527-1.127,2.9c0.332,1.373,1.375,2.301,2.331,2.073c0.004-0.001,0.009-0.002,0.013-0.003
	c0.956-0.229,1.46-1.527,1.128-2.9c-0.143-0.591-0.417-1.1-0.76-1.469C5.105,0.186,4.532-0.058,3.988,0.07
	C3.984,0.072,3.979,0.072,3.975,0.074 M9.509,0.027C8.548-0.175,7.537,0.783,7.25,2.168C7.085,2.963,7.197,3.726,7.503,4.269
	c0.228,0.4,0.561,0.683,0.97,0.768C8.476,5.039,8.48,5.039,8.484,5.04c0.961,0.2,1.972-0.758,2.258-2.141
	c0.287-1.385-0.26-2.669-1.222-2.871C9.518,0.028,9.514,0.027,9.509,0.027 M0.275,7.164c0.528,1.222,1.642,1.918,2.487,1.552
	c0.484-0.208,0.774-0.721,0.837-1.347c0.045-0.469-0.037-1.004-0.264-1.526c0-0.001-0.001-0.001-0.001-0.001
	C2.806,4.619,1.692,3.923,0.848,4.29C0.003,4.655-0.253,5.94,0.275,7.164C0.274,7.164,0.275,7.164,0.275,7.164 M10.933,8.501
	c0.481,0.211,1.051,0.077,1.55-0.303c0.375-0.287,0.711-0.713,0.939-1.238c0.531-1.221,0.278-2.508-0.564-2.879
	c-0.003-0.001-0.007-0.003-0.011-0.005c-0.843-0.371-1.957,0.318-2.489,1.54c-0.532,1.221-0.279,2.51,0.563,2.878
	C10.925,8.497,10.93,8.499,10.933,8.501"/>
</svg>
