<?xml version="1.0" encoding="utf-8"?>
<!-- Generator: Adobe Illustrator 16.0.0, SVG Export Plug-In . SVG Version: 6.00 Build 0)  -->
<!DOCTYPE svg PUBLIC "-//W3C//DTD SVG 1.1//EN" "http://www.w3.org/Graphics/SVG/1.1/DTD/svg11.dtd">
<svg version="1.1" id="Layer_1" xmlns="http://www.w3.org/2000/svg" xmlns:xlink="http://www.w3.org/1999/xlink" x="0px" y="0px"
	 width="8.791px" height="8.352px" viewBox="0 0 8.791 8.352" enable-background="new 0 0 8.791 8.352" xml:space="preserve">
<g>
	<path fill="#EEEEEE" d="M8.776,3.17C8.741,3.057,8.636,2.98,8.515,2.98H5.567l-0.91-2.791C4.62,0.076,4.514,0,4.395,0
		C4.277,0,4.171,0.076,4.134,0.189L3.224,2.98H0.275c-0.119,0-0.225,0.077-0.261,0.19c-0.037,0.113,0.004,0.238,0.1,0.308
		l2.384,1.724l-0.91,2.791c-0.037,0.113,0.004,0.236,0.1,0.307c0.097,0.07,0.226,0.07,0.323,0l2.385-1.725L6.78,8.299
		c0.049,0.035,0.105,0.053,0.162,0.053s0.113-0.018,0.162-0.053c0.096-0.07,0.137-0.193,0.1-0.307l-0.91-2.791l2.383-1.724
		c0.098-0.07,0.137-0.194,0.102-0.308H8.776z"/>
	<path fill="#B3B3B3" d="M6.944,8.352c-0.057,0-0.113-0.018-0.16-0.053L4.399,6.576L2.015,8.299c-0.096,0.07-0.227,0.07-0.324,0
		C1.596,8.23,1.556,8.105,1.593,7.992l0.91-2.789L0.12,3.48C0.022,3.411-0.017,3.287,0.02,3.173s0.142-0.19,0.261-0.19h2.947
		l0.91-2.789C4.174,0.081,4.28,0.005,4.399,0.005c0.118,0,0.224,0.076,0.261,0.189l0.909,2.789h2.948
		c0.119,0,0.225,0.077,0.262,0.19S8.774,3.411,8.677,3.48L6.294,5.204l0.91,2.789c0.037,0.113-0.002,0.238-0.1,0.307
		C7.058,8.334,6.999,8.352,6.942,8.352H6.944z M1.129,3.532l1.858,1.344c0.097,0.069,0.137,0.193,0.1,0.307L2.376,7.359l1.862-1.346
		c0.097-0.07,0.226-0.07,0.321,0l1.862,1.346L5.71,5.183C5.672,5.07,5.714,4.946,5.81,4.876l1.859-1.344H5.371
		c-0.118,0-0.225-0.076-0.261-0.189l-0.711-2.18l-0.711,2.18C3.651,3.456,3.545,3.532,3.427,3.532H1.129z"/>
</g>
</svg>
