<?xml version="1.0" encoding="utf-8"?>
<!-- Generator: Adobe Illustrator 16.0.0, SVG Export Plug-In . SVG Version: 6.00 Build 0)  -->
<!DOCTYPE svg PUBLIC "-//W3C//DTD SVG 1.1//EN" "http://www.w3.org/Graphics/SVG/1.1/DTD/svg11.dtd">
<svg version="1.1" id="Layer_1" xmlns="http://www.w3.org/2000/svg" xmlns:xlink="http://www.w3.org/1999/xlink" x="0px" y="0px"
	 width="9.637px" height="8.433px" viewBox="0 0 9.637 8.433" enable-background="new 0 0 9.637 8.433" xml:space="preserve">
<path fill="#444444" d="M9.637,2.768C9.637,1.239,8.397,0,6.869,0c-0.812,0-1.544,0.351-2.05,0.908C4.311,0.351,3.581,0,2.768,0
	C1.24,0,0,1.239,0,2.768c0,0.813,0.35,1.544,0.908,2.05H0.903L3.915,7.83c0.302,0.301,0.603,0.603,0.904,0.603
	c0.301,0,0.603-0.302,0.903-0.603l3.006-3.012C9.287,4.312,9.637,3.582,9.637,2.768 M7.918,3.926L4.87,6.978
	C4.854,6.994,4.837,7.011,4.818,7.03C4.8,7.012,4.782,6.995,4.766,6.978L1.717,3.927c-0.33-0.3-0.513-0.711-0.513-1.158
	c0-0.862,0.701-1.563,1.563-1.563c0.446,0,0.857,0.182,1.158,0.512l0.892,0.983L5.71,1.718c0.301-0.331,0.711-0.512,1.158-0.512
	c0.862,0,1.563,0.701,1.563,1.563C8.432,3.215,8.25,3.626,7.918,3.926L7.918,3.926z"/>
</svg>
