<?xml version="1.0" encoding="utf-8"?>
<!-- Generator: Adobe Illustrator 16.0.0, SVG Export Plug-In . SVG Version: 6.00 Build 0)  -->
<!DOCTYPE svg PUBLIC "-//W3C//DTD SVG 1.1//EN" "http://www.w3.org/Graphics/SVG/1.1/DTD/svg11.dtd">
<svg version="1.1" id="Layer_1" xmlns="http://www.w3.org/2000/svg" xmlns:xlink="http://www.w3.org/1999/xlink" x="0px" y="0px"
	 width="8.792px" height="8.352px" viewBox="0 0 8.792 8.352" enable-background="new 0 0 8.792 8.352" xml:space="preserve">
<path fill="#F2E121" d="M8.777,3.17C8.741,3.057,8.635,2.98,8.515,2.98H5.567L4.656,0.189C4.62,0.076,4.514,0,4.395,0
	C4.277,0,4.171,0.076,4.134,0.189L3.224,2.98H0.275c-0.119,0-0.225,0.077-0.261,0.19c-0.037,0.113,0.004,0.238,0.1,0.308
	l2.384,1.724l-0.91,2.791c-0.037,0.113,0.004,0.236,0.1,0.307c0.097,0.07,0.226,0.07,0.323,0l2.385-1.725l2.385,1.725
	c0.048,0.035,0.105,0.053,0.161,0.053c0.057,0,0.114-0.018,0.162-0.053c0.096-0.07,0.137-0.193,0.1-0.307l-0.91-2.791l2.384-1.724
	C8.774,3.408,8.814,3.283,8.777,3.17L8.777,3.17z"/>
</svg>
